<svg id="Capa_1" data-name="Capa 1" xmlns="http://www.w3.org/2000/svg" xmlns:xlink="http://www.w3.org/1999/xlink" viewBox="0 0 200 200"><defs><style>.cls-1{fill:none;}.cls-2{clip-path:url(#clip-path);}.cls-3{fill:#bce235;}.cls-4{clip-path:url(#clip-path-2);}.cls-5{fill:#fff;}</style><clipPath id="clip-path"><circle class="cls-1" cx="314" cy="100" r="160.96"/></clipPath><clipPath id="clip-path-2"><circle class="cls-1" cx="100" cy="100" r="160.96"/></clipPath></defs><title>001</title><g class="cls-2"><g id="xgoLEP"><rect class="cls-3" x="4.87" y="-143.01" width="661.48" height="582.27"/></g></g><g class="cls-4"><g id="xgoLEP-2" data-name="xgoLEP"><rect class="cls-3" x="-209.13" y="-143.01" width="661.48" height="582.27"/></g></g><path class="cls-5" d="M92.66,133.42c-18.56-8.94-21.46-24.81-5.81-44.93.22,5.36.67,10.5,3.8,13.41-.9-4.69-4.7-21.24,15.87-35.32-6.26,29.28,38.22,37.56,3.13,66.39,9.39-19-6.49-18.33-6.93-36-7.16,6.93-7.83,14.09-5.14,22.36-2.91-1.12-5.82-4-7.6-7.83-3.13,8-.23,16.32,2.68,21.91"/></svg>