<svg id="Capa_1" data-name="Capa 1" xmlns="http://www.w3.org/2000/svg" xmlns:xlink="http://www.w3.org/1999/xlink" viewBox="0 0 200 200"><defs><style>.cls-1{fill:none;}.cls-2{clip-path:url(#clip-path);}.cls-3{fill:#bce235;}.cls-4{clip-path:url(#clip-path-2);}.cls-5{fill:#fff;}.cls-6{clip-path:url(#clip-path-3);}</style><clipPath id="clip-path"><circle class="cls-1" cx="94" cy="100" r="160.96"/></clipPath><clipPath id="clip-path-2"><circle class="cls-1" cx="-120" cy="100" r="160.96"/></clipPath><clipPath id="clip-path-3"><circle class="cls-1" cx="320" cy="100" r="160.96"/></clipPath></defs><title>002</title><g class="cls-2"><g id="xgoLEP"><rect class="cls-3" x="-215.13" y="-143.01" width="661.48" height="582.27"/></g></g><g class="cls-4"><g id="xgoLEP-2" data-name="xgoLEP"><rect class="cls-3" x="-429.13" y="-143.01" width="661.48" height="582.27"/></g></g><path class="cls-5" d="M100,53a8.66,8.66,0,1,1-8.66,8.66A8.66,8.66,0,0,1,100,53"/><path class="cls-5" d="M121.27,106.18h0l-8.28-31a3.16,3.16,0,0,0-3.1-2.35H90.11A3.2,3.2,0,0,0,87,75l-8.28,31.16a3.14,3.14,0,1,0,6.06,1.61l5.32-20.41v55.41a4.33,4.33,0,0,0,8.65,0V112.37h2.48v30.42a4.33,4.33,0,0,0,8.65,0V87.38l5.45,20.29a3.23,3.23,0,0,0,3.83,2.22,2.93,2.93,0,0,0,2.1-3.71"/><g class="cls-6"><g id="xgoLEP-3" data-name="xgoLEP"><rect class="cls-3" x="10.87" y="-143.01" width="661.48" height="582.27"/></g></g></svg>