<svg id="Capa_1" data-name="Capa 1" xmlns="http://www.w3.org/2000/svg" xmlns:xlink="http://www.w3.org/1999/xlink" viewBox="0 0 200 200"><defs><style>.cls-1{fill:none;}.cls-2{clip-path:url(#clip-path);}.cls-3{fill:#bce235;}.cls-4{clip-path:url(#clip-path-2);}.cls-5{clip-path:url(#clip-path-3);}.cls-6{clip-path:url(#clip-path-4);}.cls-7{fill:#fff;}.cls-8{fill:#323133;}</style><clipPath id="clip-path"><circle class="cls-1" cx="-126" cy="100" r="160.96"/></clipPath><clipPath id="clip-path-2"><circle class="cls-1" cx="-340" cy="100" r="160.96"/></clipPath><clipPath id="clip-path-3"><circle class="cls-1" cx="100" cy="100" r="160.96"/></clipPath><clipPath id="clip-path-4"><circle class="cls-1" cx="320" cy="100" r="160.96"/></clipPath></defs><title>003</title><g class="cls-2"><g id="xgoLEP"><rect class="cls-3" x="-435.13" y="-143.01" width="661.48" height="582.27"/></g></g><g class="cls-4"><g id="xgoLEP-2" data-name="xgoLEP"><rect class="cls-3" x="-649.13" y="-143.01" width="661.48" height="582.27"/></g></g><g class="cls-5"><g id="xgoLEP-3" data-name="xgoLEP"><rect class="cls-3" x="-209.13" y="-143.01" width="661.48" height="582.27"/></g></g><g class="cls-6"><g id="xgoLEP-4" data-name="xgoLEP"><rect class="cls-3" x="10.87" y="-143.01" width="661.48" height="582.27"/></g></g><path class="cls-7" d="M130.49,104.78a21.61,21.61,0,1,1-21.61,21.61,21.61,21.61,0,0,1,21.61-21.61"/><path class="cls-7" d="M57.48,100c.25-15.81,9.89-30.38,24.92-35.9A38.31,38.31,0,1,1,57.48,100c-.1-6.43-10.1-6.45-10,0a49,49,0,0,0,32.26,45.54c18.73,6.75,40.62.57,53.19-14.8,12.82-15.65,14.71-38.27,4.16-55.66A48.82,48.82,0,0,0,86.2,52.66C63.69,57,47.84,77.4,47.48,100c-.1,6.44,9.9,6.44,10,0"/><path class="cls-8" d="M130.61,104.16a21.92,21.92,0,1,1-21.92,21.92,21.91,21.91,0,0,1,21.92-21.92m14.32,6.62-.77.65a14.63,14.63,0,0,1,2,6.72c1.42,2,3,3.94,4.27,6,.32-.17.65-.28,1-.44a21,21,0,0,0-6.55-13m-9.35-2.19a19.21,19.21,0,0,1,7.92,2.13l.72-.6a21.12,21.12,0,0,0-13.4-5l-.21.27a15.37,15.37,0,0,1,5,3.17m-17,5a11.62,11.62,0,0,1,1.7-4.81h-1.54a21.16,21.16,0,0,0-8.25,11.37l2.08-.28a19.4,19.4,0,0,1,6-6.28m-3.5,13.93a15.34,15.34,0,0,1-2.62-6.66l-2.24.27a21.6,21.6,0,0,0,1.53,14.1,15.22,15.22,0,0,0,2.73-.27,58.28,58.28,0,0,1,.6-7.44M132.52,147a22.91,22.91,0,0,0,3.77-1.81,31.3,31.3,0,0,1-.16-3.17,19.14,19.14,0,0,1-7.44-2,38.35,38.35,0,0,1-6.83,1.64,12,12,0,0,0,.55,3.71A20.59,20.59,0,0,0,132.52,147m16.18-10.22a6.65,6.65,0,0,0-.6-3.12l-5.74,1.81a23.55,23.55,0,0,1-5.31,6.34,29.61,29.61,0,0,0,.17,3.11c1,0,2.13-.11,3.17-.22a20.39,20.39,0,0,0,8.31-7.92m-19-30.61a22.64,22.64,0,0,0-8.14,2.68c-1.26,1-1.81,3.22-2.08,4.81a46.28,46.28,0,0,1,5.36,2.95,22.66,22.66,0,0,1,8-2.24,34.16,34.16,0,0,1,2-5.19,14.51,14.51,0,0,0-5.08-3m3.33,9.07a23.13,23.13,0,0,0-7.81,2.24,78.52,78.52,0,0,0-1.64,7.87c2,1.92,3.93,3.77,5.9,5.63,2.57-.71,5.14-1.47,7.65-2.4a75.56,75.56,0,0,0,1.92-7.82,18.83,18.83,0,0,0-6-5.52m-17,12.63a48.84,48.84,0,0,0-.6,7.38,37.4,37.4,0,0,0,6.18,5.52c1.47,0,4.92-1.1,6.67-1.53a26.66,26.66,0,0,1,.65-7.55c-2-1.85-4-3.71-5.9-5.63l-7,1.81m22.08,1c1.37,1.86,2.85,3.77,4.1,5.69l5.8-1.86a17.78,17.78,0,0,0,1.8-7.76,69.43,69.43,0,0,0-4.26-6c-1.86.61-3.72,1.37-5.52,2.08-.55,2.62-1.15,5.3-1.92,7.87"/></svg>