<svg id="Capa_1" data-name="Capa 1" xmlns="http://www.w3.org/2000/svg" xmlns:xlink="http://www.w3.org/1999/xlink" viewBox="0 0 200 200"><defs><style>.cls-1{fill:none;}.cls-2{clip-path:url(#clip-path);}.cls-3{fill:#bce235;}.cls-4{clip-path:url(#clip-path-2);}.cls-5{clip-path:url(#clip-path-3);}.cls-6{clip-path:url(#clip-path-4);}.cls-7{fill:#fff;}</style><clipPath id="clip-path"><circle class="cls-1" cx="-340" cy="100" r="160.96"/></clipPath><clipPath id="clip-path-2"><circle class="cls-1" cx="-120" cy="100" r="160.96"/></clipPath><clipPath id="clip-path-3"><circle class="cls-1" cx="100" cy="100" r="160.96"/></clipPath><clipPath id="clip-path-4"><circle class="cls-1" cx="320" cy="100" r="160.96"/></clipPath></defs><title>005</title><g class="cls-2"><g id="xgoLEP"><rect class="cls-3" x="-649.13" y="-143.01" width="661.48" height="582.27"/></g></g><g class="cls-4"><g id="xgoLEP-2" data-name="xgoLEP"><rect class="cls-3" x="-429.13" y="-143.01" width="661.48" height="582.27"/></g></g><g class="cls-5"><g id="xgoLEP-3" data-name="xgoLEP"><rect class="cls-3" x="-209.13" y="-143.01" width="661.48" height="582.27"/></g></g><g class="cls-6"><g id="xgoLEP-4" data-name="xgoLEP"><rect class="cls-3" x="10.87" y="-143.01" width="661.48" height="582.27"/></g></g><polygon class="cls-7" points="108.51 85.81 97.16 85.81 97.16 97.16 85.81 97.16 85.81 108.51 74.47 108.51 74.47 125.53 80.14 125.53 80.14 114.19 91.49 114.19 91.49 102.84 102.84 102.84 102.84 91.49 114.19 91.49 114.19 80.14 125.53 80.14 125.53 74.47 108.51 74.47 108.51 85.81"/></svg>