<svg id="Capa_1" data-name="Capa 1" xmlns="http://www.w3.org/2000/svg" xmlns:xlink="http://www.w3.org/1999/xlink" viewBox="0 0 200 200"><defs><style>.cls-1{fill:none;}.cls-2{clip-path:url(#clip-path);}.cls-3{fill:#bce235;}.cls-4{clip-path:url(#clip-path-2);}.cls-5{clip-path:url(#clip-path-3);}.cls-6{fill:#fff;}.cls-7{clip-path:url(#clip-path-4);}</style><clipPath id="clip-path"><circle class="cls-1" cx="-340" cy="100" r="160.96"/></clipPath><clipPath id="clip-path-2"><circle class="cls-1" cx="-120" cy="100" r="160.96"/></clipPath><clipPath id="clip-path-3"><circle class="cls-1" cx="100" cy="100" r="160.96"/></clipPath><clipPath id="clip-path-4"><circle class="cls-1" cx="320" cy="100" r="160.96"/></clipPath></defs><title>006</title><g class="cls-2"><g id="xgoLEP"><rect class="cls-3" x="-649.13" y="-143.01" width="661.48" height="582.27"/></g></g><g class="cls-4"><g id="xgoLEP-2" data-name="xgoLEP"><rect class="cls-3" x="-429.13" y="-143.01" width="661.48" height="582.27"/></g></g><g class="cls-5"><g id="xgoLEP-3" data-name="xgoLEP"><rect class="cls-3" x="-209.13" y="-143.01" width="661.48" height="582.27"/></g></g><path class="cls-6" d="M132.13,88.75a3,3,0,0,0-4.06-.74,37.75,37.75,0,0,1-5,2.77c-.75-.75-2.14-2.13-3-3.09-2.67-2.89-3.63-3.85-4.91-4.06l-4.59-.85c-1.92-.32-9.92,1.38-12.16,3.2-1.92,1.49-4.9,6.29-5.76,7.79a2.82,2.82,0,0,0,1,3.94,2.47,2.47,0,0,0,1.5.43,2.93,2.93,0,0,0,2.45-1.39c1.71-2.77,3.73-5.76,4.37-6.18a10.4,10.4,0,0,1,2.67-1c-1.39,5.12-2.88,10.66-3.63,12.9s-2,6.62-2.88,7.79c-2.77-.21-7.47-1.81-10-2.77a3.45,3.45,0,0,0-2.56,6.4c.86.32,8.54,3.31,13.23,3.31h.11c4.48,0,6.4-5.23,7.68-9.5,2.56,2.88,4.8,5.76,5.12,6.94.64,2.13,1.07,9.06,1.18,13a3.41,3.41,0,0,0,3.41,3.31h.11a3.46,3.46,0,0,0,3.3-3.63c0-1.06-.42-11-1.49-14.72-.75-2.45-3.52-6-6.08-9l4.16-11.42c2.24,2.46,3.41,3.63,4.59,4.16.85.32,3.09,1.39,10.24-3.52,1.6-1.06,2-2.88,1.07-4.16"/><path class="cls-6" d="M108.6,73.91a6.4,6.4,0,1,1,4.73,7.72,6.39,6.39,0,0,1-4.73-7.72"/><path class="cls-6" d="M77.61,85.45H90.3a2.14,2.14,0,1,0,0-4.27H77.61a2.14,2.14,0,0,0,0,4.27"/><path class="cls-6" d="M73.56,93.45H86.14a2.14,2.14,0,1,0,0-4.27H73.56a2.14,2.14,0,1,0,0,4.27"/><path class="cls-6" d="M84.33,99.21a2.14,2.14,0,0,0-2.13-2.14H69.5a2.14,2.14,0,0,0,0,4.27H82.09a2.1,2.1,0,0,0,2.24-2.13"/><g class="cls-7"><g id="xgoLEP-4" data-name="xgoLEP"><rect class="cls-3" x="10.87" y="-143.01" width="661.48" height="582.27"/></g></g></svg>