<svg id="Capa_1" data-name="Capa 1" xmlns="http://www.w3.org/2000/svg" xmlns:xlink="http://www.w3.org/1999/xlink" viewBox="0 0 200 200"><defs><style>.cls-1{fill:none;}.cls-2{clip-path:url(#clip-path);}.cls-3{fill:#bce235;}.cls-4{clip-path:url(#clip-path-2);}.cls-5{clip-path:url(#clip-path-3);}.cls-6{clip-path:url(#clip-path-4);}.cls-7{fill:#fff;}</style><clipPath id="clip-path"><circle class="cls-1" cx="-340" cy="100" r="160.96"/></clipPath><clipPath id="clip-path-2"><circle class="cls-1" cx="-120" cy="100" r="160.96"/></clipPath><clipPath id="clip-path-3"><circle class="cls-1" cx="100" cy="100" r="160.96"/></clipPath><clipPath id="clip-path-4"><circle class="cls-1" cx="320" cy="100" r="160.96"/></clipPath></defs><title>007</title><g class="cls-2"><g id="xgoLEP"><rect class="cls-3" x="-649.13" y="-143.01" width="661.48" height="582.27"/></g></g><g class="cls-4"><g id="xgoLEP-2" data-name="xgoLEP"><rect class="cls-3" x="-429.13" y="-143.01" width="661.48" height="582.27"/></g></g><g class="cls-5"><g id="xgoLEP-3" data-name="xgoLEP"><rect class="cls-3" x="-209.13" y="-143.01" width="661.48" height="582.27"/></g></g><g class="cls-6"><g id="xgoLEP-4" data-name="xgoLEP"><rect class="cls-3" x="10.87" y="-143.01" width="661.48" height="582.27"/></g></g><path class="cls-7" d="M54.13,116.73l.58,0c24.65-2.67,55-9.68,56.31-10a5.52,5.52,0,0,0,1.08-.38,41.67,41.67,0,0,0,7-2.55l-.17-10.37A4.33,4.33,0,0,1,123.19,89h.07a4.34,4.34,0,0,1,4.31,4.25l.08,5.08a9,9,0,0,0,1.71-9.45c-1.58-3.37-6.83-4-10.73-2-5.59,2.27-13.54,5.91-20.86,6.35-5.87.78-5.94,2.56-5.25,6.37l0,.17c-11,2.22-26,4.94-39,6.35a5.29,5.29,0,0,0,.56,10.54"/><path class="cls-7" d="M126.64,93.3A3.38,3.38,0,0,0,123.26,90h-.06a3.38,3.38,0,0,0-3.33,3.44l.32,19.78a3.38,3.38,0,0,0,3.38,3.33H143a3.39,3.39,0,0,0,0-6.77H126.91Z"/><path class="cls-7" d="M133.15,92.27a9,9,0,1,1,9,9,9,9,0,0,1-9-9"/></svg>