<svg id="Capa_1" data-name="Capa 1" xmlns="http://www.w3.org/2000/svg" xmlns:xlink="http://www.w3.org/1999/xlink" viewBox="0 0 200 200"><defs><style>.cls-1{fill:none;}.cls-2{clip-path:url(#clip-path);}.cls-3{fill:#bce235;}.cls-4{clip-path:url(#clip-path-2);}.cls-5{clip-path:url(#clip-path-3);}.cls-6{clip-path:url(#clip-path-4);}.cls-7{fill:#fff;}</style><clipPath id="clip-path"><circle class="cls-1" cx="-340" cy="100" r="160.96"/></clipPath><clipPath id="clip-path-2"><circle class="cls-1" cx="-120" cy="100" r="160.96"/></clipPath><clipPath id="clip-path-3"><circle class="cls-1" cx="100" cy="100" r="160.96"/></clipPath><clipPath id="clip-path-4"><circle class="cls-1" cx="320" cy="100" r="160.96"/></clipPath></defs><title>008</title><g class="cls-2"><g id="xgoLEP"><rect class="cls-3" x="-649.13" y="-143.01" width="661.48" height="582.27"/></g></g><g class="cls-4"><g id="xgoLEP-2" data-name="xgoLEP"><rect class="cls-3" x="-429.13" y="-143.01" width="661.48" height="582.27"/></g></g><g class="cls-5"><g id="xgoLEP-3" data-name="xgoLEP"><rect class="cls-3" x="-209.13" y="-143.01" width="661.48" height="582.27"/></g></g><g class="cls-6"><g id="xgoLEP-4" data-name="xgoLEP"><rect class="cls-3" x="10.87" y="-143.01" width="661.48" height="582.27"/></g></g><path class="cls-7" d="M123.61,79.33S110,67.84,100,83.48c-10.07-15.64-23.61-4.15-23.61-4.15-9.39,8.54,0,20,0,20,3.52,6.32,21.28,23.22,23.5,25.32l.11.12c1.59-1.48,20-18.95,23.61-25.44,0,0,9.39-11.43,0-20m-8.36,21.22h-8a1.19,1.19,0,0,1-1.08-.68l-.8-1.71-4.21,9.22a1.12,1.12,0,0,1-1.08.69H100a1.17,1.17,0,0,1-1.08-.8L94.37,94.81l-2.62,5.06a1.23,1.23,0,0,1-1.08.63H84.75a1.2,1.2,0,0,1,0-2.39H90l3.52-6.83a1.22,1.22,0,0,1,1.14-.63,1.33,1.33,0,0,1,1.08.8l4.44,12.29,4.1-8.87a1.19,1.19,0,0,1,2.16,0L108,98.22h7.28a1.16,1.16,0,0,1,1.19,1.2,1.22,1.22,0,0,1-1.19,1.13"/></svg>