<svg id="Capa_1" data-name="Capa 1" xmlns="http://www.w3.org/2000/svg" viewBox="0 0 200 120"><defs><style>.cls-1{fill:#fff;}.cls-2{fill:#bce235;}</style></defs><title>alert</title><path class="cls-1" d="M137,86.07,104.09,29.18a4.73,4.73,0,0,0-8.18,0L63.05,86.07a4.72,4.72,0,0,0,4,7.11h65.73A4.73,4.73,0,0,0,137,86.07ZM99,46.6a4.29,4.29,0,0,1,4.87,2.31,3.69,3.69,0,0,1,.33,2.07c-.16,2.06-.25,4.13-.33,6.27-.16,3.22-.41,6.53-.58,9.75-.08,1-.08,2-.16,3A3.13,3.13,0,0,1,100,73.11a3.16,3.16,0,0,1-3.14-3c-.25-5-.58-10.08-.82-15.12-.09-1.32-.17-2.72-.25-4A4.54,4.54,0,0,1,99,46.6ZM100,84.42a4.16,4.16,0,0,1-4.13-4.21A4.23,4.23,0,0,1,100.12,76a4.17,4.17,0,0,1,4.13,4.29A4.32,4.32,0,0,1,100,84.42Z"/><path class="cls-2" d="M99,46.6a4.29,4.29,0,0,1,4.87,2.31,3.69,3.69,0,0,1,.33,2.07c-.16,2.06-.25,4.13-.33,6.27-.16,3.22-.41,6.53-.58,9.75-.08,1-.08,2-.16,3A3.13,3.13,0,0,1,100,73.11a3.16,3.16,0,0,1-3.14-3c-.25-5-.58-10.08-.82-15.12-.09-1.32-.17-2.72-.25-4A4.54,4.54,0,0,1,99,46.6Z"/><path class="cls-2" d="M100,84.42a4.16,4.16,0,0,1-4.13-4.21A4.23,4.23,0,0,1,100.12,76a4.17,4.17,0,0,1,4.13,4.29A4.32,4.32,0,0,1,100,84.42Z"/></svg>