<?xml version="1.0" encoding="utf-8"?>
<!-- Generator: Adobe Illustrator 22.0.1, SVG Export Plug-In . SVG Version: 6.00 Build 0)  -->
<svg version="1.1" id="Capa_1" xmlns="http://www.w3.org/2000/svg" xmlns:xlink="http://www.w3.org/1999/xlink" x="0px" y="0px"
	 viewBox="0 0 200 120" style="enable-background:new 0 0 200 120;" xml:space="preserve">
<style type="text/css">
	.st0{fill:#FFFFFF;}
	.st1{fill:#BCE235;}
</style>
<title>alert</title>
<g>
	<path class="st0" d="M158.8,101.5l-52.3-90.6c-2.9-5-10.1-5-13,0l-52.3,90.6c-2.9,5,0.7,11.3,6.4,11.3h104.7
		C158.2,112.8,161.7,106.5,158.8,101.5 M98.4,38.7c3.2-0.8,6.3,0.8,7.8,3.7c0.5,1.1,0.7,2.2,0.5,3.3c-0.3,3.3-0.4,6.6-0.5,10
		c-0.3,5.1-0.7,10.4-0.9,15.5c-0.1,1.6-0.1,3.2-0.3,4.9c-0.1,2.8-2.2,4.9-5,4.9c-2.6,0-4.9-2.1-5-4.7c-0.4-8-0.9-16-1.3-24.1
		c-0.1-2.1-0.3-4.3-0.4-6.4C93.2,42.5,95.3,39.5,98.4,38.7 M100.1,98.9c-3.7,0-6.6-3-6.6-6.7c0-3.7,3-6.7,6.7-6.7
		c3.7,0,6.6,3,6.6,6.8C106.6,95.9,103.6,98.9,100.1,98.9"/>
	<path class="st1" d="M98.4,38.7c3.2-0.8,6.3,0.8,7.8,3.7c0.5,1.1,0.7,2.2,0.5,3.3c-0.3,3.3-0.4,6.6-0.5,10
		c-0.3,5.1-0.7,10.4-0.9,15.5c-0.1,1.6-0.1,3.2-0.3,4.9c-0.1,2.8-2.2,4.9-5,4.9c-2.6,0-4.9-2.1-5-4.7c-0.4-8-0.9-16-1.3-24.1
		c-0.1-2.1-0.3-4.3-0.4-6.4C93.2,42.5,95.3,39.5,98.4,38.7"/>
	<path class="st1" d="M100.1,98.9c-3.7,0-6.6-3-6.6-6.7c0-3.7,3-6.7,6.7-6.7c3.7,0,6.6,3,6.6,6.8C106.6,95.9,103.6,98.9,100.1,98.9"
		/>
</g>
</svg>
