<?xml version="1.0" encoding="utf-8"?>
<!-- Generator: Adobe Illustrator 22.0.1, SVG Export Plug-In . SVG Version: 6.00 Build 0)  -->
<svg version="1.1" id="Capa_1" xmlns="http://www.w3.org/2000/svg" xmlns:xlink="http://www.w3.org/1999/xlink" x="0px" y="0px"
	 viewBox="0 0 200 120" style="enable-background:new 0 0 200 120;" xml:space="preserve">
<g>
	<title>alert</title>
	<path d="M121.8,33.5h-3.9V10.8c0-4.2-3.4-7.6-7.6-7.6H87.6c-4.2,0-7.6,3.4-7.6,7.6v22.7H76c-6.6,0-12,5.4-12,12V97
		c0,6.7,5.5,12.2,12.2,12.2h0.1v3.8c0,2.1,1.7,3.8,3.8,3.8c2.1,0,3.8-1.7,3.8-3.8v-3.8h30.3v3.8c0,2.1,1.7,3.8,3.8,3.8
		c2.1,0,3.8-1.7,3.8-3.8v-3.8h0.1c6.7,0,12.2-5.5,12.2-12.2V45.7C134,39,128.5,33.5,121.8,33.5 M87.6,10.8h22.7v22.7H87.6V10.8z
		 M76,41.1h45.8c2.6,0,4.6,2.1,4.6,4.6v10.5H71.6V45.5C71.6,43.1,73.5,41.1,76,41.1 M121.8,101.6H76.2c-2.6,0-4.6-2.1-4.6-4.6V63.8
		h54.9V97C126.4,99.5,124.3,101.6,121.8,101.6"/>
</g>
</svg>
