<svg id="Capa_1" data-name="Capa 1" xmlns="http://www.w3.org/2000/svg" viewBox="0 0 59.99 60"><defs><style>.cls-1{fill:#fff;}</style></defs><title>bullseye</title><path d="M37.31,33.31a5.15,5.15,0,1,1-5.15,5.15,5.16,5.16,0,0,1,5.15-5.15" transform="translate(-11.57 -4.22)"/><path class="cls-1" d="M71.54,13.48a.25.25,0,0,0-.24-.16l-7.64.15L62.3,12.11l.15-7.63a.26.26,0,0,0-.15-.24.26.26,0,0,0-.29,0L54.5,11.8a.24.24,0,0,0-.07.18l-.13,6.21L35.67,36.82,39,40.1,57.58,21.47l6.21-.12a.25.25,0,0,0,.18-.08l7.51-7.51a.25.25,0,0,0,.06-.28" transform="translate(-11.57 -4.22)"/><path d="M55.2,28.23a20.6,20.6,0,1,1-7.65-7.65l3.74-3.75A25.75,25.75,0,0,0,19.1,56.67,25.75,25.75,0,0,0,58.94,24.48Z" transform="translate(-11.57 -4.22)"/><path d="M47.75,35.67A10.81,10.81,0,1,1,40.11,28l4-4a16,16,0,1,0-6.81,30.42A16,16,0,0,0,51.76,31.67Z" transform="translate(-11.57 -4.22)"/></svg>