<?xml version="1.0" encoding="utf-8"?>
<!-- Generator: Adobe Illustrator 22.0.1, SVG Export Plug-In . SVG Version: 6.00 Build 0)  -->
<svg version="1.1" id="Capa_1" xmlns="http://www.w3.org/2000/svg" xmlns:xlink="http://www.w3.org/1999/xlink" x="0px" y="0px"
	 viewBox="0 0 200 120" style="enable-background:new 0 0 200 120;" xml:space="preserve">
<title>alert</title>
<path d="M74.8,21.5c-6.9,0-12.6,5.7-12.6,12.6v50.5c0,6.9,5.7,12.6,12.6,12.6h50.5c6.9,0,12.6-5.7,12.6-12.6V34.1
	c0-6.9-5.7-12.6-12.6-12.6H74.8z M74.8,26.2h50.5c4.4,0,7.9,3.5,7.9,7.9v50.5c0,4.4-3.5,7.9-7.9,7.9H74.8c-4.4,0-7.9-3.5-7.9-7.9
	V34.1C66.9,29.7,70.4,26.2,74.8,26.2 M90.5,35c-0.1,0-0.1,0-0.2,0c-0.5,0-1,0.3-1.4,0.6l-7.6,7l-2.7-2.6c-0.9-0.9-2.4-0.9-3.3,0.1
	c-0.9,0.9-0.9,2.4,0.1,3.3l4.3,4.1c0.9,0.9,2.3,0.9,3.2,0l9.3-8.5c1-0.9,1.1-2.4,0.2-3.3C91.8,35.3,91.2,35,90.5,35 M99.1,39.2
	c-1.3,0-2.4,1-2.4,2.3c0,1.3,1,2.4,2.3,2.4c0,0,0.1,0,0.1,0h24c1.3,0,2.4-1,2.4-2.3c0-1.3-1-2.4-2.3-2.4c0,0-0.1,0-0.1,0H99.1z
	 M90.5,52.7c-0.6,0-1.2,0.2-1.7,0.6l-7.6,7l-2.7-2.6c-0.9-0.9-2.5-0.9-3.4,0.1c-0.9,1-0.9,2.5,0.1,3.4c0,0,0,0,0,0l4.3,4.1
	c0.9,0.9,2.3,0.9,3.2,0l9.3-8.5c1-0.9,1.1-2.4,0.2-3.3C91.8,53,91.2,52.7,90.5,52.7 M99.1,57c-1.3,0-2.4,1-2.4,2.3
	c0,1.3,1,2.4,2.3,2.4c0,0,0.1,0,0.1,0h24c1.3,0,2.4-1,2.4-2.3c0-1.3-1-2.4-2.3-2.4h-0.1H99.1z M90.5,70.4c-0.1,0-0.2,0-0.3,0
	c-0.5,0-1,0.3-1.4,0.6l-7.6,7l-2.7-2.6c-0.9-0.9-2.5-0.9-3.4,0.1c-0.9,0.9-0.9,2.5,0.1,3.4c0,0,0,0,0,0l4.3,4.1
	c0.9,0.8,2.3,0.9,3.2,0l9.3-8.5c1-0.9,1.1-2.4,0.2-3.3C91.8,70.7,91.2,70.4,90.5,70.4 M98.9,74.7c-1.3,0.1-2.3,1.2-2.2,2.5
	c0.1,1.3,1.2,2.2,2.4,2.2h24c1.3,0,2.4-1,2.4-2.3c0-1.3-1-2.4-2.3-2.4c0,0-0.1,0-0.1,0h-24C99,74.7,99,74.7,98.9,74.7"/>
</svg>
