<?xml version="1.0" encoding="utf-8"?>
<!-- Generator: Adobe Illustrator 22.0.1, SVG Export Plug-In . SVG Version: 6.00 Build 0)  -->
<svg version="1.1" id="Capa_1" xmlns="http://www.w3.org/2000/svg" xmlns:xlink="http://www.w3.org/1999/xlink" x="0px" y="0px"
	 viewBox="0 0 200 120" style="enable-background:new 0 0 200 120;" xml:space="preserve">
<title>alert</title>
<path d="M64.4,6c-9.8,0-17.8,8-17.8,17.8v71.1c0,9.8,8,17.8,17.8,17.8h71.1c9.8,0,17.8-8,17.8-17.8V23.8c0-9.8-8-17.8-17.8-17.8
	H64.4z M64.4,12.7h71.1c6.2,0,11.1,4.9,11.1,11.1v71.1c0,6.2-4.9,11.1-11.1,11.1H64.4c-6.2,0-11.1-4.9-11.1-11.1V23.8
	C53.3,17.6,58.2,12.7,64.4,12.7 M86.6,25.1c-0.1,0-0.2,0-0.3,0c-0.8,0.1-1.5,0.4-2,0.9l-10.8,9.8l-3.8-3.6c-1.3-1.3-3.4-1.2-4.7,0.1
	c-1.3,1.3-1.2,3.4,0.1,4.7l6.1,5.8c1.3,1.2,3.2,1.2,4.5,0.1l13-11.9c1.4-1.2,1.5-3.3,0.3-4.7C88.4,25.5,87.5,25.1,86.6,25.1
	 M98.8,31c-1.8,0-3.4,1.4-3.4,3.3c0,1.8,1.4,3.4,3.3,3.4c0,0,0.1,0,0.1,0h33.8c1.8,0,3.4-1.4,3.4-3.3c0-1.8-1.4-3.4-3.3-3.4
	c0,0-0.1,0-0.1,0H98.8z M86.6,50c-0.9,0-1.7,0.3-2.3,0.9l-10.8,9.8l-3.8-3.6c-1.3-1.3-3.5-1.2-4.7,0.1c-1.3,1.3-1.2,3.5,0.1,4.7
	c0,0,0,0,0,0l6.1,5.8c1.3,1.2,3.2,1.2,4.5,0l13-11.9c1.4-1.2,1.5-3.3,0.3-4.7C88.5,50.4,87.6,50,86.6,50 M98.8,56
	c-1.8,0-3.4,1.4-3.4,3.3c0,1.8,1.4,3.4,3.3,3.4c0,0,0.1,0,0.1,0h33.8c1.8,0,3.4-1.4,3.4-3.3c0-1.8-1.4-3.4-3.3-3.4h-0.1H98.8z
	 M86.7,74.9c-0.1,0-0.2,0-0.4,0c-0.8,0.1-1.5,0.4-2,0.9l-10.8,9.8l-3.8-3.6c-1.3-1.3-3.5-1.2-4.7,0.1c-1.3,1.3-1.2,3.5,0.1,4.7
	c0,0,0,0,0,0l6.1,5.8c1.3,1.2,3.2,1.2,4.5,0l13-11.9c1.4-1.2,1.5-3.3,0.3-4.7C88.5,75.4,87.6,75,86.7,74.9 M98.4,80.9
	c-1.8,0.1-3.2,1.7-3.1,3.6c0.1,1.8,1.6,3.1,3.4,3.1h33.8c1.8,0,3.4-1.4,3.4-3.3c0-1.8-1.4-3.4-3.3-3.4c0,0-0.1,0-0.1,0H98.8
	C98.7,80.9,98.5,80.9,98.4,80.9"/>
</svg>
