<svg xmlns="http://www.w3.org/2000/svg" viewBox="0 0 228.28 249.46"><defs><style>.cls-1{fill:#ade500;}.cls-2{fill:#2d202b;}.cls-3{fill:#fff;}</style></defs><title>couse-contact</title><g id="Capa_2" data-name="Capa 2"><g id="Layer_1" data-name="Layer 1"><path class="cls-1" d="M114.4,0a59.79,59.79,0,1,0,59.79,59.76A59.77,59.77,0,0,0,114.4,0Zm4.26,93a7,7,0,0,1-4.82,1.86,7.28,7.28,0,0,1-4.93-1.83,6.42,6.42,0,0,1-2.11-5.13,6.6,6.6,0,0,1,2-4.91,6.88,6.88,0,0,1,5-2,6.8,6.8,0,0,1,6.91,6.9A6.43,6.43,0,0,1,118.66,93ZM136,50.1a21.18,21.18,0,0,1-3.8,5.12q-2.2,2.16-7.91,7.25A31.16,31.16,0,0,0,121.75,65a10.27,10.27,0,0,0-1.42,2,10,10,0,0,0-.72,1.81c-.16.6-.42,1.66-.76,3.18q-.88,4.81-5.52,4.82a5.69,5.69,0,0,1-4.06-1.58,6.21,6.21,0,0,1-1.64-4.68A16.53,16.53,0,0,1,112,58.79a72.71,72.71,0,0,1,5.38-5.12q3-2.6,4.29-3.92a13.22,13.22,0,0,0,2.22-2.94,7.09,7.09,0,0,0,.91-3.53A8.18,8.18,0,0,0,122.07,37,10.07,10.07,0,0,0,115,34.48q-5.1,0-7.51,2.57a20.75,20.75,0,0,0-4.08,7.58q-1.58,5.23-6,5.24A5.88,5.88,0,0,1,93,48a5.59,5.59,0,0,1-1.78-4,16.72,16.72,0,0,1,2.83-8.92,21.75,21.75,0,0,1,8.25-7.49,26,26,0,0,1,12.65-3,26.94,26.94,0,0,1,11.87,2.48,19.24,19.24,0,0,1,8,6.74,16.57,16.57,0,0,1,2.8,9.27A14.19,14.19,0,0,1,136,50.1Z"/><rect class="cls-2" x="25.24" y="202.27" width="178.32" height="47.19"/><path class="cls-3" d="M46.91,227.29a5.28,5.28,0,0,1,5.39-5.5,4.77,4.77,0,0,1,3.88,1.88l-.76.49a3.89,3.89,0,0,0-3.12-1.54,4.68,4.68,0,0,0,0,9.35,3.87,3.87,0,0,0,3.12-1.55l.78.48a4.84,4.84,0,0,1-3.9,1.9A5.29,5.29,0,0,1,46.91,227.29Z"/><path class="cls-3" d="M59.51,227.29c0-3.11,2-5.5,5.17-5.5s5.17,2.39,5.17,5.5-2.06,5.51-5.17,5.51S59.51,230.41,59.51,227.29Zm9.38,0c0-2.69-1.66-4.67-4.21-4.67s-4.21,2-4.21,4.67S62.11,232,64.68,232,68.89,230,68.89,227.29Z"/><path class="cls-3" d="M81.61,232.61l-6.71-9.15v9.15H74V222h.93l6.67,9v-9h.91v10.65Z"/><path class="cls-3" d="M89.75,232.61v-9.82H86.27V222h7.89v.83H90.68v9.82Z"/><path class="cls-3" d="M105.64,232.61,104.58,230H99l-1,2.62H96.84L101.2,222h1.13l4.36,10.65Zm-3.87-9.67-2.52,6.22h5Z"/><path class="cls-3" d="M109.74,227.29a5.29,5.29,0,0,1,5.4-5.5,4.8,4.8,0,0,1,3.88,1.88l-.77.49a3.87,3.87,0,0,0-3.11-1.54,4.68,4.68,0,0,0,0,9.35,3.85,3.85,0,0,0,3.11-1.55l.78.48a4.82,4.82,0,0,1-3.89,1.9A5.29,5.29,0,0,1,109.74,227.29Z"/><path class="cls-3" d="M125.46,232.61v-9.82H122V222h7.88v.83h-3.48v9.82Z"/><path class="cls-3" d="M141.34,232.61,140.29,230h-5.64l-1.05,2.62h-1L136.9,222H138l4.36,10.65Zm-3.86-9.67L135,229.16h5Z"/><path class="cls-3" d="M153.46,232.61l-6.7-9.15v9.15h-.91V222h.92l6.68,9v-9h.91v10.65Z"/><path class="cls-3" d="M158.5,227.29c0-3.11,2-5.5,5.17-5.5s5.17,2.39,5.17,5.5-2.06,5.51-5.17,5.51S158.5,230.41,158.5,227.29Zm9.38,0c0-2.69-1.66-4.67-4.21-4.67s-4.22,2-4.22,4.67,1.65,4.68,4.22,4.68S167.88,230,167.88,227.29Z"/><path class="cls-3" d="M172.39,231.11l.59-.69a4.41,4.41,0,0,0,3.33,1.55c2.18,0,2.8-1.21,2.8-2.12,0-3.13-6.39-1.5-6.39-5.22,0-1.74,1.57-2.84,3.5-2.84a4.59,4.59,0,0,1,3.61,1.5l-.61.67a3.8,3.8,0,0,0-3.05-1.34c-1.42,0-2.49.81-2.49,2,0,2.73,6.39,1.23,6.39,5.2,0,1.37-.91,3-3.79,3A5,5,0,0,1,172.39,231.11Z"/><path class="cls-2" d="M7.75,162.49c0,3.14-3.92,3.51-3.92,5.35,0,.83.64,1.52,2.11,1.52a4.16,4.16,0,0,0,3.27-1.65l2.16,2.42a7.51,7.51,0,0,1-5.83,2.58C2.1,172.71,0,171,0,168.51c0-3.89,4.45-4.18,4.45-6.42A1.54,1.54,0,0,0,3.94,161l2.93-.85A3.46,3.46,0,0,1,7.75,162.49Zm0-6a2.16,2.16,0,1,1-2.16-2.16A2.18,2.18,0,0,1,7.75,156.53Z"/><path class="cls-2" d="M24.6,167.52l-8.47-11.58v11.58H12.35V149.76h3.89l8.22,11.16V149.76h3.78v17.76Z"/><path class="cls-2" d="M31.38,161.08A6.56,6.56,0,0,1,38,154.34c3.86,0,6.45,2.88,6.45,7.06v.8H34.92a3.45,3.45,0,0,0,3.7,2.87A5.39,5.39,0,0,0,42,163.82l1.51,2.24a8,8,0,0,1-5.29,1.78A6.51,6.51,0,0,1,31.38,161.08Zm6.65-4a3,3,0,0,0-3.14,2.74h6.34A3,3,0,0,0,38,157.11Z"/><path class="cls-2" d="M46.63,161.08a6.54,6.54,0,0,1,6.81-6.74,6,6,0,0,1,5.09,2.32l-2.21,2.08a3.11,3.11,0,0,0-2.72-1.39,3.75,3.75,0,0,0,0,7.48,3.19,3.19,0,0,0,2.72-1.41l2.21,2.08a6,6,0,0,1-5.09,2.34A6.54,6.54,0,0,1,46.63,161.08Z"/><path class="cls-2" d="M60.44,161.08a6.56,6.56,0,0,1,6.66-6.74c3.86,0,6.44,2.88,6.44,7.06v.8H64a3.45,3.45,0,0,0,3.7,2.87,5.39,5.39,0,0,0,3.41-1.25l1.52,2.24a8,8,0,0,1-5.3,1.78A6.52,6.52,0,0,1,60.44,161.08Zm6.66-4A3,3,0,0,0,64,159.85h6.33A2.94,2.94,0,0,0,67.1,157.11Z"/><path class="cls-2" d="M75.4,165.84l1.46-2.45a7.27,7.27,0,0,0,4.45,1.79c1.46,0,2.16-.56,2.16-1.36,0-2.1-7.62-.37-7.62-5.43,0-2.16,1.87-4,5.27-4a8.22,8.22,0,0,1,5.17,1.76l-1.36,2.4A5.54,5.54,0,0,0,81.12,157c-1.22,0-2,.53-2,1.25,0,1.89,7.64.29,7.64,5.48,0,2.37-2,4.1-5.59,4.1A8.66,8.66,0,0,1,75.4,165.84Z"/><path class="cls-2" d="M89.43,151.26a2,2,0,0,1,4,0,2,2,0,1,1-4,0Zm.32,16.26V154.66h3.38v12.86Z"/><path class="cls-2" d="M97.7,164.3v-6.68H95.57v-3H97.7v-3.51h3.38v3.51h2.61v3h-2.61v5.77c0,.83.43,1.44,1.17,1.44a1.65,1.65,0,0,0,1.17-.4l.72,2.58a4.12,4.12,0,0,1-2.82.83C99,167.84,97.7,166.62,97.7,164.3Z"/><path class="cls-2" d="M114.26,167.52v-1.36a5.24,5.24,0,0,1-4.08,1.68,4.26,4.26,0,0,1-4.44-4.26c0-3,2.4-4.15,4.44-4.15a5.27,5.27,0,0,1,4.08,1.57v-1.63c0-1.3-1.12-2.15-2.82-2.15a5.37,5.37,0,0,0-3.7,1.52l-1.34-2.37a8.29,8.29,0,0,1,5.62-2c3,0,5.65,1.17,5.65,4.87v8.31Zm0-3.09v-1.59a3.4,3.4,0,0,0-2.72-1.15c-1.33,0-2.42.72-2.42,1.94s1.09,1.92,2.42,1.92A3.38,3.38,0,0,0,114.26,164.43Zm-1.92-11.71H110l3.57-3.83h3.11Z"/><path class="cls-2" d="M120.4,165.84l1.47-2.45a7.27,7.27,0,0,0,4.44,1.79c1.47,0,2.16-.56,2.16-1.36,0-2.1-7.61-.37-7.61-5.43,0-2.16,1.86-4,5.27-4a8.21,8.21,0,0,1,5.16,1.76l-1.36,2.4a5.52,5.52,0,0,0-3.8-1.49c-1.23,0-2,.53-2,1.25,0,1.89,7.64.29,7.64,5.48,0,2.37-2,4.1-5.59,4.1A8.68,8.68,0,0,1,120.4,165.84Z"/><path class="cls-2" d="M149.84,167.52v-1.36a5.22,5.22,0,0,1-4.07,1.68,4.26,4.26,0,0,1-4.45-4.26c0-3,2.4-4.15,4.45-4.15a5.25,5.25,0,0,1,4.07,1.57v-1.63c0-1.3-1.12-2.15-2.82-2.15a5.39,5.39,0,0,0-3.7,1.52L142,156.37a8.26,8.26,0,0,1,5.62-2c2.95,0,5.64,1.17,5.64,4.87v8.31Zm0-3.09v-1.59a3.38,3.38,0,0,0-2.71-1.15c-1.33,0-2.43.72-2.43,1.94s1.1,1.92,2.43,1.92A3.36,3.36,0,0,0,149.84,164.43Z"/><path class="cls-2" d="M157.16,169.52a2.94,2.94,0,0,0,1.06.21,1.72,1.72,0,0,0,1.79-.93l.48-1.12-5.22-13h3.62l3.35,9,3.38-9h3.62l-6,15c-1,2.43-2.66,3.06-4.87,3.12a6.87,6.87,0,0,1-1.65-.22Z"/><path class="cls-2" d="M180,167.52V165.9a6.15,6.15,0,0,1-4.53,1.94c-2.82,0-4.15-1.54-4.15-4.05v-9.13h3.38v7.8a2.06,2.06,0,0,0,2.37,2.37,3.8,3.8,0,0,0,2.93-1.46v-8.71h3.38v12.86Z"/><path class="cls-2" d="M196.07,167.52v-1.65a4.94,4.94,0,0,1-4,2c-3.22,0-5.69-2.45-5.69-6.76s2.42-6.74,5.69-6.74a4.88,4.88,0,0,1,4,2v-6.55h3.41v17.76Zm0-4.15v-4.55a3.64,3.64,0,0,0-2.9-1.47c-1.94,0-3.27,1.52-3.27,3.73s1.33,3.75,3.27,3.75A3.66,3.66,0,0,0,196.07,163.37Z"/><path class="cls-2" d="M211.08,167.52v-1.36a5.22,5.22,0,0,1-4.07,1.68,4.26,4.26,0,0,1-4.45-4.26c0-3,2.4-4.15,4.45-4.15a5.25,5.25,0,0,1,4.07,1.57v-1.63c0-1.3-1.12-2.15-2.82-2.15a5.37,5.37,0,0,0-3.7,1.52l-1.33-2.37a8.25,8.25,0,0,1,5.61-2c3,0,5.65,1.17,5.65,4.87v8.31Zm0-3.09v-1.59a3.38,3.38,0,0,0-2.71-1.15c-1.34,0-2.43.72-2.43,1.94s1.09,1.92,2.43,1.92A3.36,3.36,0,0,0,211.08,164.43Z"/><path class="cls-2" d="M220.53,159.72c0-3.14,3.91-3.51,3.91-5.35,0-.83-.64-1.52-2.1-1.52a4.16,4.16,0,0,0-3.27,1.65l-2.16-2.42a7.51,7.51,0,0,1,5.83-2.58c3.43,0,5.54,1.73,5.54,4.2,0,3.89-4.45,4.18-4.45,6.42a1.5,1.5,0,0,0,.51,1.12l-2.93.85A3.46,3.46,0,0,1,220.53,159.72Zm0,5.94a2.16,2.16,0,1,1,2.16,2.15A2.18,2.18,0,0,1,220.53,165.66Z"/></g></g></svg>