<?xml version="1.0" encoding="utf-8"?>
<!-- Generator: Adobe Illustrator 24.2.3, SVG Export Plug-In . SVG Version: 6.00 Build 0)  -->
<svg version="1.1" id="Capa_1" xmlns="http://www.w3.org/2000/svg" xmlns:xlink="http://www.w3.org/1999/xlink" x="0px" y="0px"
	 viewBox="0 0 155.3 90.4" style="enable-background:new 0 0 155.3 90.4;" xml:space="preserve">
<g id="Capa_2_1_">
	<g id="Layer_1">
		<path d="M56.8,54.9c0.2,1,0.8,1.8,1.8,2.2v-4.9c-4.3-1.3-3.9-6,0-7v-1.3c0-0.4,0.4-0.6,0.7-0.6c0.3,0,0.5,0.3,0.6,0.6v1
			c0.4,0,0.8,0,1.3,0v-1c0-0.4,0.3-0.6,0.6-0.6c0.4,0,0.6,0.3,0.6,0.6v1.3c1.6,0.4,2.9,1.7,3.1,3.4c0.1,1-1.6,1-1.8,0
			c-0.2-0.7-0.6-1.3-1.3-1.6v4.4c5.1,1.5,4.5,6.7,0,7.8v1.1c0,0.4-0.3,0.6-0.6,0.6c-0.4,0-0.6-0.3-0.6-0.6v-0.9c-0.4,0-0.8,0-1.3,0
			v1c0,0.7-1.3,0.8-1.3,0v-1.2c-1.9-0.4-3.4-2-3.5-4C54.9,54.1,56.6,54.1,56.8,54.9L56.8,54.9z M57.7,25.6h45.3
			c2.6,0,4.7,2.1,4.7,4.8v27.3c0,2.6-2.1,4.8-4.8,4.8h-35c-5.7,4.1-13.7,2.8-17.9-2.9s-2.8-13.7,2.9-17.9l0,0V30.4
			C52.9,27.8,55,25.6,57.7,25.6z M70.4,60h32.5c1.3,0,2.4-1.1,2.4-2.3v-17h-39c2.1,1.1,3.8,2.7,5,4.7h9.9v1.7h-9
			c0.2,0.5,0.4,1.1,0.6,1.7h5.1v1.8h-4.7c0.1,0.5,0.1,1,0.1,1.5c0,1.5-0.2,3-0.8,4.4h18.9v1.7H71.7C71.3,58.8,70.9,59.4,70.4,60z
			 M60.5,41.6c-5.7,0-10.4,4.7-10.4,10.4s4.7,10.4,10.4,10.4c5.7,0,10.4-4.7,10.4-10.4c0,0,0,0,0,0C70.8,46.3,66.2,41.6,60.5,41.6z
			 M59.8,46.6v4.1c0.4,0.1,0.8,0.2,1.3,0.3v-4.4C60.7,46.5,60.2,46.5,59.8,46.6L59.8,46.6z M59.8,52.6v5c0.4,0.1,0.8,0.1,1.3,0.1
			v-4.8L59.8,52.6z M58.5,50.3v-3.5C57.6,47,57,48,57.3,48.9C57.4,49.6,57.9,50.1,58.5,50.3L58.5,50.3z M62.4,53.3v4.1
			c2.4-0.9,2.5-3.4,0-4.3L62.4,53.3z M96.1,45.1c0.7,0,1.4,0.1,1.9,0.5c0.6-0.4,1.2-0.6,1.9-0.6c1.9,0,3.4,1.5,3.4,3.4
			s-1.5,3.4-3.4,3.4c0,0,0,0,0,0c-0.7,0-1.4-0.2-1.9-0.6c-1.5,1.1-3.6,0.7-4.7-0.8s-0.7-3.6,0.8-4.7c0.6-0.4,1.2-0.6,1.9-0.6
			L96.1,45.1z M55.3,32.7h50v-2.3c0-1.3-1.1-2.4-2.4-2.4H57.7c-1.3,0-2.4,1.1-2.4,2.4L55.3,32.7L55.3,32.7z"/>
	</g>
</g>
</svg>
