<svg xmlns="http://www.w3.org/2000/svg" viewBox="0 0 155.28 90.45"><defs><style>.cls-1{font-size:13.09px;fill:#fff;font-family:ProximaNova-Bold, Proxima Nova;font-weight:700;}.cls-2{letter-spacing:-0.06em;}.cls-3{letter-spacing:-0.02em;}</style></defs><title>credit</title><g id="Capa_2" data-name="Capa 2"><g id="Layer_1" data-name="Layer 1"><rect y="53.25" width="155.28" height="37.2" rx="18.6" ry="18.6"/><text class="cls-1" transform="matrix(1, 0.01, -0.01, 1, 49.35, 68.92)"><tspan class="cls-2">T</tspan><tspan x="6.78" y="0">ARJE</tspan><tspan class="cls-2" x="38.13" y="0">T</tspan><tspan x="44.91" y="0">A </tspan><tspan x="-9.24" y="13.08">DE CRÉDI</tspan><tspan class="cls-3" x="49.15" y="13.08">T</tspan><tspan x="56.45" y="13.08">O</tspan></text><path d="M57.12,29.29a2.9,2.9,0,0,0,1.75,2.15V26.5c-4.26-1.35-3.94-6,0-7V18.25a.65.65,0,0,1,1.29,0v1a8.84,8.84,0,0,1,1.26,0v-1a.64.64,0,0,1,1.28,0v1.27a4,4,0,0,1,3.12,3.35c.14,1-1.56,1-1.83,0a2.46,2.46,0,0,0-1.29-1.61v4.36c5.12,1.47,4.55,6.73,0,7.75v1.09a.64.64,0,0,1-1.28,0v-.92a10.45,10.45,0,0,1-1.26-.05v1c0,.74-1.26.83-1.29,0V33.26a4.53,4.53,0,0,1-3.54-4c-.09-.84,1.59-.82,1.79,0ZM58,0h45.26A4.77,4.77,0,0,1,108,4.75V32a4.77,4.77,0,0,1-4.76,4.76h-35A12.78,12.78,0,0,1,53.26,16V4.75A4.76,4.76,0,0,1,58,0ZM70.75,34.35h32.52A2.38,2.38,0,0,0,105.64,32V15h-39a12.85,12.85,0,0,1,5,4.69h9.92v1.74h-9a12.78,12.78,0,0,1,.57,1.68h5.07v1.75H73.49a12.4,12.4,0,0,1,.08,1.49,12.19,12.19,0,0,1-.78,4.41H91.74v1.74H72A13.14,13.14,0,0,1,70.75,34.35ZM60.8,16A10.39,10.39,0,1,0,71.19,26.34,10.39,10.39,0,0,0,60.8,16Zm-.64,4.94V25c.41.11.84.2,1.26.3V20.9a7.58,7.58,0,0,0-1.26,0Zm0,6v5a5.89,5.89,0,0,0,1.26.06V27.17Zm-1.29-2.28V21.17A1.76,1.76,0,0,0,58.87,24.58Zm3.83,3v4.13C65.12,30.9,65.2,28.36,62.7,27.54Zm33.76-8.17A3.38,3.38,0,0,1,98.4,20a3.33,3.33,0,0,1,1.93-.61,3.37,3.37,0,1,1,0,6.74,3.33,3.33,0,0,1-1.93-.61,3.37,3.37,0,1,1-1.94-6.13ZM55.64,7.05h50V4.75a2.38,2.38,0,0,0-2.37-2.37H58a2.38,2.38,0,0,0-2.37,2.37v2.3Z"/></g></g></svg>