<?xml version="1.0" encoding="utf-8"?>
<!-- Generator: Adobe Illustrator 22.0.1, SVG Export Plug-In . SVG Version: 6.00 Build 0)  -->
<svg version="1.1" id="Capa_1" xmlns="http://www.w3.org/2000/svg" xmlns:xlink="http://www.w3.org/1999/xlink" x="0px" y="0px"
	 viewBox="0 0 60 60" style="enable-background:new 0 0 60 60;" xml:space="preserve">
<style type="text/css">
	.st0{fill:#FFFFFF;}
	.st1{fill:#ACE400;}
</style>
<title>bullseye</title>
<g>
	<path class="st0" d="M46.4,18.5c0-1.2-1.1-2.1-2.2-1.8l-8.4,1.5c-1.9,0.3-3.8,0.5-5.7,0.5l0,0c-1.9,0-3.8-0.2-5.7-0.5L16,16.7
		c-0.9-0.2-1.9,0.3-2.2,1.2c-0.4,1.1,0.3,2.3,1.4,2.5l10,1.9l0.1,5.1c0.1,3.3-0.3,6.6-1.1,9.9l-2.5,10c-0.3,1,0.2,2.2,1.2,2.6
		c1.3,0.5,2.6-0.2,2.9-1.4l3.7-14.6c0.1-0.5,0.9-0.5,1,0l3.7,14.6c0.2,1,1.1,1.6,2.1,1.6c0.3,0,0.6-0.1,1-0.2
		c0.9-0.5,1.3-1.5,1.1-2.5l-2.5-10.1c-0.8-3.2-1.1-6.5-1.1-9.9l0.1-5.1l10-1.8C45.6,20.2,46.4,19.4,46.4,18.5z"/>
	<circle class="st0" cx="30" cy="13.3" r="4.2"/>
	<path class="st1" d="M30,2.8C15,2.8,2.8,15,2.8,30S15,57.2,30,57.2S57.2,45,57.2,30S45,2.8,30,2.8z M30,53.9
		C16.8,53.9,6.1,43.2,6.1,30S16.8,6.1,30,6.1S53.9,16.8,53.9,30S43.2,53.9,30,53.9z"/>
</g>
</svg>
