<svg xmlns="http://www.w3.org/2000/svg" viewBox="0 0 396 108.2"><defs><style>.cls-1{fill:#fff;}</style></defs><title>dll-text</title><g id="Capa_2" data-name="Capa 2"><g id="Layer_1" data-name="Layer 1"><path class="cls-1" d="M0,1H10.13C19.4,1,21.91,5.69,21.91,12.64V56.85c0,6.95-2.32,11.68-11.58,11.68H0ZM4.63,64.09h5.5c5.7,0,7.15-2.8,7.15-7.24V12.64c0-4.44-1.55-7.23-7.24-7.23H4.63Z"/><path class="cls-1" d="M34,1h4.64V68.53H34Z"/><path class="cls-1" d="M55.79,64.09H69.68v4.44H51.15V1H69.68V5.41H55.79V32.33h12v4.25h-12Z"/><path class="cls-1" d="M96.71,36.58H90.43V32.33h10.91V57.81c0,7-2.41,11.68-10.91,11.68s-10.9-4.73-10.9-11.68V11.68C79.53,4.73,81.94,0,90.43,0c8.3,0,10.81,4.73,10.81,11.68V19.3H96.71V11.68c0-4.34-1.64-7.53-6.28-7.53-4.92,0-6.27,3.09-6.27,7.53V57.81c0,4.35,1.45,7.53,6.27,7.53s6.28-3,6.28-7.53Z"/><path class="cls-1" d="M133.77,11.77v46c0,6.94-2.41,11.77-10.91,11.77S112,64.66,112,57.72V11.77C112,4.83,114.37,0,122.86,0S133.77,4.83,133.77,11.77Zm-4.63,46V11.77c0-4.43-1.35-7.62-6.28-7.62s-6.27,3.19-6.27,7.62v46c0,4.44,1.35,7.62,6.27,7.62S129.14,62.16,129.14,57.72Z"/><path class="cls-1" d="M162.72,1h4.64V64.09h11.29v4.44H162.72Z"/><path class="cls-1" d="M208.86,68.53H204l-2.12-16.22h-11.1l-2.12,16.22H184L193.61,1h5.6ZM191.29,48.06h10.14l-5-39.66Z"/><path class="cls-1" d="M235.4,1H240V64.09h11.29v4.44H235.4Z"/><path class="cls-1" d="M279.89,11.77v46c0,6.94-2.41,11.77-10.9,11.77s-10.91-4.83-10.91-11.77V11.77C258.08,4.83,260.49,0,269,0S279.89,4.83,279.89,11.77Zm-4.63,46V11.77c0-4.43-1.35-7.62-6.27-7.62s-6.28,3.19-6.28,7.62v46c0,4.44,1.35,7.62,6.28,7.62S275.26,62.16,275.26,57.72Z"/><path class="cls-1" d="M308.17,36.58H301.9V32.33h10.9V57.81c0,7-2.41,11.68-10.9,11.68S291,64.76,291,57.81V11.68C291,4.73,293.41,0,301.9,0c8.3,0,10.81,4.73,10.81,11.68V19.3h-4.54V11.68c0-4.34-1.64-7.53-6.27-7.53-4.92,0-6.27,3.09-6.27,7.53V57.81c0,4.35,1.44,7.53,6.27,7.53s6.27-3,6.27-7.53Z"/><path class="cls-1" d="M341.08,36.58h-6.27V32.33h10.91V57.81c0,7-2.42,11.68-10.91,11.68S323.9,64.76,323.9,57.81V11.68C323.9,4.73,326.32,0,334.81,0c8.3,0,10.81,4.73,10.81,11.68V19.3h-4.54V11.68c0-4.34-1.64-7.53-6.27-7.53-4.92,0-6.27,3.09-6.27,7.53V57.81c0,4.35,1.44,7.53,6.27,7.53s6.27-3,6.27-7.53Z"/><path class="cls-1" d="M357.3,1h4.63V68.53H357.3Z"/><path class="cls-1" d="M396,68.53h-4.83l-2.12-16.22H378l-2.12,16.22H371.1L380.75,1h5.6ZM378.43,48.06h10.14l-5-39.66Z"/><path class="cls-1" d="M74.86,94v4.68H80v1.77H74.86v6.83H72.93V92.08h8.13V94Z"/><path class="cls-1" d="M93.22,107.34a7.46,7.46,0,0,1-3-.62,7.63,7.63,0,0,1-4-4.09,7.45,7.45,0,0,1-.58-2.94,7.84,7.84,0,0,1,.58-3,7.57,7.57,0,0,1,1.61-2.44,7.42,7.42,0,0,1,2.43-1.61,7.79,7.79,0,0,1,3-.59,7.54,7.54,0,0,1,3,.59,7.86,7.86,0,0,1,2.43,1.61,7.64,7.64,0,0,1,2.29,5.48,7.14,7.14,0,0,1-.62,2.94,7.63,7.63,0,0,1-1.67,2.43,8.19,8.19,0,0,1-2.43,1.66A7.23,7.23,0,0,1,93.22,107.34Zm0-13.4a5.89,5.89,0,0,0-2.27.44,5.66,5.66,0,0,0-1.82,1.2,5.55,5.55,0,0,0-1.2,1.82,5.91,5.91,0,0,0-.43,2.29,5.66,5.66,0,0,0,.43,2.19,5.72,5.72,0,0,0,1.2,1.81A5.79,5.79,0,0,0,91,104.94a5.56,5.56,0,0,0,2.27.47,5.36,5.36,0,0,0,2.19-.47,5.91,5.91,0,0,0,1.82-1.25,6,6,0,0,0,1.24-1.81,5.2,5.2,0,0,0,.47-2.19,5.43,5.43,0,0,0-.47-2.29,5.84,5.84,0,0,0-1.25-1.82,5.93,5.93,0,0,0-1.83-1.2A5.61,5.61,0,0,0,93.22,93.94Z"/><path class="cls-1" d="M112.4,107.34a7.51,7.51,0,0,1-3-.62,7.66,7.66,0,0,1-4-4.09,7.45,7.45,0,0,1-.58-2.94,7.84,7.84,0,0,1,.58-3,7.57,7.57,0,0,1,1.61-2.44,7.38,7.38,0,0,1,2.42-1.61,7.84,7.84,0,0,1,3-.59,7.54,7.54,0,0,1,2.95.59,7.86,7.86,0,0,1,2.43,1.61,7.73,7.73,0,0,1,1.67,2.44,7.51,7.51,0,0,1,.62,3,7.14,7.14,0,0,1-.62,2.94,7.8,7.8,0,0,1-1.67,2.43,8.19,8.19,0,0,1-2.43,1.66A7.23,7.23,0,0,1,112.4,107.34Zm0-13.4a5.89,5.89,0,0,0-2.27.44,5.66,5.66,0,0,0-1.82,1.2,5.55,5.55,0,0,0-1.2,1.82,5.91,5.91,0,0,0-.43,2.29,5.66,5.66,0,0,0,.43,2.19,5.72,5.72,0,0,0,1.2,1.81,5.79,5.79,0,0,0,1.82,1.25,5.56,5.56,0,0,0,2.27.47,5.36,5.36,0,0,0,2.19-.47,5.91,5.91,0,0,0,1.82-1.25,6,6,0,0,0,1.24-1.81,5.36,5.36,0,0,0,.47-2.19,5.58,5.58,0,0,0-.47-2.29,5.84,5.84,0,0,0-1.25-1.82,5.93,5.93,0,0,0-1.83-1.2A5.61,5.61,0,0,0,112.4,93.94Z"/><path class="cls-1" d="M133.22,92.1v1.8h-3.87v13.37h-1.8V93.9h-3.86V92.1Z"/><path class="cls-1" d="M141.37,92.12a3.66,3.66,0,0,1,1.64.36,4.22,4.22,0,0,1,1.23.92,4.1,4.1,0,0,1,.78,1.25A3.44,3.44,0,0,1,145.3,96a3.12,3.12,0,0,1-.22,1.19,4.33,4.33,0,0,1-.48.89,4.28,4.28,0,0,1-.69.78,4.58,4.58,0,0,1,.54.33,3.91,3.91,0,0,1,.81.75,4.64,4.64,0,0,1,.75,1.2,4,4,0,0,1,.33,1.67,4.43,4.43,0,0,1-.4,1.91,4.26,4.26,0,0,1-1.05,1.4,4.44,4.44,0,0,1-1.43.86,4.58,4.58,0,0,1-1.57.29h-4.55V92.12ZM139.23,94v4.22h2.27a1.66,1.66,0,0,0,.6-.14,2.43,2.43,0,0,0,.65-.41,2.32,2.32,0,0,0,.52-.67,2,2,0,0,0,.21-.93,2,2,0,0,0-.16-.76,2.16,2.16,0,0,0-.42-.68,2,2,0,0,0-1.5-.63Zm2.66,11.42a2.26,2.26,0,0,0,1.05-.24,2.57,2.57,0,0,0,1.29-1.44,2.56,2.56,0,0,0,.18-.93,2.81,2.81,0,0,0-.22-1.07,3,3,0,0,0-.58-.89,3.08,3.08,0,0,0-.84-.6,2.14,2.14,0,0,0-.94-.23h-2.6v5.4Z"/><path class="cls-1" d="M164.39,107.25h-2.08l-1.32-3h-7l-1.3,3h-2.06c.26-.61.53-1.22.8-1.84s.53-1.24.78-1.85l2.66-6.2c.88-2.09,1.77-4.18,2.65-6.28Zm-4.18-4.88c-.47-1.11-.91-2.17-1.34-3.17s-.87-2.07-1.33-3.2c-.2.51-.41,1-.63,1.48s-.42,1-.63,1.45-.49,1.09-.74,1.68-.5,1.17-.73,1.76Z"/><path class="cls-1" d="M178.34,105.36v1.91h-9.16V92.1h1.9v13.26Z"/><path class="cls-1" d="M193.06,105.36v1.91h-9.17V92.1h1.91v13.26Z"/><path class="cls-1" d="M220.39,107.27H218L216,105q-2.43,2.34-4.66,2.34a4.2,4.2,0,0,1-1.56-.28,4,4,0,0,1-1.24-.77,3.85,3.85,0,0,1-.82-1.14,3.3,3.3,0,0,1-.3-1.41,3.37,3.37,0,0,1,.28-1.38,4.87,4.87,0,0,1,.76-1.22,7.36,7.36,0,0,1,1.1-1.05c.42-.32.85-.62,1.3-.9a7.46,7.46,0,0,1-1.11-1.83,4.37,4.37,0,0,1-.43-1.72,3.38,3.38,0,0,1,.32-1.48,3.51,3.51,0,0,1,.83-1.1,3.83,3.83,0,0,1,1.18-.71,4,4,0,0,1,1.38-.25,3.45,3.45,0,0,1,1.41.28,3.77,3.77,0,0,1,1.14.73,3.5,3.5,0,0,1,.77,1.11,3.4,3.4,0,0,1,.28,1.35,2.77,2.77,0,0,1-.26,1.17,5.19,5.19,0,0,1-.67,1.07,7.73,7.73,0,0,1-.94,1c-.34.29-.7.57-1.06.83l.55.65c.2.23.36.43.49.59l1.28,1.49a12.25,12.25,0,0,0,1-1.34c.21-.35.39-.69.55-1h0l.26-.52h2a16,16,0,0,1-1.17,2.3,18.12,18.12,0,0,1-1.38,2Zm-8-2a6.15,6.15,0,0,0,1-.6,9.76,9.76,0,0,0,1.32-1l-2.67-3-.28.2-.26.19c-.33.2-.64.4-.92.61a5.26,5.26,0,0,0-.74.62,2.69,2.69,0,0,0-.49.7,2,2,0,0,0-.17.84,1.72,1.72,0,0,0,.2.85,1.84,1.84,0,0,0,.51.56,1.92,1.92,0,0,0,.67.3,2.61,2.61,0,0,0,.66.09A2.69,2.69,0,0,0,212.43,105.32ZM213,94a2.26,2.26,0,0,0-.51.07,2.4,2.4,0,0,0-.63.26,1.64,1.64,0,0,0-.53.52,1.59,1.59,0,0,0-.22.86,4.5,4.5,0,0,0,1.3,2.62,10.36,10.36,0,0,0,1.72-1.39,2,2,0,0,0,.67-1.3,1.45,1.45,0,0,0-.2-.77,1.78,1.78,0,0,0-.47-.51,2,2,0,0,0-.6-.28A2,2,0,0,0,213,94Z"/><path class="cls-1" d="M235.88,94v4.68H241v1.77h-5.14v6.83H234V92.08h8.13V94Z"/><path class="cls-1" d="M249.25,92.1v15.17h-1.93V92.1Z"/><path class="cls-1" d="M263.25,92.1v1.8h-3.88v13.37h-1.79V93.9h-3.86V92.1Z"/><path class="cls-1" d="M279.38,108.2l-9.67-12v11.07h-1.78V91.08L277.62,103V92.1h1.76Z"/><path class="cls-1" d="M286.72,94v4.68h5.14v1.77h-5.14v4.92h6.2v1.91h-8.13V92.08h8.13V94Z"/><path class="cls-1" d="M302.91,107.4a8,8,0,0,1-2.19-.29,13,13,0,0,1-1.67-.6,8.58,8.58,0,0,1-.91-.46l-.62-.38.8-1.54.89.48v0a12.83,12.83,0,0,0,1.69.65,6.39,6.39,0,0,0,2,.33,4.45,4.45,0,0,0,1.35-.19,3.7,3.7,0,0,0,1-.46,2.25,2.25,0,0,0,.69-1.71,2,2,0,0,0-1-1.69,6.29,6.29,0,0,0-1.07-.62c-.41-.2-.86-.39-1.34-.58s-1.08-.49-1.61-.74a8.93,8.93,0,0,1-1.46-.9,3.68,3.68,0,0,1-1.5-2.91,3.05,3.05,0,0,1,.37-1.54h0a4.17,4.17,0,0,1,1-1.23,5.16,5.16,0,0,1,3.33-1,8.28,8.28,0,0,1,1.91.21,10.43,10.43,0,0,1,1.47.42h0a5.73,5.73,0,0,1,.83.28L306,94.51a14.29,14.29,0,0,0-1.5-.47,7.16,7.16,0,0,0-1.8-.23,6.72,6.72,0,0,0-.84.08,2.58,2.58,0,0,0-1,.38,1.68,1.68,0,0,0-.91,1.6,1.11,1.11,0,0,0,.26.71,3,3,0,0,0,.69.6,7.13,7.13,0,0,0,1,.57c.37.18.76.35,1.17.53l1.72.78a7.06,7.06,0,0,1,1.64,1,3.89,3.89,0,0,1,1.67,3.16,3.52,3.52,0,0,1-.46,1.77,4.13,4.13,0,0,1-1.23,1.37,7,7,0,0,1-1.61.72A6.44,6.44,0,0,1,302.91,107.4Z"/><path class="cls-1" d="M317.93,107.4a8,8,0,0,1-2.19-.29,13,13,0,0,1-1.67-.6,8.58,8.58,0,0,1-.91-.46c-.27-.17-.48-.3-.63-.38l.8-1.54.89.48v0a14,14,0,0,0,1.69.65,6.5,6.5,0,0,0,2,.33,4.34,4.34,0,0,0,1.34-.19,3.45,3.45,0,0,0,1-.46,2.22,2.22,0,0,0,.7-1.71,2,2,0,0,0-1-1.69,6.4,6.4,0,0,0-1.08-.62c-.41-.2-.85-.39-1.33-.58s-1.08-.49-1.61-.74a8.52,8.52,0,0,1-1.46-.9,3.68,3.68,0,0,1-1.5-2.91,3.05,3.05,0,0,1,.37-1.54h0a4.13,4.13,0,0,1,1-1.23,5.21,5.21,0,0,1,3.34-1,8.34,8.34,0,0,1,1.91.21,10.43,10.43,0,0,1,1.47.42h0a5.2,5.2,0,0,1,.82.28L321,94.51a13.34,13.34,0,0,0-1.49-.47,7.16,7.16,0,0,0-1.8-.23,6.72,6.72,0,0,0-.84.08,2.48,2.48,0,0,0-1,.38,1.68,1.68,0,0,0-.91,1.6,1.06,1.06,0,0,0,.26.71,3,3,0,0,0,.69.6,7.13,7.13,0,0,0,1,.57c.37.18.76.35,1.17.53l1.72.78a7.06,7.06,0,0,1,1.64,1,3.89,3.89,0,0,1,1.67,3.16,3.62,3.62,0,0,1-.46,1.77,4.05,4.05,0,0,1-1.24,1.37,6.74,6.74,0,0,1-1.6.72A6.5,6.5,0,0,1,317.93,107.4Z"/></g></g></svg>