<svg id="Capa_1" data-name="Capa 1" xmlns="http://www.w3.org/2000/svg" xmlns:xlink="http://www.w3.org/1999/xlink" viewBox="0 0 200 200"><defs><style>.cls-1{fill:none;}.cls-2{clip-path:url(#clip-path);}.cls-3{fill:#bce235;}.cls-4{clip-path:url(#clip-path-2);}.cls-5{clip-path:url(#clip-path-4);}.cls-6{stroke:#000;stroke-miterlimit:10;stroke-width:2px;}</style><clipPath id="clip-path"><circle class="cls-1" cx="100" cy="100" r="160.96"/></clipPath><clipPath id="clip-path-2"><circle class="cls-1" cx="100" cy="100" r="110.7"/></clipPath><clipPath id="clip-path-4"><circle class="cls-1" cx="100" cy="89.3" r="110.7"/></clipPath></defs><title>estiramiento</title><g class="cls-2"><g id="xgoLEP"><rect class="cls-3" x="-209.13" y="-143.01" width="661.48" height="582.27"/></g></g><rect x="98.47" y="76.99" width="3.07" height="9.2"/><rect x="98.47" y="89.26" width="3.07" height="6.14"/><rect x="98.47" y="109.2" width="3.07" height="6.14"/><rect x="98.47" y="118.41" width="3.07" height="6.14"/><path d="M88.34,113l-.66-2.65-3,.74.66,2.65a6.12,6.12,0,0,0,5.95,4.65H95.4v-3.07H91.32A3.08,3.08,0,0,1,88.34,113Z"/><path d="M88.34,122.22l-.66-2.65-3,.74.66,2.65a6.12,6.12,0,0,0,5.95,4.65H95.4v-3.07H91.32A3.07,3.07,0,0,1,88.34,122.22Z"/><path d="M141.34,84.09c0-.73.08-1.51.08-2.34a18,18,0,0,0-1.47-7,18.3,18.3,0,0,0-12.31-10.49l-10.72-2.67a6.14,6.14,0,0,1-4.65-6V52.44H87.73v3.22a6.14,6.14,0,0,1-4.65,6L72.36,64.29A18.3,18.3,0,0,0,60.05,74.78a18,18,0,0,0-1.47,7c0,.83,0,1.61.07,2.34-4.1,4.38-6.21,10.06-6.21,16.92v.19A19.35,19.35,0,0,0,61,117.29l15.51,10.82A62.17,62.17,0,0,0,73.92,146v1.54h52.16V146a62.17,62.17,0,0,0-2.63-17.91l15.48-10.8a19.35,19.35,0,0,0,8.63-16.11V101C147.56,94.15,145.45,88.47,141.34,84.09ZM75,98.85a11.76,11.76,0,0,0,.74,1.46,11.15,11.15,0,0,0,1.45,1.89c.15,1,.56,3.67.9,6.89L77.11,108A24.06,24.06,0,0,0,71,102.93,15.06,15.06,0,0,0,75,98.85ZM77,144.49a62.12,62.12,0,0,1,2.66-16.18,40.26,40.26,0,0,0,1.92-11,97.71,97.71,0,0,0-1-12.48,12.08,12.08,0,0,0,5.37,1.3h6.6a11.92,11.92,0,0,0,7.41-2.56,11.92,11.92,0,0,0,7.41,2.56H114a12.08,12.08,0,0,0,5.37-1.3,97.71,97.71,0,0,0-1,12.48,40.26,40.26,0,0,0,1.92,11A62.12,62.12,0,0,1,123,144.49Zm47.3-44.18a11.76,11.76,0,0,0,.74-1.46,15.21,15.21,0,0,0,3.92,4.08,24.27,24.27,0,0,0-6.08,5.08l-.93,1.08c.34-3.22.75-5.9.9-6.89A11.15,11.15,0,0,0,124.31,100.31Zm20.18.89a16.28,16.28,0,0,1-2.32,8.38,16.49,16.49,0,0,1-5,5.19L122.61,125a29.58,29.58,0,0,1-1.13-7.63c0-1,0-2,.08-3l3.66-4.27a21.23,21.23,0,0,1,11.9-7l-.61-3a24,24,0,0,0-4.3,1.31,12.13,12.13,0,0,1-6.14-7.66,95.23,95.23,0,0,0-1.28-15.36l-.27-1.58-3,.5.26,1.59A91.91,91.91,0,0,1,123,93.92a9.39,9.39,0,0,1-1.33,4.81,9,9,0,0,1-7.67,4.34h-6.6a8.9,8.9,0,0,1-6.33-2.62L100,99.36l-1.08,1.09a8.9,8.9,0,0,1-6.33,2.62H86a9,9,0,0,1-7.67-4.34A9.39,9.39,0,0,1,77,93.92a91.91,91.91,0,0,1,1.25-15.09l.26-1.59-3-.5-.27,1.58a95.23,95.23,0,0,0-1.28,15.36,12.13,12.13,0,0,1-6.14,7.66A23.83,23.83,0,0,0,63.48,100l-.6,3a21.21,21.21,0,0,1,11.9,7l3.66,4.28c0,1,.08,2,.08,3A29.58,29.58,0,0,1,77.39,125l-14.62-10.2a16.32,16.32,0,0,1-7.26-13.55V101a21.65,21.65,0,0,1,3.73-12.79,16.2,16.2,0,0,0,1,3.26L63,90.12a20.49,20.49,0,0,1-1.38-8.36A15,15,0,0,1,62.87,76a15.23,15.23,0,0,1,10.24-8.71l10.71-2.68a9.2,9.2,0,0,0,7-8.93v-.15h18.4v.15a9.2,9.2,0,0,0,7,8.93l10.72,2.68A15.23,15.23,0,0,1,137.13,76a15,15,0,0,1,1.22,5.78A20.77,20.77,0,0,1,137,90.12l1.37.68,1.37.68a16.2,16.2,0,0,0,1-3.26A21.65,21.65,0,0,1,144.49,101v.19Z"/><path d="M111.66,113a3.08,3.08,0,0,1-3,2.32H104.6v3.07h4.08a6.12,6.12,0,0,0,5.95-4.65l.66-2.65-3-.74Z"/><path d="M111.66,122.22a3.07,3.07,0,0,1-3,2.32H104.6v3.07h4.08a6.12,6.12,0,0,0,5.95-4.65l.66-2.65-3-.74Z"/><rect x="98.47" y="127.61" width="3.07" height="6.14"/><path d="M88.34,131.42l-.66-2.65-3,.75.66,2.65a6.13,6.13,0,0,0,5.95,4.65H95.4v-3.07H91.32A3.08,3.08,0,0,1,88.34,131.42Z"/><path d="M111.66,131.42a3.08,3.08,0,0,1-3,2.33H104.6v3.07h4.08a6.12,6.12,0,0,0,5.95-4.65l.66-2.65-3-.74Z"/><g class="cls-4"><g id="xgoLEP-2" data-name="xgoLEP"><rect class="cls-3" x="-73.6" y="-32.8" width="376.93" height="331.79"/></g></g><path d="M82.65,146.62a9.42,9.42,0,0,1-4.35-.91,9.07,9.07,0,0,0-3.62-.56,1.73,1.73,0,0,1-.5-.07c-1.58-.46-3.72-1.3-4-3.13-.17-1.21.53-2.34,2.09-3.36a2.1,2.1,0,0,1,.3-.15A55.89,55.89,0,0,1,84,135.33a8.49,8.49,0,0,0,5.64-4.18c2.29-4.32,1.54-11.8-2.28-22.87a1.57,1.57,0,1,1,3-1c4.18,12.1,4.84,20.16,2.09,25.36a11.67,11.67,0,0,1-7.69,5.77l-.19,0a51.63,51.63,0,0,0-10.67,2.88l-.27.2a7.65,7.65,0,0,0,1.25.49,13.14,13.14,0,0,1,4.64.8.88.88,0,0,1,.2.09c1.37.73,4.33,1.16,10.62-1,3-1.37,6.48-1.27,10.34.36,2.31.11,5.17-.1,6.21-1.62.9-1.32.56-3.8-1-7.19-3.65-10-4.43-18.74-2.37-26.13a1.57,1.57,0,0,1,3,.84c-1.88,6.75-1.12,14.86,2.25,24.1,2,4.46,2.27,7.81.67,10.15s-4.58,3.24-9.26,3a1.47,1.47,0,0,1-.54-.13c-3.1-1.36-5.85-1.51-8.18-.44A28.5,28.5,0,0,1,82.65,146.62Z"/><path d="M86.12,84.92H86A9.2,9.2,0,0,1,78.28,80C76.83,76.9,77.45,73.1,80,69.27c7.69-11.5,22.67-16.67,45.79-15.8a1.57,1.57,0,0,1-.12,3.14c-21.93-.82-36,3.88-43.06,14.41-1.94,2.88-2.48,5.59-1.52,7.62a6,6,0,0,0,5.15,3.14,1.57,1.57,0,0,1-.15,3.14Z"/><path d="M88.84,109.34a1.59,1.59,0,0,1-1.45-1A101.27,101.27,0,0,1,80.26,82a1.57,1.57,0,0,1,3.11-.42,98.07,98.07,0,0,0,6.91,25.56,1.57,1.57,0,0,1-.83,2.06A1.49,1.49,0,0,1,88.84,109.34Z"/><path d="M105,109.34a1.83,1.83,0,0,1-.4,0,1.58,1.58,0,0,1-1.12-1.92c2.51-9.49.86-17.74-5-25.24a1.57,1.57,0,0,1,1.71-2.46c8.16,2.6,17.58,3.53,28,2.75a1.56,1.56,0,0,1,1.68,1.45,1.58,1.58,0,0,1-1.45,1.68,81.08,81.08,0,0,1-24.94-1.71c4.39,7.31,5.42,15.47,3.09,24.33A1.58,1.58,0,0,1,105,109.34Z"/><path d="M88.78,79.22A1.56,1.56,0,0,1,87.38,77a10.58,10.58,0,0,0,1.11-5.86,1.57,1.57,0,1,1,3.13-.28,13.81,13.81,0,0,1-1.43,7.54A1.58,1.58,0,0,1,88.78,79.22Z"/><g class="cls-4"><g id="xgoLEP-3" data-name="xgoLEP"><rect class="cls-3" x="-73.6" y="-32.8" width="376.93" height="331.79"/></g></g><path d="M16.65,123.21a3.61,3.61,0,0,0,7.07-1.49A4.84,4.84,0,0,1,25,117.27l7.84-8,22.87-2.48a17.44,17.44,0,0,1,5.49.12c4.83.87,13.75,2.28,19.16,1.87a122.17,122.17,0,0,0,14-2.11c1.23-.25,2.3-.46,2.62-.48,1-.08,7.46-.09,9.91-.08a52.15,52.15,0,0,1,5.85.84c1.55.39,4.49.81,6,1l2.66,16a2.66,2.66,0,0,0,2.64,2.24h14.81a2.83,2.83,0,0,0,.61-5.59l-9.9-2.2-.48-9.43,6.88.92a7.46,7.46,0,0,0,.95.06h.31a5.77,5.77,0,0,0,3.66-1.59l7.3-6.82a9.68,9.68,0,0,0,2.31-1.34l7.42.71a7.07,7.07,0,0,0,.91,1.19c1.22,1.26,3.61,3.42,5.9,3.69a12.33,12.33,0,0,0,4.43-.74l1.74,1.17a1.34,1.34,0,0,0,1.77-.24l2.3-2.69a16.79,16.79,0,0,0,5.91-2.83,9.77,9.77,0,0,0,3.21-7.46,14.28,14.28,0,0,0-4.59-9.62,6.49,6.49,0,0,0-10.77-7.09A7,7,0,0,0,167,81.34a10.36,10.36,0,0,0-2.09,1,24.45,24.45,0,0,0-5,4.54,16,16,0,0,0-2.3,3.28L155.26,90a5.76,5.76,0,0,0-2-4.52c-2.73-2.13-9-2.29-10.88-2.29-4.11,0-20.36,5-22.19,5.62-2.64.8-6.74,2-7.56,2A25.56,25.56,0,0,1,108,90a22.38,22.38,0,0,0-8-4.85c-4.57-1.56-8.73,1.35-11.48,3.28-.6.42-1.12.78-1.55,1-1.37.81-7.36,2.33-11.73,3.44-3.5.88-6.53,1.65-7.9,2.17a4.16,4.16,0,0,1-2.42.15A25,25,0,0,0,57.79,95c-5.4.4-21.65,4.32-24.5,5.35l-.1,0-6.31,2.89-4.79-1a2.68,2.68,0,0,0-3.16,2.11,1.65,1.65,0,0,0,0,.32l-.54,7-1.79,4a7.5,7.5,0,0,0-.5,4.53ZM170.77,78a3.88,3.88,0,0,1,5.48-.41,3.79,3.79,0,0,1,1,4.24,14,14,0,0,0-7.6-1.08A4.48,4.48,0,0,1,170.77,78Zm-4.43,6.65a10.59,10.59,0,0,1,10.85.26,11.27,11.27,0,0,1,4.22,8.2,7.06,7.06,0,0,1-2.16,5.16c-2.9-2.75-10.35-9.62-14.84-12.14A19.74,19.74,0,0,1,166.34,84.6Zm-6.81,8c.17-1.36,1.25-2.72,2.34-4l.53-.6c2.9,1.28,9.77,7.22,14.48,11.64a18.2,18.2,0,0,1-3,1,1.31,1.31,0,0,0-.71.43l-1.8,2.11-1.31-.88a1.33,1.33,0,0,0-1.21-.14,11.69,11.69,0,0,1-3.84.82c-1-.12-2.71-1.26-4.29-2.9a5,5,0,0,1-1.32-2.77h0A16.67,16.67,0,0,1,159.53,92.64Zm-20.47,13.67a3.17,3.17,0,0,1-1.95.88,5.23,5.23,0,0,1-.79,0l-7.37-1L128.8,103c4.46-.31,11.17-.77,14.82-.94Zm6.65-7c-3.36,0-20.81,1.29-21.55,1.34l.19,2.67,1.77-.13.77,15.27a2.67,2.67,0,0,0,2.09,2.48l9.91,2.2a.15.15,0,0,1,.11.18.14.14,0,0,1-.14.11H124.05L120,99.05A1.88,1.88,0,0,1,121.22,97c4.56-1.63,15.74-5.58,20.85-7.11a21,21,0,0,1,10.43-.49,9.15,9.15,0,0,1-.07,3C151.87,95.74,148.42,99.3,145.71,99.3Zm7.22-1.65a11.51,11.51,0,0,0,2.15-4.84s0-.08,0-.12l1.72.12a18,18,0,0,0,0,5c0,.06,0,.12,0,.18Zm-32-6.26c4.89-1.53,18.27-5.5,21.4-5.5a32.33,32.33,0,0,1,5.1.37,24.72,24.72,0,0,0-6.16,1c-5.17,1.56-16.4,5.53-21,7.16a4.58,4.58,0,0,0-3,5.06l1,5.66-1.46-.22.65-12.53C119,92,120.46,91.54,121,91.39Zm-8.14,2.14a12.69,12.69,0,0,0,1.93-.39l-.58,11.35-.79-.18a45.84,45.84,0,0,0-5.08-.79l.27-10.58A19.61,19.61,0,0,0,112.82,93.53Zm-44.58,4.1c1.22-.47,4.32-1.25,7.6-2.08C82.13,94,86.7,92.76,88.28,91.81c.52-.31,1.1-.71,1.71-1.14,2.45-1.72,5.8-4.06,9.09-2.94a19.88,19.88,0,0,1,6.83,4.08l-.28,11.58c-2.51,0-7.81,0-8.87.09-.46,0-1.28.19-2.94.52a121,121,0,0,1-13.68,2.07c-4.29.32-11.08-.6-15.94-1.4l0-6.8.12,0A6.92,6.92,0,0,0,68.24,97.63ZM19,116.81l1.88-4.23a1.37,1.37,0,0,0,.12-.44l.55-7.21,5.22,1a1.28,1.28,0,0,0,.82-.09l6.65-3c2.85-1,18.68-4.8,23.75-5.18a31,31,0,0,1,3.48-.08l0,6.64a19.82,19.82,0,0,0-6.15-.12l-23.31,2.53a1.35,1.35,0,0,0-.82.39l-8.17,8.39a7.51,7.51,0,0,0-2,6.9.94.94,0,0,1-.71,1.11l-.2,0a.93.93,0,0,1-.91-.75l-.59-2.94A4.83,4.83,0,0,1,19,116.81Z"/><g class="cls-5"><g id="xgoLEP-4" data-name="xgoLEP"><rect class="cls-3" x="-74.12" y="-50.11" width="376.93" height="331.79"/></g></g><path class="cls-6" d="M129.71,153.51l-.63-.63a9.23,9.23,0,0,1-1.88-5v-2.52c0-5.33-.16-12.71-1.41-18l.15-.16a.56.56,0,0,0,.16-.47,26.26,26.26,0,0,1-.94-6v-4.24a64,64,0,0,0-.79-15.07,75.09,75.09,0,0,0-3.29-11.94c-.16-1.72-.47-5-.47-8.79,0-2-.16-4.55-.32-7.06a31.7,31.7,0,0,0-1.41-11.46A43.28,43.28,0,0,0,112.6,49a87.8,87.8,0,0,0-9.89-12.87c-.63-.63-14.13-14-17.27-15.86a6.06,6.06,0,0,0-4.08-1.88,6.36,6.36,0,0,0-4.56,2,12.08,12.08,0,0,0-3,3.45h-.16c-2.19,1.1-5.33,3.77-5.49,4.71a1.24,1.24,0,0,1-.31.63c-.47.94-1,1.88.31,4.4,1.26,3.29,11.46,21.19,11.93,22,3,3.46,6.12,6.91,8.48,9.58h0l.16.16,1.57,1.57h0c.94.94,2.19,2.35,3.61,3.77a4.67,4.67,0,0,0-1,3.14.34.34,0,0,0,.32.31h0a.33.33,0,0,0,.31-.31A3.93,3.93,0,0,1,95,71.87a25.84,25.84,0,0,0,2,2.2l3.76,5.49c2.67,5.34,2.67,8.32,2.05,10.52-4.71,7.85-3.93,19.47-3.62,25.75a28,28,0,0,1,.16,3.14c-.16,3.14-.78,8.32-.78,8.32,0,.16,0,.16.15.31l.16.16c-1.26,5-1.26,11.46-1.26,16.48v3.46a8,8,0,0,1-1.88,5l-.63.79c-2,2.35-3.29,3.61-3,4.86.16.63.78,1.1,1.88,1.42a2.11,2.11,0,0,0,1,.15,6.63,6.63,0,0,0,3.76-1.41c2-1.41,3.46-3.61,3.61-5.18-.31-3.14-.15-4.08.32-5.34a94.16,94.16,0,0,0,3-14,12.16,12.16,0,0,0,.32-2.2c0-.31.15-.63.15-.94.16-.47.16-.94.32-1.41h.62a.34.34,0,0,0,.32-.32,57.3,57.3,0,0,1,.94-7.85c.47-2.19,2.83-13.81,3.3-15.85h.94c.31,1.72,2,9.57,2.67,14a69.49,69.49,0,0,0,2.51,9.73.16.16,0,0,0,.16.16h0a23.1,23.1,0,0,1,.78,2.83c.16.62.16,1.25.32,2.19a103.48,103.48,0,0,0,3,14,12.15,12.15,0,0,1,.31,5.33c0,1.42,1.57,3.61,3.61,5.18a6.6,6.6,0,0,0,3.77,1.42,2,2,0,0,0,.94-.16q1.65-.47,1.89-1.41C133,157.12,131.75,155.7,129.71,153.51ZM119.66,73.44c-10.83,2.83-17,5-18.36,5.5l-3.62-5.18a18.18,18.18,0,0,1-.62-2.83h0c1.57-.94,4.08-3,2.67-6.91-.16-.31-.16-.63-.32-.78A8.49,8.49,0,0,0,101,66.38c1.26,1.25,5.81,2,6.28,2.19.16,0,.32-.15.47-.31,0-.16,1.26-3.92.94-6-.15-1.57-2-3.29-3-4.08l2-1.1a90.79,90.79,0,0,1,10.36,5.66A30.24,30.24,0,0,1,119.66,73.44ZM93.29,59.63l-.16-.16a6.8,6.8,0,0,1-1.73-1.1h0s-.94-.79-2-1.88c1.26-2.36,1-5.81.32-8.64a19,19,0,0,0,5.34.94,8,8,0,0,0,2.82-.47,15.59,15.59,0,0,0,4.87-2.51,19.15,19.15,0,0,1,1.57,2.51,12.48,12.48,0,0,1,.78,3.46,8.26,8.26,0,0,1-7.69,8.79A9.25,9.25,0,0,1,93.29,59.63Zm-21-27.95c.94-.78,3.61-3.3,4.24-5.65a17.6,17.6,0,0,1,1.57-1.26,4.76,4.76,0,0,1,4.4-.94,202.23,202.23,0,0,0,13,15.86c-2.36-.47-4.71.31-7.07,2.2S84.65,46,84.65,48.48C80.73,42.36,73.51,33.41,72.25,31.68ZM85.44,48.79c0-2.35,1.1-4.55,3.61-6.43,2.2-1.73,4.55-2.52,6.75-1.89,2.67.63,4.87,2.83,6.44,4.71a13.28,13.28,0,0,1-4.71,2.51c-2.67,1-6.28,0-8.17-.62h-.15c-.16,0-.16-.16-.32,0-.15,0-.31.31-.31.47.47,2.2,1.26,6.12,0,8.63C87.17,54.13,85.44,51.62,85.44,48.79Zm22,7.7-2.2,1.09-.47-.94a9.28,9.28,0,0,0,1.1-4.08A17,17,0,0,1,107.42,56.49Zm-7.69,4.39h0a10.39,10.39,0,0,0,4.55-3.61l.63.94h0s2.82,2.2,3.14,3.93a18.24,18.24,0,0,1-.79,5.34c-1.57-.32-4.71-1.1-5.49-1.89C100.82,64.81,100,62,99.73,60.88Zm5.18-13h0a19.38,19.38,0,0,0-1.42-2.35,3.16,3.16,0,0,1,1.57,1.1,2.18,2.18,0,0,1,.32,2.66ZM88.74,57.11a15.77,15.77,0,0,0,2.19,2h0a3.46,3.46,0,0,0,1.26.79,2.52,2.52,0,0,1-3-.63A2,2,0,0,1,88.74,57.11ZM77.43,21a4.93,4.93,0,0,1,3.93-1.73A5.85,5.85,0,0,1,85,21h.16c2.82,1.88,17,15.7,17.11,15.85A75.91,75.91,0,0,1,112,49.58h0a36.71,36.71,0,0,1,6,11.93,79.15,79.15,0,0,0-9.74-5.18,20.51,20.51,0,0,0-2.51-5.65.56.56,0,0,0-.16-.47,3,3,0,0,0,0-4.09,3.39,3.39,0,0,0-2.66-1.41h0A14.57,14.57,0,0,0,97.06,40h0c-5-4.71-14-16.64-14.13-16.8l-.16-.15a6,6,0,0,0-5.34,1.1c-1.57,1.25-2.2,1.25-2.35,1.25,0-.16-.16-.16-.32-.16a1.94,1.94,0,0,1-.78-.15C74.14,24.93,74.14,24.15,77.43,21ZM68.8,33.41c-1.1-2.2-.63-3-.32-3.77.16-.31.32-.47.32-.78a17.91,17.91,0,0,1,4.55-3.93v.31c.16.63.94.63,1.41.63a.56.56,0,0,0,.32.16h.31c-.78,2.35-4.08,5-4.08,5a.29.29,0,0,0,0,.47c.16.16,9.26,11.62,13.34,18.06A13.87,13.87,0,0,0,88,56.17c-.47.79-.63,1.89.47,3.3a2.62,2.62,0,0,0,2.36,1.1,4,4,0,0,0,2-.63,2.17,2.17,0,0,0,.94.31,9.11,9.11,0,0,0,.63,5.5,3.6,3.6,0,0,1-.32,3.77c-2.35-2.52-4.55-4.71-5-5.18-2.51-2.52-5.65-6.13-8.63-9.58C80.57,54.92,70.05,36.55,68.8,33.41Zm25.43,38c.16-.16.16-.47.31-.63.79-1.41,1.73-3,.63-5a8.25,8.25,0,0,1-.63-4.87,12,12,0,0,0,2.36.32h.47a6.83,6.83,0,0,0,1.57-.32V61c-.31.78-.47,1.25.16,2.82,1.41,3.93-1.73,5.66-3.14,6.28A21.21,21.21,0,0,1,94.23,71.4Zm1.88-.16s.16,0,.16-.15c0,.47.16.78.16,1.25l-.94-.94C95.8,71.4,96,71.24,96.11,71.24Zm5.5,8.32c1.57-.47,7.54-2.51,17.9-5.33.15,2.35.31,4.71.31,6.59a64.15,64.15,0,0,0,.31,8.63c-.62.48-3.14,2-9.1,1.89a20.58,20.58,0,0,1-7.54-1.41C104.12,87.73,104.12,84.74,101.61,79.56Zm3.92,51c0,.31-.15.62-.15.94-.16.63-.16,1.25-.32,2.2a97.34,97.34,0,0,1-3,13.81c-.47,1.41-.63,2.36-.31,5.65,0,1.26-1.42,3.14-3.3,4.56-.94.62-2.51,1.72-4.08,1.25a2,2,0,0,1-1.42-.78c-.15-.79,1.1-2.2,2.83-4.09l.63-.62a8.28,8.28,0,0,0,2-5.5v-3.45c0-5,0-11.15,1.26-16a14.19,14.19,0,0,0,5.8.94h.32A1.8,1.8,0,0,0,105.53,130.59Zm7.85-25.91c0-.15-.15-.31-.47-.31l-1.57.16a.33.33,0,0,0-.31.31c0,.16-2.67,13.81-3.3,16.17-.47,2-.78,6.44-.94,7.69h-1.41c-2.83,0-5-.47-6-1.25.16-1,.63-5.5.79-8.32a30.39,30.39,0,0,0-.16-3.3c-.31-5.65-1.1-17.27,3.3-25,.78.47,3.29,1.25,7.85,1.41,5.49.16,8.32-1.26,9.26-1.88a60.34,60.34,0,0,1,3.14,11.3,71.92,71.92,0,0,1,.63,14.91,37,37,0,0,0,0,4.24,32.15,32.15,0,0,0,.94,6,9.82,9.82,0,0,1-5.18,1.73,5.24,5.24,0,0,1-1.57-.16,68.83,68.83,0,0,1-2.51-9.26C115.27,114.1,113.38,104.68,113.38,104.68Zm18.53,53.38a2,2,0,0,1-1.41.78c-1.57.48-3.3-.62-4.09-1.25-1.72-1.26-3.14-3.3-3.29-4.55.31-3.3.15-4.24-.32-5.66a98.49,98.49,0,0,1-3-13.81,12.07,12.07,0,0,1-.31-2.2A16.22,16.22,0,0,0,119,129c.31,0,.78.15,1.09.15A9.32,9.32,0,0,0,125,127.6c1.1,5.18,1.26,12.41,1.41,17.59v2.51a9.22,9.22,0,0,0,2.05,5.49l.62.63C130.81,155.86,132.07,157.27,131.91,158.06Z"/></svg>