<svg xmlns="http://www.w3.org/2000/svg" viewBox="0 0 526.91 247"><defs><style>.cls-1,.cls-2,.cls-3{fill:#ade500;}.cls-1{opacity:0.3;}.cls-2{opacity:0.6;}.cls-4{fill:#f1f2f2;}.cls-5{fill:#2d202b;}</style></defs><title>ff-levels</title><g id="Capa_2" data-name="Capa 2"><g id="Layer_1" data-name="Layer 1"><rect class="cls-1" x="70.91" width="456" height="34"/><rect class="cls-2" x="70.91" y="88" width="456" height="34"/><rect class="cls-3" x="70.91" y="174" width="456" height="34"/><rect class="cls-4" x="70.91" y="34" width="456" height="38.74"/><rect class="cls-4" x="70.91" y="122.27" width="456" height="38.74"/><rect class="cls-4" x="70.91" y="208.26" width="456" height="38.74"/><path class="cls-5" d="M255.21,25.22v-14h3v14Z"/><path class="cls-5" d="M270.62,25.22l-6.68-9.13v9.13h-3v-14H264L270.52,20V11.22h3v14Z"/><path class="cls-5" d="M276.27,25.22v-14h3v14Z"/><path class="cls-5" d="M281.35,18.23c0-4.33,3.26-7.24,7.48-7.24a6.34,6.34,0,0,1,5.83,3.42l-2.56,1.26a3.8,3.8,0,0,0-3.27-2,4.37,4.37,0,0,0-4.41,4.6,4.37,4.37,0,0,0,4.41,4.6,3.78,3.78,0,0,0,3.27-2L294.66,22a6.4,6.4,0,0,1-5.83,3.44A7.13,7.13,0,0,1,281.35,18.23Z"/><path class="cls-5" d="M296.45,25.22v-14h3v14Z"/><path class="cls-5" d="M311.88,25.22,311,22.85h-6l-.89,2.37h-3.38l5.4-14h3.74l5.39,14ZM308,14.2l-2.18,6h4.36Z"/><path class="cls-5" d="M316.44,25.22v-14h3V22.6h5.93v2.62Z"/><path class="cls-5" d="M216.89,61.22V54.13c0-1.43-.61-2.31-2-2.31A3.72,3.72,0,0,0,212,53.54v7.68h-1.12V54.13c0-1.43-.58-2.31-2-2.31a3.88,3.88,0,0,0-2.92,1.74v7.66h-1.09V51.08h1.09v1.53a4.47,4.47,0,0,1,3.28-1.78,2.54,2.54,0,0,1,2.66,1.91,4.2,4.2,0,0,1,3.36-1.91c1.87,0,2.77,1.05,2.77,3.09v7.3Z"/><path class="cls-5" d="M220.82,56.14a5,5,0,0,1,4.87-5.31c3.09,0,4.79,2.43,4.79,5.37v.3H222a4,4,0,0,0,4,4,4.44,4.44,0,0,0,3.32-1.41l.57.72a5.23,5.23,0,0,1-4,1.63A5,5,0,0,1,220.82,56.14Zm4.85-4.37A3.81,3.81,0,0,0,222,55.64h7.36A3.72,3.72,0,0,0,225.67,51.77Z"/><path class="cls-5" d="M240.14,61.22V54.36c0-2-1-2.54-2.46-2.54a4.35,4.35,0,0,0-3.3,1.74v7.66h-1.09V51.08h1.09v1.53A5.17,5.17,0,0,1,238,50.83c2.06,0,3.19,1,3.19,3.3v7.09Z"/><path class="cls-5" d="M244.07,56.14c0-3,1.89-5.31,4.85-5.31s4.89,2.35,4.89,5.31-1.89,5.33-4.89,5.33S244.07,59.1,244.07,56.14Zm8.56,0c0-2.25-1.32-4.32-3.71-4.32s-3.7,2.07-3.7,4.32,1.34,4.35,3.7,4.35S252.63,58.41,252.63,56.14Z"/><path class="cls-5" d="M255.74,59.86l.65-.8a4.22,4.22,0,0,0,3.28,1.49c1.7,0,2.71-.88,2.71-2.06,0-2.77-6.41-1.2-6.41-4.85,0-1.55,1.33-2.81,3.61-2.81a4.67,4.67,0,0,1,3.64,1.49l-.61.78a3.7,3.7,0,0,0-3-1.35c-1.57,0-2.52.8-2.52,1.85,0,2.54,6.39,1,6.39,4.89,0,1.64-1.26,3-3.8,3A4.88,4.88,0,0,1,255.74,59.86Z"/><path class="cls-5" d="M279.18,61.22V59.61a4.35,4.35,0,0,1-3.53,1.86c-2.69,0-4.52-2-4.52-5.31s1.83-5.33,4.52-5.33a4.27,4.27,0,0,1,3.53,1.89v-5.5h1.11v14Zm0-2.54v-5a4.06,4.06,0,0,0-3.34-1.84c-2.25,0-3.55,1.89-3.55,4.34s1.3,4.33,3.55,4.33A4.06,4.06,0,0,0,279.18,58.68Z"/><path class="cls-5" d="M283.13,56.14A5,5,0,0,1,288,50.83c3.08,0,4.78,2.43,4.78,5.37v.3H284.3a4,4,0,0,0,4,4,4.44,4.44,0,0,0,3.32-1.41l.56.72a5.21,5.21,0,0,1-4,1.63A5,5,0,0,1,283.13,56.14ZM288,51.77a3.82,3.82,0,0,0-3.68,3.87h7.37A3.72,3.72,0,0,0,288,51.77Z"/><path class="cls-5" d="M300.55,54.23c0-3.59,1.52-7.22,5.36-7.22a4.49,4.49,0,0,1,3.78,1.78l-.7.86a3.56,3.56,0,0,0-3.08-1.55c-3,0-4.14,3.17-4.14,6.15,0,.21,0,.44,0,.65a5.25,5.25,0,0,1,4.1-2.33c2.52,0,4.51,1.45,4.51,4.43a4.45,4.45,0,0,1-4.7,4.47C301.92,61.47,300.55,58,300.55,54.23ZM309.18,57a3.16,3.16,0,0,0-3.5-3.38,4.56,4.56,0,0,0-3.82,2.4c.16,1.91,1.17,4.34,3.8,4.34A3.37,3.37,0,0,0,309.18,57Z"/><path class="cls-5" d="M330.81,61.22V54.13c0-1.43-.61-2.31-2-2.31a3.72,3.72,0,0,0-2.89,1.72v7.68h-1.11V54.13c0-1.43-.59-2.31-2-2.31a3.88,3.88,0,0,0-2.92,1.74v7.66h-1.09V51.08h1.09v1.53a4.47,4.47,0,0,1,3.28-1.78,2.54,2.54,0,0,1,2.66,1.91,4.2,4.2,0,0,1,3.36-1.91c1.87,0,2.77,1.05,2.77,3.09v7.3Z"/><path class="cls-5" d="M334.74,56.14a5,5,0,0,1,4.87-5.31c3.09,0,4.79,2.43,4.79,5.37v.3h-8.48a4,4,0,0,0,4,4,4.43,4.43,0,0,0,3.32-1.41l.57.72a5.23,5.23,0,0,1-4,1.63A5,5,0,0,1,334.74,56.14Zm4.85-4.37a3.81,3.81,0,0,0-3.67,3.87h7.37A3.73,3.73,0,0,0,339.59,51.77Z"/><path class="cls-5" d="M346.33,59.86l.65-.8a4.22,4.22,0,0,0,3.28,1.49c1.7,0,2.71-.88,2.71-2.06,0-2.77-6.41-1.2-6.41-4.85,0-1.55,1.33-2.81,3.61-2.81a4.67,4.67,0,0,1,3.64,1.49l-.61.78a3.7,3.7,0,0,0-3-1.35c-1.57,0-2.52.8-2.52,1.85,0,2.54,6.39,1,6.39,4.89,0,1.64-1.26,3-3.8,3A4.88,4.88,0,0,1,346.33,59.86Z"/><path class="cls-5" d="M356.29,56.14a5,5,0,0,1,4.87-5.31c3.08,0,4.78,2.43,4.78,5.37v.3h-8.48a4,4,0,0,0,4,4,4.44,4.44,0,0,0,3.32-1.41l.56.72a5.21,5.21,0,0,1-4,1.63A5,5,0,0,1,356.29,56.14Zm4.85-4.37a3.82,3.82,0,0,0-3.68,3.87h7.37A3.72,3.72,0,0,0,361.14,51.77Z"/><path class="cls-5" d="M367.88,59.86l.65-.8a4.22,4.22,0,0,0,3.27,1.49c1.7,0,2.71-.88,2.71-2.06,0-2.77-6.4-1.2-6.4-4.85,0-1.55,1.32-2.81,3.61-2.81a4.65,4.65,0,0,1,3.63,1.49l-.61.78a3.69,3.69,0,0,0-3-1.35c-1.58,0-2.52.8-2.52,1.85,0,2.54,6.38,1,6.38,4.89,0,1.64-1.26,3-3.8,3A4.84,4.84,0,0,1,367.88,59.86Z"/><path class="cls-5" d="M228.23,113.22v-14h3v14Z"/><path class="cls-5" d="M243.65,113.22,237,104.09v9.13h-3v-14h3.06l6.49,8.79V99.22h3v14Z"/><path class="cls-5" d="M252.53,113.22V101.84h-4.09V99.22H259.6v2.62h-4.07v11.38Z"/><path class="cls-5" d="M261.52,113.22v-14h9.91v2.62H264.5v2.94h6.78v2.63H264.5v3.19h6.93v2.62Z"/><path class="cls-5" d="M281.68,113.22l-2.75-5h-2.19v5h-3v-14h6.55a4.38,4.38,0,0,1,4.73,4.51,4.06,4.06,0,0,1-3.09,4.16l3.17,5.33Zm.29-9.51a1.89,1.89,0,0,0-2.08-1.87h-3.15v3.78h3.15A1.9,1.9,0,0,0,282,103.71Z"/><path class="cls-5" d="M299.44,113.22v-10.1l-3.95,10.1h-1.3l-3.94-10.1v10.1h-3v-14h4.18l3.4,8.75,3.41-8.75h4.19v14Z"/><path class="cls-5" d="M305.22,113.22v-14h9.91v2.62H308.2v2.94H315v2.63H308.2v3.19h6.93v2.62Z"/><path class="cls-5" d="M317.46,113.22v-14H323c4.39,0,7.44,2.79,7.44,7s-3.05,7-7.41,7Zm9.91-7a4.08,4.08,0,0,0-4.36-4.37h-2.57v8.76H323A4.2,4.2,0,0,0,327.37,106.21Z"/><path class="cls-5" d="M332.54,113.22v-14h3v14Z"/><path class="cls-5" d="M337.62,106.23a7.32,7.32,0,1,1,7.33,7.24A7,7,0,0,1,337.62,106.23Zm11.57,0c0-2.62-1.66-4.6-4.24-4.6s-4.26,2-4.26,4.6,1.66,4.6,4.26,4.6S349.19,108.83,349.19,106.23Z"/><path class="cls-5" d="M184.58,144.14a5,5,0,0,1,4.87-5.31c3.08,0,4.78,2.43,4.78,5.37v.3h-8.48a4,4,0,0,0,4,4,4.44,4.44,0,0,0,3.32-1.41l.56.72a5.19,5.19,0,0,1-4,1.63A5,5,0,0,1,184.58,144.14Zm4.85-4.37a3.82,3.82,0,0,0-3.68,3.87h7.37A3.72,3.72,0,0,0,189.43,139.77Z"/><path class="cls-5" d="M203.89,149.22v-6.86c0-2-1-2.54-2.45-2.54a4.33,4.33,0,0,0-3.3,1.74v7.66h-1.09V139.08h1.09v1.53a5.15,5.15,0,0,1,3.65-1.78c2.06,0,3.2,1,3.2,3.3v7.09Z"/><path class="cls-5" d="M208.6,147.27v-7.22h-1.68v-1h1.68v-2.77h1.11v2.77h2.06v1h-2.06v7c0,.82.34,1.39,1,1.39a1.59,1.59,0,0,0,1.14-.49l.41.84a2.25,2.25,0,0,1-1.72.63C209.25,149.47,208.6,148.65,208.6,147.27Z"/><path class="cls-5" d="M214.16,149.22V139.08h1.1v1.74a4.35,4.35,0,0,1,3.42-1.95v1.2a2.46,2.46,0,0,0-.55,0,3.85,3.85,0,0,0-2.87,1.8v7.39Z"/><path class="cls-5" d="M220.25,144.14a5,5,0,0,1,4.87-5.31c3.09,0,4.79,2.43,4.79,5.37v.3h-8.48a4,4,0,0,0,4,4,4.42,4.42,0,0,0,3.31-1.41l.57.72a5.23,5.23,0,0,1-4,1.63A5,5,0,0,1,220.25,144.14Zm4.85-4.37a3.81,3.81,0,0,0-3.67,3.87h7.37A3.73,3.73,0,0,0,225.1,139.77Z"/><path class="cls-5" d="M237.68,142.23c0-3.59,1.51-7.22,5.35-7.22a4.47,4.47,0,0,1,3.78,1.78l-.69.86A3.56,3.56,0,0,0,243,136.1c-3,0-4.13,3.17-4.13,6.15,0,.21,0,.44,0,.65a5.23,5.23,0,0,1,4.09-2.33c2.52,0,4.52,1.45,4.52,4.43a4.45,4.45,0,0,1-4.7,4.47C239.05,149.47,237.68,146,237.68,142.23Zm8.63,2.79c0-2.29-1.49-3.38-3.51-3.38A4.58,4.58,0,0,0,239,144c.17,1.91,1.18,4.34,3.8,4.34A3.37,3.37,0,0,0,246.31,145Z"/><path class="cls-5" d="M267.94,149.22v-7.09c0-1.43-.61-2.31-2-2.31a3.72,3.72,0,0,0-2.89,1.72v7.68h-1.12v-7.09c0-1.43-.59-2.31-2-2.31a3.87,3.87,0,0,0-2.92,1.74v7.66h-1.09V139.08H257v1.53a4.45,4.45,0,0,1,3.27-1.78,2.55,2.55,0,0,1,2.67,1.91,4.2,4.2,0,0,1,3.36-1.91c1.87,0,2.77,1,2.77,3.09v7.3Z"/><path class="cls-5" d="M271.87,144.14a5,5,0,0,1,4.87-5.31c3.09,0,4.79,2.43,4.79,5.37v.3H273a4,4,0,0,0,4,4,4.44,4.44,0,0,0,3.32-1.41l.57.72a5.23,5.23,0,0,1-4,1.63A5,5,0,0,1,271.87,144.14Zm4.85-4.37a3.82,3.82,0,0,0-3.68,3.87h7.37A3.72,3.72,0,0,0,276.72,139.77Z"/><path class="cls-5" d="M283.46,147.86l.65-.8a4.22,4.22,0,0,0,3.28,1.49c1.7,0,2.7-.88,2.7-2.06,0-2.77-6.4-1.2-6.4-4.85,0-1.55,1.32-2.81,3.61-2.81a4.65,4.65,0,0,1,3.63,1.49l-.61.78a3.67,3.67,0,0,0-3-1.35c-1.57,0-2.52.8-2.52,1.85,0,2.54,6.38,1,6.38,4.89,0,1.64-1.26,3-3.8,3A4.87,4.87,0,0,1,283.46,147.86Z"/><path class="cls-5" d="M293.41,144.14a5,5,0,0,1,4.87-5.31c3.09,0,4.79,2.43,4.79,5.37v.3h-8.48a4,4,0,0,0,4,4,4.42,4.42,0,0,0,3.31-1.41l.57.72a5.23,5.23,0,0,1-4,1.63A5,5,0,0,1,293.41,144.14Zm4.85-4.37a3.81,3.81,0,0,0-3.67,3.87H302A3.73,3.73,0,0,0,298.26,139.77Z"/><path class="cls-5" d="M305,147.86l.65-.8a4.24,4.24,0,0,0,3.28,1.49c1.7,0,2.71-.88,2.71-2.06,0-2.77-6.41-1.2-6.41-4.85,0-1.55,1.33-2.81,3.62-2.81a4.67,4.67,0,0,1,3.63,1.49l-.61.78a3.69,3.69,0,0,0-3-1.35c-1.58,0-2.52.8-2.52,1.85,0,2.54,6.38,1,6.38,4.89,0,1.64-1.26,3-3.8,3A4.88,4.88,0,0,1,305,147.86Z"/><path class="cls-5" d="M320.48,152.18a2.42,2.42,0,0,0,.88.17c.67,0,1.14-.27,1.56-1.24l.79-1.8-4.3-10.23h1.22l3.69,8.86,3.66-8.86h1.23L324,151.45a2.7,2.7,0,0,1-2.59,1.89,4.48,4.48,0,0,1-1.09-.15Z"/><path class="cls-5" d="M336,149.22v-1c4.76-3.84,8-6.57,8-9.27,0-2-1.66-2.86-3.2-2.86a4.59,4.59,0,0,0-3.84,1.83l-.82-.76a5.7,5.7,0,0,1,4.66-2.16c2.06,0,4.41,1.17,4.41,4,0,3.08-3.25,5.89-7.3,9.17h7.37v1.09Z"/><path class="cls-5" d="M360.61,149.22V148a4.45,4.45,0,0,1-3.45,1.44,3.39,3.39,0,0,1-3.54-3.38,3.35,3.35,0,0,1,3.54-3.36,4.42,4.42,0,0,1,3.45,1.45v-2.05c0-1.52-1.22-2.34-2.71-2.34a4,4,0,0,0-3.19,1.5l-.61-.76a4.93,4.93,0,0,1,3.9-1.7c2.06,0,3.7,1,3.7,3.25v7.14Zm0-2V145a3.78,3.78,0,0,0-3.07-1.41,2.52,2.52,0,1,0,0,5A3.81,3.81,0,0,0,360.61,147.23Z"/><path class="cls-5" d="M372,149.22v-6.86c0-2-1-2.54-2.46-2.54a4.31,4.31,0,0,0-3.29,1.74v7.66h-1.1V139.08h1.1v1.53a5.13,5.13,0,0,1,3.65-1.78c2.06,0,3.19,1,3.19,3.3v7.09Zm-4.26-13.77c-.63,0-1.14.59-1.14,2h-.73c0-1.57.69-2.81,1.95-2.81,1.55,0,1.51,2.14,2.63,2.14.63,0,1.13-.61,1.13-2h.73c0,1.57-.67,2.81-1.95,2.81C368.8,137.59,368.84,135.45,367.73,135.45Z"/><path class="cls-5" d="M375.88,144.14c0-3,1.89-5.31,4.85-5.31s4.89,2.35,4.89,5.31-1.89,5.33-4.89,5.33S375.88,147.1,375.88,144.14Zm8.56,0c0-2.25-1.32-4.32-3.71-4.32s-3.7,2.07-3.7,4.32,1.34,4.35,3.7,4.35S384.44,146.41,384.44,144.14Z"/><path class="cls-5" d="M387.55,147.86l.65-.8a4.22,4.22,0,0,0,3.28,1.49c1.7,0,2.71-.88,2.71-2.06,0-2.77-6.41-1.2-6.41-4.85,0-1.55,1.32-2.81,3.61-2.81a4.67,4.67,0,0,1,3.64,1.49l-.61.78a3.7,3.7,0,0,0-3-1.35c-1.57,0-2.52.8-2.52,1.85,0,2.54,6.39,1,6.39,4.89,0,1.64-1.26,3-3.8,3A4.88,4.88,0,0,1,387.55,147.86Z"/><path class="cls-5" d="M242.81,199.22l-.89-2.37h-6l-.88,2.37h-3.38l5.39-14h3.74l5.4,14Zm-3.89-11-2.18,6h4.36Z"/><path class="cls-5" d="M251.42,199.22l-5.4-14h3.38L253.29,196l3.88-10.75h3.38l-5.4,14Z"/><path class="cls-5" d="M271.53,199.22l-.88-2.37h-6l-.88,2.37h-3.38l5.39-14h3.74l5.39,14Zm-3.88-11-2.18,6h4.36Z"/><path class="cls-5" d="M285.88,199.22l-6.68-9.13v9.13h-3v-14h3.06l6.49,8.79v-8.79h3v14Z"/><path class="cls-5" d="M291,199.22v-2.41l6.62-9H291v-2.62h10.52v2.39l-6.61,9h6.76v2.62Z"/><path class="cls-5" d="M313.64,199.22l-.88-2.37h-6l-.88,2.37h-3.38l5.4-14h3.73l5.4,14Zm-3.89-11-2.18,6h4.37Z"/><path class="cls-5" d="M318.32,199.22v-14h5.53c4.38,0,7.43,2.79,7.43,7s-3,7-7.41,7Zm9.91-7a4.08,4.08,0,0,0-4.36-4.37h-2.56v8.76h2.54A4.19,4.19,0,0,0,328.23,192.21Z"/><path class="cls-5" d="M332.73,192.23a7.32,7.32,0,1,1,7.33,7.24A7,7,0,0,1,332.73,192.23Zm11.57,0c0-2.62-1.66-4.6-4.24-4.6s-4.26,2-4.26,4.6,1.65,4.6,4.26,4.6S344.3,194.83,344.3,192.23Z"/><path class="cls-5" d="M236.94,235.22v-7.09c0-1.43-.61-2.31-2-2.31a3.76,3.76,0,0,0-2.9,1.72v7.68h-1.11v-7.09c0-1.43-.59-2.31-2-2.31a3.88,3.88,0,0,0-2.92,1.74v7.66h-1.09V225.08H226v1.53a4.47,4.47,0,0,1,3.28-1.78,2.55,2.55,0,0,1,2.67,1.91,4.19,4.19,0,0,1,3.36-1.91c1.86,0,2.77,1,2.77,3.09v7.3Z"/><path class="cls-5" d="M247.88,235.22V234a4.45,4.45,0,0,1-3.45,1.44,3.39,3.39,0,0,1-3.54-3.38,3.35,3.35,0,0,1,3.54-3.36,4.42,4.42,0,0,1,3.45,1.45v-2.05c0-1.52-1.22-2.34-2.71-2.34a4,4,0,0,0-3.19,1.5l-.61-.76a4.93,4.93,0,0,1,3.9-1.7c2.06,0,3.7,1,3.7,3.25v7.14Zm0-2V231a3.78,3.78,0,0,0-3.07-1.41,2.52,2.52,0,1,0,0,5A3.81,3.81,0,0,0,247.88,233.23Zm-2.94-9.68H244l3.24-3h1.3Z"/><path class="cls-5" d="M251.49,233.86l.65-.8a4.22,4.22,0,0,0,3.28,1.49c1.7,0,2.7-.88,2.7-2.06,0-2.77-6.4-1.2-6.4-4.85,0-1.55,1.32-2.81,3.61-2.81a4.63,4.63,0,0,1,3.63,1.49l-.6.78a3.7,3.7,0,0,0-3-1.35c-1.57,0-2.52.8-2.52,1.85,0,2.54,6.39,1,6.39,4.89,0,1.64-1.26,3-3.8,3A4.88,4.88,0,0,1,251.49,233.86Z"/><path class="cls-5" d="M274.92,235.22v-1.61a4.32,4.32,0,0,1-3.52,1.86c-2.69,0-4.52-2.05-4.52-5.31s1.83-5.33,4.52-5.33a4.24,4.24,0,0,1,3.52,1.89v-5.5H276v14Zm0-2.54v-5a4,4,0,0,0-3.33-1.84c-2.25,0-3.55,1.89-3.55,4.34s1.3,4.33,3.55,4.33A4,4,0,0,0,274.92,232.68Z"/><path class="cls-5" d="M278.87,230.14a5,5,0,0,1,4.87-5.31c3.09,0,4.79,2.43,4.79,5.37v.3h-8.48a4,4,0,0,0,4,4,4.46,4.46,0,0,0,3.32-1.41l.56.72a5.23,5.23,0,0,1-4,1.63A5,5,0,0,1,278.87,230.14Zm4.85-4.37a3.81,3.81,0,0,0-3.67,3.87h7.37A3.73,3.73,0,0,0,283.72,225.77Z"/><path class="cls-5" d="M296.26,235.22v-1c4.77-3.84,8-6.57,8-9.27A2.89,2.89,0,0,0,301,222.1a4.59,4.59,0,0,0-3.85,1.83l-.82-.76A5.7,5.7,0,0,1,301,221c2.05,0,4.41,1.17,4.41,4,0,3.08-3.26,5.89-7.31,9.17h7.37v1.09Z"/><path class="cls-5" d="M320.89,235.22V234a4.43,4.43,0,0,1-3.44,1.44,3.37,3.37,0,1,1,0-6.74,4.41,4.41,0,0,1,3.44,1.45v-2.05c0-1.52-1.22-2.34-2.71-2.34a4,4,0,0,0-3.19,1.5l-.61-.76a5,5,0,0,1,3.91-1.7c2.06,0,3.69,1,3.69,3.25v7.14Zm0-2V231a3.76,3.76,0,0,0-3.06-1.41,2.52,2.52,0,1,0,0,5A3.79,3.79,0,0,0,320.89,233.23Z"/><path class="cls-5" d="M332.27,235.22v-6.86c0-2-1-2.54-2.45-2.54a4.31,4.31,0,0,0-3.3,1.74v7.66h-1.09V225.08h1.09v1.53a5.13,5.13,0,0,1,3.65-1.78c2.06,0,3.19,1,3.19,3.3v7.09ZM328,221.45c-.63,0-1.13.59-1.13,2h-.74c0-1.57.69-2.81,1.95-2.81,1.56,0,1.52,2.14,2.63,2.14.63,0,1.13-.61,1.13-2h.74c0,1.57-.67,2.81-2,2.81C329.08,223.59,329.12,221.45,328,221.45Z"/><path class="cls-5" d="M336.16,230.14c0-3,1.89-5.31,4.85-5.31s4.89,2.35,4.89,5.31-1.89,5.33-4.89,5.33S336.16,233.1,336.16,230.14Zm8.57,0c0-2.25-1.33-4.32-3.72-4.32s-3.7,2.07-3.7,4.32,1.35,4.35,3.7,4.35S344.73,232.41,344.73,230.14Z"/><path class="cls-5" d="M347.84,233.86l.65-.8a4.2,4.2,0,0,0,3.27,1.49c1.7,0,2.71-.88,2.71-2.06,0-2.77-6.4-1.2-6.4-4.85,0-1.55,1.32-2.81,3.61-2.81a4.67,4.67,0,0,1,3.63,1.49l-.61.78a3.69,3.69,0,0,0-3-1.35c-1.58,0-2.52.8-2.52,1.85,0,2.54,6.38,1,6.38,4.89,0,1.64-1.26,3-3.8,3A4.84,4.84,0,0,1,347.84,233.86Z"/><path class="cls-5" d="M3.49,22.28V20.63a4,4,0,0,0,2.93-.88,3.68,3.68,0,0,0,.86-2.67h2v34h3.12v2.42H3.64V51.07H6.82V22.28Z"/><polygon class="cls-3" points="51.46 39 34.14 29 34.14 49 51.46 39"/><path class="cls-5" d="M0,144.49v-5.21a19.47,19.47,0,0,1,.49-4.55,13.39,13.39,0,0,1,1.3-3.48,22.52,22.52,0,0,1,1.76-2.68c.64-.84,1.29-1.63,1.94-2.39a25.43,25.43,0,0,0,1.78-2.31,10.68,10.68,0,0,0,1.3-2.76,11.44,11.44,0,0,0,.49-3.44v-3.84q0-4-3.28-4a2.91,2.91,0,0,0-2.58,1,5.33,5.33,0,0,0-.71,3V118H0v-4.11a7.58,7.58,0,0,1,1.25-4.68q1.26-1.62,4.53-1.62t4.51,1.62a7.5,7.5,0,0,1,1.26,4.67v3.78a14.16,14.16,0,0,1-.49,3.86,11.65,11.65,0,0,1-1.3,3A23,23,0,0,1,8,127c-.64.79-1.29,1.58-1.93,2.38a23,23,0,0,0-1.77,2.53A11.93,11.93,0,0,0,3,135.06a15.51,15.51,0,0,0-.5,4.1v2.91h9.22v2.42Z"/><polygon class="cls-5" points="51.46 130 34.14 120 34.14 140 51.46 130"/><path class="cls-5" d="M0,226.67v-4.59H2.49v4.59a5.3,5.3,0,0,0,.73,3,2.89,2.89,0,0,0,2.58,1.08,2.94,2.94,0,0,0,2.57-1,5.23,5.23,0,0,0,.75-3v-7.39q0-4-3.33-4H4.11V213H5.79a2.8,2.8,0,0,0,2.44-1,4.84,4.84,0,0,0,.68-2.8v-7.54a5.06,5.06,0,0,0-.72-2.92,2.84,2.84,0,0,0-2.49-1,2.77,2.77,0,0,0-2.44,1,5.06,5.06,0,0,0-.72,2.92V206H.05v-4.22a7.27,7.27,0,0,1,1.27-4.59c.85-1.07,2.31-1.6,4.38-1.6s3.55.53,4.41,1.6a7.15,7.15,0,0,1,1.29,4.59V209q0,4-2.92,5.05c2.08.67,3.12,2.38,3.12,5.1v7.49a7.46,7.46,0,0,1-1.29,4.69C9.45,232.45,7.94,233,5.8,233s-3.64-.54-4.51-1.63A7.46,7.46,0,0,1,0,226.67Z"/><polygon class="cls-5" points="51.46 218 34.14 208 34.14 228 51.46 218"/></g></g></svg>