<svg xmlns="http://www.w3.org/2000/svg" viewBox="0 0 74.77 97.34"><defs><style>.cls-1{fill:#fff;}.cls-2{fill:#2d202b;}</style></defs><title>icon-fuerza</title><g id="Capa_2" data-name="Capa 2"><g id="Layer_1" data-name="Layer 1"><path class="cls-1" d="M62.12,7.51C61.09,1.13,58.06,0,54.84,0H18.74c-3.21,0-5.13,2.84-5.82,7.51L8.39,25.62c0,4.15,2.6,7.51,5.82,7.51H20c-2.42,0-4.38-2.53-4.38-5.65L19,13.86c.47-3.19,1.71-5.24,3.75-5.59.23.19.44.4.6.51a4.7,4.7,0,0,0,2.11.84,4.13,4.13,0,0,0,3.27-.78c1.2-.73,2.24-.38,3.4.33a4.14,4.14,0,0,0,3.6.24c1.25-.53,2.37-1.47,3.85-.83.44.19.71.68,1.14.93a3.44,3.44,0,0,0,1.8.31c1.46,0,2.06-.73,3.35-1.27a2.55,2.55,0,0,1,1.66-.23c.67.22,1,.93,1.62,1.24a3.71,3.71,0,0,0,4.11-.75c1.26.71,2.27,2.16,2.74,5l3.28,13.62c0,3.12-2,5.65-4.38,5.65h5.76c3.22,0,5.82-3.36,5.82-7.51Z"/><path class="cls-1" d="M74.77,59.63A37.39,37.39,0,1,1,37.38,21.92,37.55,37.55,0,0,1,74.77,59.63"/><path class="cls-2" d="M35.37,66.8A4.49,4.49,0,0,1,27.71,70a4.3,4.3,0,0,1-1.32-3.17V56.55a4.49,4.49,0,1,1,9,0ZM32.44,56.49a1.64,1.64,0,0,0-1.64-1.64,1.56,1.56,0,0,0-1.15.48,1.62,1.62,0,0,0-.47,1.16V66.76a1.59,1.59,0,0,0,.47,1.15,1.56,1.56,0,0,0,1.15.48A1.59,1.59,0,0,0,32,67.91a1.56,1.56,0,0,0,.48-1.15Z"/><polygon class="cls-2" points="42.1 65.13 42.1 71.09 39.27 71.09 39.27 52.29 42.1 52.29 42.1 58.99 45.57 52.29 48.59 52.29 44.71 59.96 49.26 71.09 45.93 71.09 42.95 63.45 42.1 65.13"/><path class="cls-2" d="M54.89,71.33a4.51,4.51,0,0,1-4.5-4.48V56.59a4.49,4.49,0,1,1,9,0v2.15H56.44V56.53A1.56,1.56,0,0,0,56,55.38a1.59,1.59,0,0,0-1.16-.48,1.53,1.53,0,0,0-1.14.48,1.56,1.56,0,0,0-.48,1.15V66.82a1.64,1.64,0,0,0,1.62,1.62A1.59,1.59,0,0,0,56,68a1.53,1.53,0,0,0,.48-1.14V63.13H54.86V60.28h4.51v6.57A4.31,4.31,0,0,1,58.06,70a4.36,4.36,0,0,1-3.17,1.31"/></g></g></svg>