<svg xmlns="http://www.w3.org/2000/svg" viewBox="0 0 39 38.99"><defs><style>.cls-1{fill:#2d202b;}</style></defs><title>icon-instagram</title><g id="Capa_2" data-name="Capa 2"><g id="Layer_1" data-name="Layer 1"><path class="cls-1" d="M19.58,16.85a3.36,3.36,0,1,0,3.36,3.36A3.36,3.36,0,0,0,19.58,16.85Z"/><path class="cls-1" d="M25.06,12.2h-11a2.42,2.42,0,0,0-2.46,2.37V25.86a2.42,2.42,0,0,0,2.46,2.36h11a2.42,2.42,0,0,0,2.46-2.36V14.57A2.42,2.42,0,0,0,25.06,12.2Zm-5.48,13a5,5,0,1,1,5-5A5,5,0,0,1,19.58,25.23ZM25,16.12a1.18,1.18,0,1,1,1.18-1.18A1.17,1.17,0,0,1,25,16.12Z"/><path class="cls-1" d="M19.5,0A19.5,19.5,0,1,0,39,19.5,19.5,19.5,0,0,0,19.5,0Zm9.67,25.86a4.07,4.07,0,0,1-4.11,4h-11a4.07,4.07,0,0,1-4.11-4V14.57a4.07,4.07,0,0,1,4.11-4h11a4.07,4.07,0,0,1,4.11,4Z"/></g></g></svg>