<svg xmlns="http://www.w3.org/2000/svg" viewBox="0 0 106.43 78"><title>icon-grupal</title><g id="Capa_2" data-name="Capa 2"><g id="Layer_1" data-name="Layer 1"><circle cx="34.87" cy="9.84" r="9.84"/><path d="M36.08,55.28a15,15,0,0,1,.37,3.4v.12a16.1,16.1,0,0,1,1.82-2.55,20.84,20.84,0,0,1,8.51-6,12.76,12.76,0,0,1-6.32-11.06,12.62,12.62,0,0,1,6.68-11.17A16.62,16.62,0,0,0,35,22.72a18,18,0,0,0-6.32,1.21,13.44,13.44,0,0,1,1,5,12.92,12.92,0,0,1-6.31,11A19.86,19.86,0,0,1,36.08,55.28Z"/><circle cx="71.56" cy="9.84" r="9.84"/><path d="M83.22,40a12.76,12.76,0,0,1-6.31-11,13.93,13.93,0,0,1,1-5,15.85,15.85,0,0,0-6.32-1.21,17,17,0,0,0-12.15,5.22A12.82,12.82,0,0,1,59.9,50.3,19.7,19.7,0,0,1,68,55.77,21.69,21.69,0,0,1,70,58.44a18.4,18.4,0,0,1,.37-3.77A20,20,0,0,1,83.22,40Z"/><circle cx="53.34" cy="39.36" r="9.84"/><path d="M70,69a16.65,16.65,0,1,0-33.29,0v5.22C40.58,76.66,46.78,78,53.34,78S66.09,76.54,70,74.23Z"/><circle cx="16.64" cy="29.04" r="9.84"/><path d="M33.41,63.79V58.56A16.67,16.67,0,0,0,16.77,41.92,16.87,16.87,0,0,0,0,58.68v5.23c3.89,2.43,10.08,3.76,16.64,3.76S29.4,66.21,33.41,63.79Z"/><circle cx="89.79" cy="29.04" r="9.84"/><path d="M89.79,41.92A16.67,16.67,0,0,0,73.14,58.56v5.23c3.89,2.42,10.08,3.76,16.65,3.76s12.75-1.46,16.64-3.76V58.56A16.74,16.74,0,0,0,89.79,41.92Z"/></g></g></svg>