<?xml version="1.0" encoding="utf-8"?>
<!-- Generator: Adobe Illustrator 21.0.0, SVG Export Plug-In . SVG Version: 6.00 Build 0)  -->
<svg version="1.1" id="Layer_1" xmlns="http://www.w3.org/2000/svg" xmlns:xlink="http://www.w3.org/1999/xlink" x="0px" y="0px"
	 viewBox="0 0 100 125" style="enable-background:new 0 0 100 125;" xml:space="preserve">
<style type="text/css">
	.st0{clip-path:url(#SVGID_2_);fill:none;}
	.st1{clip-path:url(#SVGID_4_);fill:none;}
	.st2{clip-path:url(#SVGID_6_);fill:none;}
	.st3{clip-path:url(#SVGID_8_);fill:none;}
	.st4{clip-path:url(#SVGID_10_);fill:none;}
	.st5{clip-path:url(#SVGID_12_);fill:#FF8212;}
	.st6{clip-path:url(#SVGID_14_);}
	.st7{clip-path:url(#SVGID_16_);}
	.st8{clip-path:url(#SVGID_18_);}
	.st9{clip-path:url(#SVGID_20_);fill:#FF8212;}
	.st10{font-family:'HelveticaNeue-BoldOutline';}
	.st11{font-size:5px;}
</style>
<g>
	<g>
		<defs>
			<rect id="SVGID_1_" x="4" y="4" width="92.1" height="91.8"/>
		</defs>
		<clipPath id="SVGID_2_">
			<use xlink:href="#SVGID_1_"  style="overflow:visible;"/>
		</clipPath>
		<path class="st0" d="M63.6,47.9L63.6,47.9c-1.1,0-2.1-0.8-2.4-1.8c-1.5-1-12.1-8.2-15.6-6.8c3.5-1.3,14.1,5.8,15.6,6.8
			C61.5,47.2,62.5,47.9,63.6,47.9z"/>
	</g>
	<g>
		<defs>
			<rect id="SVGID_3_" x="4" y="4" width="92.1" height="91.8"/>
		</defs>
		<clipPath id="SVGID_4_">
			<use xlink:href="#SVGID_3_"  style="overflow:visible;"/>
		</clipPath>
		<polygon class="st1" points="51.5,73.4 48.9,62.9 48.9,62.9 		"/>
	</g>
	<g>
		<defs>
			<rect id="SVGID_5_" x="4" y="4" width="92.1" height="91.8"/>
		</defs>
		<clipPath id="SVGID_6_">
			<use xlink:href="#SVGID_5_"  style="overflow:visible;"/>
		</clipPath>
		<path class="st2" d="M59.5,73.9C59.5,73.9,59.5,73.9,59.5,73.9c6.5-1.8,12.3-5.4,12.4-9.4l-6.3-17.7c0,0,0,0,0,0l6.3,17.7
			C71.8,68.5,66,72.1,59.5,73.9z"/>
	</g>
	<g>
		<defs>
			<rect id="SVGID_7_" x="4" y="4" width="92.1" height="91.8"/>
		</defs>
		<clipPath id="SVGID_8_">
			<use xlink:href="#SVGID_7_"  style="overflow:visible;"/>
		</clipPath>
		<path class="st3" d="M48.9,62.9l2.6,10.6l0.9-9.6c0-2.7-0.4-3.9-2-4.4v1.8c0,0.2,0,0.4-0.1,0.6C50.1,62.4,49.5,62.9,48.9,62.9z"/>
	</g>
	<g>
		<defs>
			<rect id="SVGID_9_" x="4" y="4" width="92.1" height="91.8"/>
		</defs>
		<clipPath id="SVGID_10_">
			<use xlink:href="#SVGID_9_"  style="overflow:visible;"/>
		</clipPath>
		<path class="st4" d="M61.4,56.2c0,7.7-1.4,14.9-2,17.7c6.5-1.8,12.3-5.4,12.4-9.4l-6.3-17.7c-0.4,0.6-1.2,1.1-2,1.1c0,0,0,0,0,0
			l0,0c-1.1,0-2.1-0.8-2.4-1.8c-1.5-1-12.1-8.2-15.6-6.8c-0.2,0.1-0.4,0.2-0.6,0.4c-1.1,1.1-1.6,3.6-1.6,4.9
			C43.3,50.2,61.2,49.9,61.4,56.2z"/>
	</g>
	<g>
		<defs>
			<rect id="SVGID_11_" x="4" y="4" width="92.1" height="91.8"/>
		</defs>
		<clipPath id="SVGID_12_">
			<use xlink:href="#SVGID_11_"  style="overflow:visible;"/>
		</clipPath>
		<path class="st5" d="M5.1,28.2v24.6c0,0.9,0.7,1.6,1.6,1.6h14.8c-0.9,0-1.6,0.7-1.6,1.6v5.2c0,0.6,0.3,1.1,0.8,1.4
			c-2.3,4.1-4.3,10-4.8,16.4c-0.1,1.1,0.3,2.2,1,3c0.8,0.8,1.8,1.3,2.9,1.3h4.9c1.4,3.9,5.1,6.6,9.3,6.6c4.2,0,7.9-2.7,9.3-6.6h31.8
			l1.8-0.8c0.4,2,1.4,3.8,2.9,5.1c1.7,1.4,3.7,2.2,5.9,2.2c0.2,0,0.4,0,0.6,0c2.4-0.2,4.6-1.3,6.2-3.1c1.6-1.8,2.4-4.2,2.2-6.6
			c-0.1-1.7-0.7-3.2-1.6-4.6l2-0.9L94.8,74c-1.1-2.8-3.2-5-6-6.2C87,67,85,66.7,83.1,66.9l-9-19.3c1,0.7,2.1,1.1,3.4,1.1V37.3
			c-3.1,0-5.5,2.4-5.7,5.4l-1.5-3.3c-0.3-1-1.7-2.8-4.3-2.1c-0.9,0.3-1.6,0.8-2,1.5c-0.7,1.3-0.2,2.6-0.2,2.8l0.5,1.5
			c-0.2-0.1-0.5-0.1-0.7-0.1c-0.2,0-0.4,0-0.5,0.1l0-0.1c-2.1-1.1-12.7-7.8-16.4-13.2c-1.5-2.2-4.9-1.6-4.9-1.6
			c-3.3,0-6.2,1.9-8.3,5v-5c0-0.9-0.7-1.6-1.6-1.6h-25C5.8,26.6,5.1,27.3,5.1,28.2z M48.9,62.9L48.9,62.9c0.7,0,1.2-0.4,1.5-1
			c0.1-0.2,0.1-0.4,0.1-0.6v-1.8c1.6,0.5,1.9,1.7,2,4.4l-0.9,9.6L48.9,62.9C48.9,62.9,48.9,62.9,48.9,62.9z M43.3,44.7
			c0-1.4,0.5-3.8,1.6-4.9c0.2-0.2,0.4-0.3,0.6-0.4c3.5-1.3,14.1,5.8,15.6,6.8c0.3,1,1.2,1.8,2.4,1.8c0.8,0,1.6-0.4,2-1.1l0,0
			c0,0,0,0,0,0l6.3,17.7c-0.1,4-5.9,7.6-12.4,9.4c0,0,0,0,0,0c0,0,0,0,0,0c0.6-2.8,2-10.1,2-17.7C61.2,49.9,43.3,50.2,43.3,44.7z
			 M18.4,39.2c0.1-0.2-2.3-4.4-2.3-4.4l4.5,5.2l-1.8,0.7l3.3,4.8l-6-5.8C16,39.7,18.3,39.4,18.4,39.2z"/>
	</g>
	<g>
		<defs>
			<rect id="SVGID_13_" x="4" y="4" width="92.1" height="91.8"/>
		</defs>
		<clipPath id="SVGID_14_">
			<use xlink:href="#SVGID_13_"  style="overflow:visible;"/>
		</clipPath>
		<path class="st6" d="M48.9,62.9L48.9,62.9c0.7,0,1.2-0.4,1.5-1C50.1,62.4,49.5,62.9,48.9,62.9z"/>
	</g>
	<g>
		<defs>
			<rect id="SVGID_15_" x="4" y="4" width="92.1" height="91.8"/>
		</defs>
		<clipPath id="SVGID_16_">
			<use xlink:href="#SVGID_15_"  style="overflow:visible;"/>
		</clipPath>
		<path class="st7" d="M45,39.7c-1.1,1.1-1.6,3.6-1.6,4.9c0,5.6,17.9,5.2,18.1,11.5c0,7.7-1.4,14.9-2,17.7c0,0,0,0,0,0
			c0.6-2.8,2-10.1,2-17.7c-0.2-6.3-18.1-5.9-18.1-11.5C43.3,43.3,43.9,40.9,45,39.7c0.2-0.2,0.4-0.3,0.6-0.4
			C45.4,39.4,45.2,39.6,45,39.7z"/>
	</g>
	<g>
		<defs>
			<rect id="SVGID_17_" x="4" y="4" width="92.1" height="91.8"/>
		</defs>
		<clipPath id="SVGID_18_">
			<use xlink:href="#SVGID_17_"  style="overflow:visible;"/>
		</clipPath>
		<path class="st8" d="M65.6,46.9L65.6,46.9c-0.4,0.7-1.2,1.1-2,1.1c0,0,0,0,0,0C64.4,47.9,65.2,47.5,65.6,46.9z"/>
	</g>
	<g>
		<defs>
			<rect id="SVGID_19_" x="4" y="4" width="92.1" height="91.8"/>
		</defs>
		<clipPath id="SVGID_20_">
			<use xlink:href="#SVGID_19_"  style="overflow:visible;"/>
		</clipPath>
		<path class="st9" d="M59.6,18c0.2-0.2,0.2-0.5,0.1-0.7c-1.2-4.2-5.1-7.2-9.5-7.2c-5.4,0-9.9,4.4-9.9,9.9c0,2.3,1.3,6.6,5.8,6.6
			c1.9,0,3.3-0.6,4.4-1.8c0.8-1,1.2-2.2,1.4-3.4h2.8c0.3,1.1,1,2.3,1.9,2.3c1.1,0,2-1.8,2-3s-4.1-1.2-4.1,0c0,0.1,0,0.1,0,0.2H52
			c0.1-1,0.1-1.8,0-2.5l7,0C59.2,18.3,59.5,18.2,59.6,18z"/>
	</g>
</g>
<text transform="matrix(1 0 0 1 0 115)" class="st10 st11">Created by Stan Diers</text>
<text transform="matrix(1 0 0 1 0 120)" class="st10 st11">from the Noun Project</text>
</svg>
