<?xml version="1.0" encoding="utf-8"?>
<!-- Generator: Adobe Illustrator 22.0.1, SVG Export Plug-In . SVG Version: 6.00 Build 0)  -->
<svg version="1.1" id="Capa_1" xmlns="http://www.w3.org/2000/svg" xmlns:xlink="http://www.w3.org/1999/xlink" x="0px" y="0px"
	 viewBox="0 0 130.4 117.5" style="enable-background:new 0 0 130.4 117.5;" xml:space="preserve">
<style type="text/css">
	.st0{fill:#373737;}
	.st1{fill:#808080;}
	.st2{fill:#FFFFFF;}
	.st3{fill:#555555;}
	.st4{fill:#C6D534;}
	.st5{fill:#909090;}
	.st6{fill:#404040;}
</style>
<title>icon-coordinacion</title>
<g id="Capa_2_1_">
	<g id="Layer_1">
		<path class="st0" d="M6,37.1c0,0,4.4-5,8.6-0.9c0,0,12.4,20,38.1,0.9c0,0,3.7-4.2,8.5-1.5l1.9,1.2c0,0-14.3,19.9-32.7,16.9
			C30.4,53.6,8.4,50.2,6,37.1"/>
		<path class="st1" d="M6.5,36.8c1.5-0.6,3.8-1,5.8,4.2c0,0,11,18.6,33.5,5.8c4.9-2.5,9.1-6.1,12.3-10.4c0,0,2-2.9,7.3,2.4
			c0,0,10.6,9.6,30.9,16.6c0,0,22.2,3,28.3,6.3c0,0,5.9,5.2,2,11.1c0,0-111.4,12.3-124.3-4.6C1.6,67-0.8,55.5,4.7,39.6
			C4.7,39.6,5.3,37.3,6.5,36.8"/>
		<path class="st2" d="M8.4,38.2c0.3,1.1,0.7,2.2,1.3,3.2c0.6,1,1.2,2,1.9,2.9c0.7,0.9,1.5,1.8,2.3,2.6c0.8,0.8,1.7,1.5,2.6,2.2
			c0.9,0.7,1.8,1.3,2.8,1.8c0.5,0.3,1,0.5,1.5,0.7c0.5,0.2,1,0.4,1.6,0.5c1.1,0.3,2.2,0.6,3.3,0.7c0.5,0.1,1.1,0.1,1.7,0.2
			s1.1,0.1,1.7,0.1c0.5,0,1.1,0,1.7-0.1c0.6-0.1,1.2-0.1,1.7-0.1c1.1-0.1,2.2-0.3,3.3-0.5c1.1-0.2,2.2-0.5,3.3-0.9l1.6-0.6l1.6-0.6
			c1.1-0.5,2.1-0.9,3.2-1.4c1.1-0.5,2.1-1,3.1-1.5l1.5-0.8l1.5-0.9c0.9-0.5,1.7-1.2,2.4-2l-0.1,0.2c0.1-0.2,0.2-0.4,0.3-0.5
			c0.1-0.2,0.2-0.3,0.4-0.4c0.3-0.3,0.7-0.5,1.1-0.5c0.4-0.1,0.8,0,1.1,0.1c0.2,0,0.3,0.1,0.5,0.2c0.1,0.1,0.3,0.1,0.4,0.2
			c0.2,0.1,0.5,0.3,0.7,0.5c0.2,0.2,0.4,0.3,0.6,0.5c0.4,0.4,0.7,0.7,1,1.1l-0.2-0.2c1.3,0.8,2.6,1.7,4,2.4c1.4,0.8,2.7,1.5,4.1,2.3
			c2.7,1.5,5.5,2.9,8.4,4.2s5.8,2.4,8.7,3.4c3,1,6,1.8,9.1,2.4v0.1c-6.3-0.9-12.4-2.7-18.1-5.2c-2.9-1.2-5.8-2.6-8.6-4
			c-2.8-1.5-5.5-3-8.2-4.7l0,0l0,0c-0.3-0.3-0.6-0.7-1-1c-0.2-0.2-0.3-0.3-0.5-0.5c-0.2-0.1-0.4-0.3-0.6-0.4
			c-0.4-0.2-0.8-0.3-1.3-0.3c-0.4,0.1-0.8,0.4-1,0.8l0,0l0,0C53.9,45.2,53,46,52,46.6c-1,0.6-2,1.2-3,1.8c-1,0.6-2.1,1-3.2,1.5
			c-1.1,0.5-2.1,1-3.2,1.4L41,51.9l-1.7,0.6c-1.1,0.4-2.2,0.7-3.4,0.9c-1.1,0.2-2.3,0.4-3.5,0.5c-1.2,0.1-2.3,0.2-3.5,0.2
			c-0.6,0-1.2-0.1-1.8-0.1c-0.6,0-1.2-0.1-1.7-0.2c-1.1-0.2-2.3-0.5-3.4-0.9c-0.6-0.2-1.1-0.4-1.6-0.6c-0.5-0.2-1.1-0.5-1.6-0.8
			c-1-0.6-2-1.2-2.9-2c-0.9-0.7-1.8-1.5-2.6-2.4c-0.8-0.9-1.5-1.8-2.2-2.7c-0.7-1-1.3-2-1.8-3c-0.6-1-1-2.1-1.2-3.2L8.4,38.2z"/>
		<path class="st3" d="M64.3,47.6c0,1.2-0.9,2.2-2.1,2.3c-1.2,0-2.2-0.9-2.3-2.1c0-1.2,0.9-2.2,2.1-2.3c0,0,0,0,0.1,0
			C63.3,45.5,64.2,46.4,64.3,47.6"/>
		<path class="st0" d="M64.7,47.5c0,1.2-0.9,2.2-2.1,2.2c-1.2,0-2.2-0.9-2.2-2.1c0-1.2,0.9-2.2,2.1-2.2c0,0,0,0,0.1,0
			C63.7,45.3,64.7,46.3,64.7,47.5C64.7,47.4,64.7,47.4,64.7,47.5"/>
		<path class="st3" d="M59.5,43.5c0,1.2-0.9,2.2-2.1,2.2s-2.2-0.9-2.2-2.1c0-1.2,0.9-2.2,2.1-2.2c0,0,0,0,0.1,0
			C58.5,41.3,59.4,42.3,59.5,43.5C59.4,43.5,59.5,43.5,59.5,43.5"/>
		<path class="st0" d="M59.9,43.3c0,1.2-0.9,2.2-2.1,2.2c-1.2,0-2.2-0.9-2.2-2.1c0-1.2,0.9-2.2,2.1-2.2c0,0,0,0,0.1,0
			C58.9,41.1,59.9,42.1,59.9,43.3C59.9,43.3,59.9,43.3,59.9,43.3"/>
		<path class="st3" d="M70.5,50.9c0,1.2-0.9,2.2-2.1,2.2c-1.2,0-2.2-0.9-2.2-2.1c0-1.2,0.9-2.2,2.1-2.2c0,0,0,0,0.1,0
			C69.5,48.7,70.5,49.7,70.5,50.9C70.5,50.9,70.5,50.9,70.5,50.9"/>
		<path class="st0" d="M71,50.7c0,1.2-0.9,2.2-2.1,2.2c-1.2,0-2.2-0.9-2.2-2.1c0-1.2,0.9-2.2,2.1-2.2c0,0,0,0,0.1,0
			C70,48.6,71,49.5,71,50.7C71,50.7,71,50.7,71,50.7"/>
		<path class="st3" d="M76.4,53.1c0,1.2-0.9,2.2-2.1,2.3c-1.2,0-2.2-0.9-2.3-2.1c0-1.2,0.9-2.2,2.1-2.3c0,0,0.1,0,0.1,0
			C75.4,51,76.4,51.9,76.4,53.1C76.4,53.1,76.4,53.1,76.4,53.1"/>
		<path class="st0" d="M76.9,52.9c0,1.2-0.9,2.2-2.1,2.2c-1.2,0-2.2-0.9-2.2-2.1c0-1.2,0.9-2.2,2.1-2.2c0,0,0,0,0.1,0
			C75.9,50.8,76.9,51.7,76.9,52.9C76.9,52.9,76.9,52.9,76.9,52.9"/>
		<path class="st3" d="M82.4,55.3c0,1.2-0.9,2.2-2.1,2.2c-1.2,0-2.2-0.9-2.2-2.1c0-1.2,0.9-2.2,2.1-2.2c0,0,0,0,0.1,0
			C81.4,53.2,82.4,54.1,82.4,55.3C82.4,55.3,82.4,55.3,82.4,55.3"/>
		<path class="st0" d="M82.9,55.1c0,1.2-0.9,2.2-2.1,2.2s-2.2-0.9-2.2-2.1c0-1.2,0.9-2.2,2.1-2.2c0,0,0,0,0,0
			C81.9,53,82.9,53.9,82.9,55.1C82.9,55.1,82.9,55.1,82.9,55.1"/>
		<path class="st3" d="M89.9,77.5c0,1.2-0.9,2.2-2.1,2.3s-2.2-0.9-2.3-2.1s0.9-2.2,2.1-2.3c0,0,0.1,0,0.1,0
			C88.9,75.4,89.9,76.4,89.9,77.5C89.9,77.5,89.9,77.5,89.9,77.5"/>
		<path class="st0" d="M90.4,77.4c0,1.2-0.9,2.2-2.1,2.2c-1.2,0-2.2-0.9-2.2-2.1c0-1.2,0.9-2.2,2.1-2.2c0,0,0,0,0.1,0
			C89.4,75.2,90.4,76.2,90.4,77.4C90.4,77.4,90.4,77.4,90.4,77.4"/>
		<path class="st2" d="M64,48.3c0.5-0.8,1.1-1.5,1.8-2c0.9-0.9,1.9-1.8,3-2.5c0.3-0.2,0.7-0.4,1-0.6c0.2-0.1,0.3-0.2,0.5-0.2
			c0.2,0,0.4-0.1,0.5-0.2c0,0,0.4-2.2-2-1.4c0,0-5.9,1.7-7.1,4.5c-0.1,0.3-0.2,0.6-0.2,0.9c-0.1,0.6,0.2,1.2,0.7,1.5
			c0.3,0.2,0.7,0.3,1.1,0.3C63.3,48.6,63.9,48.7,64,48.3"/>
		<path class="st2" d="M59,44.6c0.5-0.8,1.1-1.6,1.9-2.1c0.9-1,2-1.9,3.1-2.6c0.3-0.2,0.7-0.4,1-0.6c0.2-0.1,0.3-0.2,0.5-0.3
			c0.2-0.1,0.4-0.1,0.5-0.2c0,0,0.4-2.3-2.1-1.5c0,0-6.1,1.8-7.4,4.8c-0.1,0.3-0.2,0.7-0.2,1c-0.1,0.6,0.2,1.2,0.8,1.5
			c0.4,0.2,0.7,0.3,1.2,0.3C58.3,44.9,58.9,45,59,44.6"/>
		<path class="st2" d="M69.7,51.8c0.5-0.8,1.1-1.5,1.8-2c0.9-0.9,1.9-1.8,3-2.5c0.3-0.2,0.7-0.4,1-0.6c0.2-0.1,0.3-0.2,0.5-0.2
			c0.2,0,0.4-0.1,0.5-0.2c0,0,0.3-2.2-2-1.4c0,0-5.9,1.7-7.1,4.5c-0.1,0.3-0.2,0.6-0.2,0.9c-0.1,0.6,0.2,1.2,0.7,1.4
			c0.3,0.2,0.7,0.3,1.1,0.3C69.1,52,69.7,52.1,69.7,51.8"/>
		<path class="st2" d="M80.7,49.4c0.2-0.1,0.3-0.2,0.4-0.2c0.2-0.1,0.4-0.1,0.6-0.2c0,0,0.4-2.2-2-1.4c0,0-4.8,1.2-6.1,4
			c-0.1,0.3-0.2,0.6-0.2,0.9c-0.1,0.6,0.2,1.2,0.7,1.5c0.3,0.2,0.7,0.3,1.1,0.3c0,0,0.6,0,0.7-0.3c0.3-0.8,0.9-1.6,1.5-2.2
			C78.4,50.8,79.5,50,80.7,49.4"/>
		<path class="st2" d="M85.8,52c0.2-0.1,0.3-0.1,0.4-0.2c0.2-0.1,0.4-0.1,0.6-0.2c0,0,0.3-2.3-2-1.4c0,0-4.4,1-5.7,3.8
			c-0.1,0.3-0.2,0.6-0.2,0.9c-0.1,0.6,0.2,1.2,0.7,1.5c0.3,0.2,0.7,0.3,1.1,0.3c0,0,0.6,0,0.7-0.3c0.3-0.8,0.9-1.6,1.5-2.2
			C83.8,53.3,84.7,52.5,85.8,52"/>
		<path class="st2" d="M92.4,74.9c0.2-0.1,0.3-0.2,0.4-0.2c0.2-0.1,0.4-0.1,0.6-0.2c0,0,0.4-2.2-2-1.4c0,0-3.6,0.5-4.8,3.4
			c-0.1,0.3-0.2,0.6-0.2,0.9c-0.1,0.6,0.2,1.2,0.7,1.5c0.3,0.2,0.7,0.3,1.1,0.3c0,0,0.6,0,0.7-0.3c0.3-0.9,0.7-1.8,1.3-2.5
			C90.9,75.7,91.6,75.2,92.4,74.9"/>
		<path class="st4" d="M92.2,79.7c0,0,13-0.7,7.5-4c0,0,16.4,2.7,22.7,4.9c0,0,0,8.9-21.5,3.8C100.8,84.4,86.5,82.2,92.2,79.7"/>
		<path class="st5" d="M3.5,43.3c0,0,9.6,29.6,47.6,10c0,0,6.1-3.3,7.5-5.3c0.4,0.7,1,1.3,1.7,1.7c0,0-23.2,23.2-48.6,8.3
			C11.7,58,1.5,52.2,3.5,43.3"/>
		<path class="st2" d="M1.9,51.4c0,0,15.1,27.1,50.8,8.1c0,0,9.4-4.9,10-8.5c8.9,6.8,19.6,10.9,30.8,11.7c0,0-20.3-1.5-30.8-7.5
			C62.7,55.2,23.9,84.7,1.9,51.4"/>
		<path class="st4" d="M3.3,69L55,78.5l31.8,0.8l13.3-4.1l11.2-1.1l9.5-1c0,0-8.2-8.3-25.1-7.1c-0.5,0-27.9-1.3-33-7.9
			c0,0-23.8,16.6-48.5,8C14.3,66.1,6.4,62.6,3.3,69"/>
		<path class="st2" d="M2,66.7c0,0,9.6,5.6,28.6,5.6s2,0,2,0s19.2-2,29.4,0c0,0,39.4,5,62.8-1.8v8.5l-30.6,7.4c0,0-28-3.6-29.5-3.9
			s-14.1,2.9-14.1,2.9l-38.8-0.4L2.2,81C2.2,81-1.1,70.7,2,66.7"/>
		<path class="st6" d="M119.9,83.9c-33.4,6-60.8-0.2-60.8-0.2c-26.5,6.2-54.5,0-54.5,0c-8.5-7.5-2.6-17-2.6-17
			c-5,10.8,4.6,14.1,4.6,14.1c28,7.2,55.4-0.7,55.4-0.7c39.9,10.1,59.9-4.9,59.9-4.9c-0.5-7.5,6-8.5,6-8.5c4.1,0,3,10.3-1.2,13.3
			C124.8,81.8,122.5,83.2,119.9,83.9"/>
		<path class="st1" d="M64,37.3c-6.3-9.4-13.8-5.5-13.8-5.5C42.5,35.6,55.5,42,55.5,42S58.3,35.9,64,37.3"/>
		<path class="st0" d="M50.9,31.8c1.1-0.5,2.3-0.8,3.5-0.8c-1.4-0.1-2.8,0.2-4.2,0.8C42.5,35.6,55.5,42,55.5,42s0-0.1,0.1-0.3
			C53.3,40.5,44.1,35.1,50.9,31.8"/>
	</g>
</g>
</svg>
