<svg xmlns="http://www.w3.org/2000/svg" viewBox="0 0 130.38 55.48"><defs><style>.cls-1{fill:#373737;}.cls-2{fill:gray;}.cls-3{fill:#fff;}.cls-4{fill:#555;}.cls-5{fill:#c6d534;}.cls-6{fill:#909090;}.cls-7{fill:#404040;}</style></defs><title>icon-coordinacion</title><g id="Capa_2" data-name="Capa 2"><g id="Layer_1" data-name="Layer 1"><path class="cls-1" d="M6,6.11s4.39-4.95,8.58-.88c0,0,12.38,20,38.08.88,0,0,3.65-4.23,8.51-1.55l1.92,1.2S48.76,25.61,30.44,22.61c0,0-22.08-3.46-24.4-16.5"/><path class="cls-2" d="M6.52,5.79C8,5.16,10.34,4.77,12.3,10c0,0,11,18.63,33.52,5.81A35.35,35.35,0,0,0,58.15,5.36s2-2.93,7.34,2.4c0,0,10.58,9.56,30.93,16.57,0,0,22.23,3,28.32,6.25,0,0,5.89,5.18,2,11.11,0,0-111.39,12.35-124.31-4.62C1.6,36-.77,24.46,4.67,8.57c0,0,.67-2.28,1.85-2.78"/><path class="cls-3" d="M8.44,7.2a10.53,10.53,0,0,0,1.31,3.18,23,23,0,0,0,1.92,2.86A26.61,26.61,0,0,0,14,15.82a31.81,31.81,0,0,0,2.56,2.24,19.13,19.13,0,0,0,2.83,1.82,13.07,13.07,0,0,0,1.55.7,13.38,13.38,0,0,0,1.58.55,23,23,0,0,0,3.29.74c.55.08,1.11.13,1.67.19s1.12.07,1.67.06,1.08,0,1.68-.06S32,22,32.5,21.93c1.11-.12,2.22-.29,3.33-.52a31.41,31.41,0,0,0,3.25-.91l1.6-.58,1.58-.65c1.06-.45,2.09-.92,3.16-1.41s2.1-1,3.08-1.48L50,15.55l1.46-.91a9.26,9.26,0,0,0,2.36-2l-.12.21a3,3,0,0,1,.3-.52,1.93,1.93,0,0,1,.39-.42,2.21,2.21,0,0,1,1.08-.54,2.47,2.47,0,0,1,1.13.06,2.16,2.16,0,0,1,.47.16,2.6,2.6,0,0,1,.41.2,4.54,4.54,0,0,1,.7.48,6.38,6.38,0,0,1,.61.52c.39.36.71.74,1,1.12l-.2-.18c1.28.84,2.63,1.66,4,2.44s2.72,1.55,4.1,2.28c2.74,1.51,5.54,2.92,8.4,4.2s5.78,2.41,8.74,3.44a57.73,57.73,0,0,0,9.11,2.35v.11a70.14,70.14,0,0,1-18.14-5.21q-4.35-1.83-8.55-4c-2.79-1.46-5.54-3-8.21-4.71h0l0,0c-.31-.34-.62-.7-1-1a5.72,5.72,0,0,0-.53-.45,5.23,5.23,0,0,0-.57-.39,2.08,2.08,0,0,0-1.29-.29,1.37,1.37,0,0,0-1,.81v0h0A10.09,10.09,0,0,1,52,15.58c-1,.63-2,1.24-3,1.8s-2.1,1-3.16,1.49-2.12.95-3.19,1.4l-1.62.65-1.65.58a32.33,32.33,0,0,1-3.38.9,28.69,28.69,0,0,1-3.45.51,33.83,33.83,0,0,1-3.49.16c-.59,0-1.17-.06-1.75-.09s-1.16-.14-1.73-.24a24.36,24.36,0,0,1-3.39-.85,13.48,13.48,0,0,1-1.64-.62A12.62,12.62,0,0,1,19,20.51a19.61,19.61,0,0,1-2.9-2,26.14,26.14,0,0,1-2.55-2.39,30.22,30.22,0,0,1-2.21-2.7,24.41,24.41,0,0,1-1.83-3A10.67,10.67,0,0,1,8.33,7.22Z"/><path class="cls-4" d="M64.26,16.63a2.19,2.19,0,1,1-2.19-2.12,2.16,2.16,0,0,1,2.19,2.12"/><path class="cls-1" d="M64.7,16.45a2.19,2.19,0,1,1-2.19-2.13,2.16,2.16,0,0,1,2.19,2.13"/><path class="cls-4" d="M59.45,12.47a2.19,2.19,0,1,1-2.19-2.13,2.16,2.16,0,0,1,2.19,2.13"/><path class="cls-1" d="M59.88,12.28a2.19,2.19,0,1,1-2.19-2.13,2.16,2.16,0,0,1,2.19,2.13"/><path class="cls-4" d="M70.51,19.89a2.19,2.19,0,1,1-2.19-2.13,2.16,2.16,0,0,1,2.19,2.13"/><path class="cls-1" d="M71,19.7a2.19,2.19,0,1,1-2.19-2.13A2.16,2.16,0,0,1,71,19.7"/><path class="cls-4" d="M76.43,22.11A2.19,2.19,0,1,1,74.24,20a2.16,2.16,0,0,1,2.19,2.13"/><path class="cls-1" d="M76.87,21.92a2.19,2.19,0,1,1-2.19-2.13,2.16,2.16,0,0,1,2.19,2.13"/><path class="cls-4" d="M82.43,24.33a2.19,2.19,0,1,1-2.19-2.13,2.16,2.16,0,0,1,2.19,2.13"/><path class="cls-1" d="M82.87,24.14A2.19,2.19,0,1,1,80.68,22a2.16,2.16,0,0,1,2.19,2.13"/><path class="cls-4" d="M89.93,46.54a2.19,2.19,0,1,1-2.18-2.12,2.15,2.15,0,0,1,2.18,2.12"/><path class="cls-1" d="M90.37,46.36a2.19,2.19,0,1,1-2.19-2.13,2.16,2.16,0,0,1,2.19,2.13"/><path class="cls-3" d="M64,17.31a6.71,6.71,0,0,1,1.77-2,17.1,17.1,0,0,1,3-2.5,10,10,0,0,1,1-.58,4.9,4.9,0,0,1,.52-.24,2.26,2.26,0,0,0,.52-.21s.36-2.24-2-1.41c0,0-5.88,1.73-7.09,4.55a2.36,2.36,0,0,0-.2.91,1.49,1.49,0,0,0,.73,1.48,2.28,2.28,0,0,0,1.1.29s.55.05.67-.26"/><path class="cls-3" d="M59,13.59a7.1,7.1,0,0,1,1.86-2.13,17.72,17.72,0,0,1,3.13-2.6,9.91,9.91,0,0,1,1-.61c.17-.09.35-.17.54-.25a3,3,0,0,0,.54-.22S66.44,5.44,64,6.3c0,0-6.14,1.82-7.41,4.75a2.72,2.72,0,0,0-.21,1,1.56,1.56,0,0,0,.77,1.54,2.35,2.35,0,0,0,1.15.31s.57.05.69-.27"/><path class="cls-3" d="M69.74,20.78a6.71,6.71,0,0,1,1.77-2,17.1,17.1,0,0,1,3-2.5,10,10,0,0,1,1-.58c.17-.09.34-.16.52-.24a2.26,2.26,0,0,0,.52-.21s.35-2.24-2-1.41c0,0-5.88,1.73-7.1,4.54a2.65,2.65,0,0,0-.19.92A1.45,1.45,0,0,0,68,20.74a2.19,2.19,0,0,0,1.1.3s.55.05.67-.26"/><path class="cls-3" d="M80.65,18.36c.17-.08.25-.15.43-.22a3.76,3.76,0,0,0,.6-.23s.36-2.24-2-1.42c0,0-4.85,1.21-6.07,4a2.92,2.92,0,0,0-.2.92,1.48,1.48,0,0,0,.74,1.47,2.26,2.26,0,0,0,1.1.3s.55.05.66-.26a6.64,6.64,0,0,1,1.5-2.23,14.37,14.37,0,0,1,3.26-2.35"/><path class="cls-3" d="M85.75,21c.18-.07.26-.14.43-.22a3.92,3.92,0,0,0,.61-.22s.35-2.25-2-1.42c0,0-4.43,1-5.65,3.81a2.65,2.65,0,0,0-.19.92,1.45,1.45,0,0,0,.73,1.47,2.29,2.29,0,0,0,1.1.3s.55.05.67-.26a6.6,6.6,0,0,1,1.5-2.23A10.23,10.23,0,0,1,85.75,21"/><path class="cls-3" d="M92.44,43.87c.17-.07.26-.15.43-.22a3.42,3.42,0,0,0,.6-.23s.36-2.24-2-1.41c0,0-3.61.55-4.83,3.36a2.86,2.86,0,0,0-.2.92,1.47,1.47,0,0,0,.74,1.47,2.26,2.26,0,0,0,1.1.3s.55,0,.66-.26a7.19,7.19,0,0,1,1.28-2.51,7.76,7.76,0,0,1,2.23-1.42"/><path class="cls-5" d="M92.21,48.67s13-.68,7.5-4c0,0,16.4,2.73,22.65,4.89,0,0,0,8.92-21.52,3.79,0,0-14.38-2.13-8.63-4.69"/><path class="cls-6" d="M3.55,12.28s9.63,29.56,47.6,10c0,0,6.11-3.32,7.48-5.26a4.61,4.61,0,0,0,1.69,1.72S37.13,41.93,11.68,27c0,0-10.21-5.79-8.13-14.74"/><path class="cls-3" d="M1.87,20.42S16.93,47.49,52.7,28.48c0,0,9.37-4.87,10-8.5A57.74,57.74,0,0,0,93.49,31.7s-20.33-1.51-30.77-7.47c0,0-38.78,29.47-60.85-3.81"/><path class="cls-5" d="M3.27,38,55,47.45l31.81.83,13.33-4.1,11.17-1.07,9.5-1S112.63,33.79,95.71,35c-.48,0-27.88-1.26-33-7.93,0,0-23.78,16.56-48.45,8,0,0-7.82-3.52-11,3"/><path class="cls-3" d="M2,35.69s9.58,5.56,28.58,5.58,2,0,2,0,19.19-2,29.36,0c0,0,39.39,5,62.79-1.85v8.49L94.11,55.3s-28-3.59-29.51-3.91-14.07,2.89-14.07,2.89l-38.85-.37L2.24,50S-1.06,39.68,2,35.69"/><path class="cls-7" d="M119.93,52.85c-33.37,6-60.83-.16-60.83-.16-26.51,6.19-54.52,0-54.52,0-8.5-7.49-2.57-17-2.57-17C-3,46.51,6.59,49.76,6.59,49.76c28,7.17,55.36-.65,55.36-.65,39.85,10.1,59.93-4.93,59.93-4.93-.5-7.49,6-8.49,6-8.49,4.06,0,3,10.34-1.2,13.34a15.61,15.61,0,0,1-6.7,3.82"/><path class="cls-2" d="M64,6.3C57.74-3.12,50.23.81,50.23.81,42.52,4.56,55.51,11,55.51,11S58.28,4.93,64,6.3"/><path class="cls-1" d="M50.87.81A9,9,0,0,1,54.38,0a9.15,9.15,0,0,0-4.15.8C42.52,4.56,55.51,11,55.51,11s0-.09.13-.26C53.31,9.49,44.1,4.11,50.87.81"/></g></g></svg>