<svg xmlns="http://www.w3.org/2000/svg" viewBox="0 0 67.33 80.42"><defs><style>.cls-1{fill:#2d202b;}</style></defs><title>icon-calentamiento</title><g id="Capa_2" data-name="Capa 2"><g id="Layer_1" data-name="Layer 1"><path class="cls-1" d="M21.24,19.52A9.76,9.76,0,1,1,31,9.77,9.76,9.76,0,0,1,21.24,19.52Z"/><path class="cls-1" d="M62.27,71.33s-21.16-.87-26.2-18.52c-2-7.07-1.78-16.43-1.77-22.14l7.23,3.09L35.76,42.9a4.11,4.11,0,1,0,7,4.39l8.34-13.22a4.06,4.06,0,0,0,.45-3.41,4.12,4.12,0,0,0-2.31-2.57L29.74,19.9a6.4,6.4,0,0,0-6,1.13c-6.6,5.23-5.71,17.81-4.35,25.72H4.79a5,5,0,0,0-4.79,5V75.63a4.8,4.8,0,0,0,9.59,0V57.76H23c12,25.47,39.4,22.31,39.4,22.31,2.64,0,4.91-1.48,4.91-4.12C67.33,73,64.92,71.33,62.27,71.33Z"/></g></g></svg>