<svg xmlns="http://www.w3.org/2000/svg" viewBox="0 0 132.78 94.31"><defs><style>.cls-1{fill:#fff;}.cls-2{fill:#2d202b;}</style></defs><title>icon-resistencia</title><g id="Capa_2" data-name="Capa 2"><g id="Layer_1" data-name="Layer 1"><path class="cls-1" d="M66.39,94.31c20.17-11.53,38.85-28.79,49-49.89a41.46,41.46,0,0,0,3.9-24.13C118,11.39,108.74,3,100.13.73,86.48-2.82,71.3,7.05,66.39,19.81,61.48,7.05,46.3-2.82,32.65.73,24,3,14.82,11.39,13.45,20.29a41.46,41.46,0,0,0,3.9,24.13c10.19,21.1,28.87,38.36,49,49.89"/><polygon class="cls-2" points="63.14 76.4 56.87 33.66 51.66 48.79 0 48.79 0 45.52 49.33 45.52 58.15 19.87 63.95 59.42 68.98 39.04 73.68 53.52 77.16 42.9 132.78 42.9 132.78 46.17 79.53 46.17 73.67 64.07 69.41 50.97 63.14 76.4"/></g></g></svg>