<svg xmlns="http://www.w3.org/2000/svg" viewBox="0 0 42.12 32.69"><defs><style>.cls-1{fill:#ade500;}</style></defs><title>icon-quote-close</title><g id="Capa_2" data-name="Capa 2"><g id="Layer_1" data-name="Layer 1"><path class="cls-1" d="M30.42,32.69l-6.24-5.1C27.81,25.65,32,20.89,33,16.8a5.89,5.89,0,0,1-2.27.34C26.45,17.14,23,13.85,23,9a9.06,9.06,0,0,1,9-9c5.34,0,10.11,4.2,10.11,11.58C42.12,20.09,37.46,27.7,30.42,32.69Zm-23.15,0L1,27.59c3.64-1.94,8-6.7,8.86-10.79a5.58,5.58,0,0,1-2.28.34C3.29,17.14,0,13.85,0,9A9,9,0,0,1,8.86,0C14.19,0,19,4.2,19,11.58,19,20.09,14.3,27.7,7.27,32.69Z"/></g></g></svg>