<svg xmlns="http://www.w3.org/2000/svg" viewBox="0 0 60.28 78.8"><defs><style>.cls-1{fill:#2d202b;}</style></defs><title>icon-lesiones</title><g id="Capa_2" data-name="Capa 2"><g id="Layer_1" data-name="Layer 1"><path class="cls-1" d="M45.05,52.51c-.58-2.64-2.65-4.38-5.37-5.62a4,4,0,0,0,2.06-1.48,4.1,4.1,0,0,0-.91-5.71c-3.3-2.39-7.11-5.87-8.26-7.93a14,14,0,0,1,.91-1.41c1.32-2,3.05-4.46,2.23-7.44-.33-1.15-2.56-3.14-4.22-4.21a10,10,0,0,0-6.11-1.82C22.07,17.3,12.56,30,11.65,48.13c-.16,3.14,1.58,8.93,6.53,20.92H4.79a4.79,4.79,0,0,0,0,9.58H22.57A6.63,6.63,0,0,0,28,75.74a6.45,6.45,0,0,0,.58-6.12l-.25-.49c-3.06-7.36-4.88-12.15-6-15.21a5.19,5.19,0,0,0,1.65.25c4.63,0,10.09.74,12,1.65.83,4.13,2.56,14.8,3.22,18.93a4.8,4.8,0,0,0,4.71,4,2.4,2.4,0,0,0,.75-.08,4.79,4.79,0,0,0,4-5.46C48.52,72.35,46,56.65,45.05,52.51Zm-18.76-8,2.06-4.8a50.81,50.81,0,0,0,6.28,5.71A45.6,45.6,0,0,0,26.29,44.5Z"/><circle class="cls-1" cx="37.52" cy="9.18" r="9.17"/><path class="cls-1" d="M47.36,45.24l1.9-4.55,2.48,1.74a.42.42,0,0,0,.67-.25l2.56-7a.4.4,0,0,0-.17-.5l-2.64-1.82a.42.42,0,0,0-.66.25L50.42,37.8l-2.31-1.65a.43.43,0,0,0-.66.33l-.83,8.6C46.45,45.57,47.2,45.74,47.36,45.24Z"/><path class="cls-1" d="M58.94,43.34a.5.5,0,0,0-.5-.25L51,44.41a.53.53,0,0,0-.33.67L52,47.8,47.2,48.88a.41.41,0,0,0,.08.82l8.6.67a.46.46,0,0,0,.41-.67l-1.24-2.56,4.79-.33c.34,0,.5-.33.42-.66Z"/></g></g></svg>