<svg xmlns="http://www.w3.org/2000/svg" viewBox="0 0 60.77 117.87"><defs><style>.cls-1{fill:#ace400;}.cls-2{fill:#2d202b;}.cls-3{fill:#fff;}.cls-4{fill:#231f20;}</style></defs><title>icon-velocidad</title><g id="Capa_2" data-name="Capa 2"><g id="Layer_1" data-name="Layer 1"><rect class="cls-1" y="24.73" width="60.77" height="68.42" rx="8.58" ry="8.58"/><rect class="cls-2" x="3.85" y="29.06" width="53.08" height="59.75" rx="7.49" ry="7.49"/><polygon class="cls-1" points="7.06 17.62 7.07 24.73 51.89 24.73 51.89 17.68 7.06 17.62"/><path class="cls-1" d="M47.72,21.18a1.38,1.38,0,0,1-1.38,1.38H12a1.39,1.39,0,1,1,0-2.77h34.3a1.38,1.38,0,0,1,1.38,1.39"/><path class="cls-1" d="M11.85,17.84S13.9,13.74,15,5.09A5.06,5.06,0,0,1,19.54,0H38.46s3.4-.27,4.72,3.93c0,0,1.4,11.32,3.85,13.91Z"/><polygon class="cls-1" points="51.89 100.25 51.89 93.14 7.06 93.14 7.06 100.19 51.89 100.25"/><path class="cls-1" d="M11.23,96.7a1.38,1.38,0,0,1,1.38-1.38H46.92a1.38,1.38,0,0,1,0,2.76H12.61a1.38,1.38,0,0,1-1.38-1.38"/><path class="cls-1" d="M47.11,100s-2,4.1-3.19,12.75a5,5,0,0,1-4.51,5.09H20.5s-3.4.27-4.73-3.93c0,0-1.4-11.32-3.84-13.91Z"/><path class="cls-3" d="M50.92,59.88A20.53,20.53,0,1,1,30.39,39.35,20.53,20.53,0,0,1,50.92,59.88"/><path class="cls-1" d="M29.45,80.38q.59,0,1.17,0c.4,0-.07,0,.31,0V71.91H29.45Z"/><path class="cls-1" d="M31.13,39.39c-.39,0-.78,0-1.18,0s.08,0-.31,0v8.47h1.49Z"/><path class="cls-1" d="M50.9,59.57H42.43l0,1.49h8.47c0-.39,0-.78,0-1.18s0,.08,0-.31"/><path class="cls-1" d="M9.88,61.06h8.46l0-1.49H9.9c0,.39,0,.78,0,1.18s0-.08,0,.31"/><path d="M18.22,76.42a5,5,0,0,0,.93.64l3.23-5.15-.86-.56Z"/><path d="M42.55,43.35a5.2,5.2,0,0,0-.95-.66l-3.2,5.17.86.55Z"/><path d="M17.21,65.93l-5.28,2.95a4.91,4.91,0,0,0,.52,1l5.29-3Z"/><path d="M43.56,53.84l5.28-3a4,4,0,0,0-.47-.89l-5.26,3Z"/><path d="M42.52,67.82l5.31,2.88a4.3,4.3,0,0,0,.55-.93L43,67Z"/><path d="M18.25,52l-5.31-2.89a4.8,4.8,0,0,0-.54.93l5.34,2.89Z"/><path d="M37.45,72.54l3.37,5a5,5,0,0,0,1-.62l-3.41-5Z"/><path d="M23.32,47.22,20,42.2a3.59,3.59,0,0,0-.79.49l3.45,5Z"/><path class="cls-4" d="M33.41,59.91a3.22,3.22,0,1,1-3.22-3.2,3.21,3.21,0,0,1,3.22,3.2"/><polygon class="cls-4" points="35.56 41.84 29.64 57.07 30.59 57.47 35.56 41.84"/><polygon class="cls-4" points="41.81 60.18 32.39 59.12 32.39 60.86 41.81 60.18"/></g></g></svg>