<svg xmlns="http://www.w3.org/2000/svg" viewBox="0 0 78 78"><defs><style>.cls-1{fill:#2d202b;}.cls-2{fill:#fff;}</style></defs><title>icon-ejercicios-pelota</title><g id="Capa_2" data-name="Capa 2"><g id="Layer_1" data-name="Layer 1"><circle class="cls-1" cx="39" cy="39" r="39"/><path class="cls-2" d="M40,0A38.53,38.53,0,0,1,61.27,7h-10Zm-4.39.1L26.86,4.9,22.22,3.76A39,39,0,0,1,35.62.11Zm-16.06,5,6.56,1.66,1.88,14L22.36,32,9.5,33.88,6,28.64,5.6,18.89A39.21,39.21,0,0,1,19.56,5.11ZM51.77,9H63.93a39,39,0,0,1,11.3,15.52l-.07,0L68.53,35.83,53.76,32.14,49,21.12ZM29.63,22H47l5,11L44.4,48H31.65L24.14,33Zm46.45,4.89a39.44,39.44,0,0,1-1,27L70,50.43V37.25ZM4.47,30,8,35.26v17L3,54A39,39,0,0,1,1.07,30Zm27,20H44.55l7.33,9.24L48.3,69.92,29.59,68l-5.35-9ZM69,52.13l5.31,3.54A39.25,39.25,0,0,1,51.7,75.87L50.07,71l3.79-11.27ZM9,54l13.36,5.74,5.56,9.28L24.77,75.3a38.89,38.89,0,0,1-21-19.52Z"/></g></g></svg>