<svg xmlns="http://www.w3.org/2000/svg" viewBox="0 0 42.12 32.69"><defs><style>.cls-1{fill:#ade500;}</style></defs><title>icon-quote-open</title><g id="Capa_2" data-name="Capa 2"><g id="Layer_1" data-name="Layer 1"><path class="cls-1" d="M11.69,0l6.25,5.1C14.3,7,10.1,11.8,9.08,15.89a6,6,0,0,1,2.28-.34c4.31,0,7.71,3.29,7.71,8.17a9.06,9.06,0,0,1-9,9C4.77,32.69,0,28.49,0,21.11,0,12.6,4.66,5,11.69,0ZM34.85,0,41.1,5.1c-3.64,1.94-8,6.7-8.86,10.79a5.56,5.56,0,0,1,2.27-.34c4.32,0,7.61,3.29,7.61,8.17a9,9,0,0,1-8.86,9c-5.33,0-10.1-4.2-10.1-11.58C23.16,12.6,27.81,5,34.85,0Z"/></g></g></svg>