<svg xmlns="http://www.w3.org/2000/svg" viewBox="0 0 158.45 117.86"><defs><style>.cls-1{fill:#ade500;}.cls-2{fill:#fff;}</style></defs><title>logo-dll</title><g id="Capa_2" data-name="Capa 2"><g id="Layer_1" data-name="Layer 1"><polygon class="cls-1" points="25.52 21.83 13.78 1.5 144.68 1.5 132.94 21.83 134.67 21.83 147.27 0 11.18 0 23.79 21.83 25.52 21.83"/><polygon class="cls-1" points="129.32 21.83 139.26 4.63 19.2 4.63 29.13 21.83 129.32 21.83"/><polygon class="cls-1" points="98.63 81.25 79.23 114.86 59.82 81.25 58.09 81.25 79.23 117.86 100.36 81.25 98.63 81.25"/><polygon class="cls-1" points="63.43 81.25 79.23 108.6 95.02 81.25 63.43 81.25"/><path class="cls-2" d="M0,31.13H4.05c3.71,0,4.72,1.89,4.72,4.67V53.49c0,2.78-.93,4.67-4.64,4.67H0ZM1.85,56.39h2.2c2.28,0,2.86-1.12,2.86-2.9V35.8c0-1.77-.62-2.89-2.89-2.89H1.85Z"/><rect class="cls-2" x="13.59" y="31.13" width="1.85" height="27.03"/><polygon class="cls-2" points="22.32 56.39 27.88 56.39 27.88 58.16 20.47 58.16 20.47 31.13 27.88 31.13 27.88 32.91 22.32 32.91 22.32 43.68 27.11 43.68 27.11 45.38 22.32 45.38 22.32 56.39"/><path class="cls-2" d="M38.7,45.38H36.19v-1.7h4.36v10.2c0,2.78-1,4.67-4.36,4.67s-4.37-1.89-4.37-4.67V35.42c0-2.78,1-4.67,4.37-4.67s4.32,1.89,4.32,4.67v3H38.7v-3c0-1.74-.66-3-2.51-3s-2.51,1.23-2.51,3V53.88c0,1.74.57,3,2.51,3s2.51-1.2,2.51-3Z"/><path class="cls-2" d="M53.53,35.46V53.84c0,2.78-1,4.71-4.37,4.71s-4.36-1.93-4.36-4.71V35.46c0-2.78,1-4.71,4.36-4.71s4.37,1.93,4.37,4.71M51.67,53.84V35.46c0-1.78-.54-3.05-2.51-3.05s-2.51,1.27-2.51,3.05V53.84c0,1.78.54,3,2.51,3s2.51-1.27,2.51-3"/><polygon class="cls-2" points="65.11 31.13 66.97 31.13 66.97 56.39 71.48 56.39 71.48 58.16 65.11 58.16 65.11 31.13"/><path class="cls-2" d="M83.57,58.16H81.64l-.85-6.48H76.35l-.85,6.48H73.61l3.86-27h2.24Zm-7-8.18H80.6l-2-15.87Z"/><polygon class="cls-2" points="94.19 31.13 96.04 31.13 96.04 56.39 100.56 56.39 100.56 58.16 94.19 58.16 94.19 31.13"/><path class="cls-2" d="M112,35.46V53.84c0,2.78-1,4.71-4.36,4.71s-4.36-1.93-4.36-4.71V35.46c0-2.78,1-4.71,4.36-4.71S112,32.68,112,35.46m-1.85,18.38V35.46c0-1.78-.54-3.05-2.51-3.05s-2.51,1.27-2.51,3.05V53.84c0,1.78.54,3,2.51,3s2.51-1.27,2.51-3"/><path class="cls-2" d="M123.31,45.38H120.8v-1.7h4.36v10.2c0,2.78-1,4.67-4.36,4.67s-4.36-1.89-4.36-4.67V35.42c0-2.78,1-4.67,4.36-4.67s4.32,1.89,4.32,4.67v3h-1.81v-3c0-1.74-.66-3-2.51-3s-2.51,1.23-2.51,3V53.88c0,1.74.58,3,2.51,3s2.51-1.2,2.51-3Z"/><path class="cls-2" d="M136.48,45.38H134v-1.7h4.36v10.2c0,2.78-1,4.67-4.36,4.67s-4.37-1.89-4.37-4.67V35.42c0-2.78,1-4.67,4.37-4.67s4.32,1.89,4.32,4.67v3h-1.81v-3c0-1.74-.66-3-2.51-3s-2.51,1.23-2.51,3V53.88c0,1.74.58,3,2.51,3s2.51-1.2,2.51-3Z"/><rect class="cls-2" x="142.97" y="31.13" width="1.85" height="27.03"/><path class="cls-2" d="M158.45,58.16h-1.93l-.85-6.48h-4.44l-.85,6.48h-1.89l3.86-27h2.24Zm-7-8.18h4.06l-2-15.87Z"/><path class="cls-2" d="M24,66.87V69h2.31v.8H24v3.06H23.1V66h3.65v.86Z"/><path class="cls-2" d="M32.2,72.86a3.28,3.28,0,0,1-1.36-.28,3.45,3.45,0,0,1-1.09-.74A3.69,3.69,0,0,1,29,70.75a3.49,3.49,0,0,1-.26-1.32A3.67,3.67,0,0,1,29,68.06,3.57,3.57,0,0,1,29.75,67a3.24,3.24,0,0,1,1.09-.72A3.44,3.44,0,0,1,32.2,66a3.25,3.25,0,0,1,1.32.27,3.38,3.38,0,0,1,1.1.72,3.65,3.65,0,0,1,.75,1.09,3.49,3.49,0,0,1,.27,1.37,3.32,3.32,0,0,1-.27,1.32,3.78,3.78,0,0,1-.75,1.09,3.61,3.61,0,0,1-1.1.74A3.1,3.1,0,0,1,32.2,72.86Zm0-6a2.59,2.59,0,0,0-1,.19,2.44,2.44,0,0,0-.82.54,2.54,2.54,0,0,0-.54.82,2.66,2.66,0,0,0-.2,1,2.53,2.53,0,0,0,.2,1,2.66,2.66,0,0,0,.54.82,2.46,2.46,0,0,0,.82.55,2.44,2.44,0,0,0,1,.21,2.33,2.33,0,0,0,1-.21,2.46,2.46,0,0,0,.82-.55,2.91,2.91,0,0,0,.56-.82,2.37,2.37,0,0,0,.21-1,2.5,2.5,0,0,0-.21-1,2.77,2.77,0,0,0-.56-.82,2.59,2.59,0,0,0-.83-.54A2.47,2.47,0,0,0,32.2,66.85Z"/><path class="cls-2" d="M40.81,72.86a3.25,3.25,0,0,1-1.36-.28,3.41,3.41,0,0,1-2.07-3.15,3.48,3.48,0,0,1,.26-1.37A3.24,3.24,0,0,1,38.36,67a3.14,3.14,0,0,1,1.09-.72A3.4,3.4,0,0,1,40.81,66a3.25,3.25,0,0,1,1.32.27,3.38,3.38,0,0,1,1.1.72A3.65,3.65,0,0,1,44,68.06a3.49,3.49,0,0,1,.27,1.37A3.32,3.32,0,0,1,44,70.75a3.78,3.78,0,0,1-.75,1.09,3.61,3.61,0,0,1-1.1.74A3.1,3.1,0,0,1,40.81,72.86Zm0-6a2.68,2.68,0,0,0-1,.19,2.5,2.5,0,0,0-.81.54,2.54,2.54,0,0,0-.54.82,2.66,2.66,0,0,0-.2,1,2.53,2.53,0,0,0,.2,1,2.66,2.66,0,0,0,.54.82,2.58,2.58,0,0,0,1.83.76,2.37,2.37,0,0,0,1-.21,2.57,2.57,0,0,0,.82-.55,2.91,2.91,0,0,0,.56-.82,2.37,2.37,0,0,0,.21-1,2.5,2.5,0,0,0-.21-1,2.63,2.63,0,0,0-.57-.82,2.54,2.54,0,0,0-.82-.54A2.47,2.47,0,0,0,40.81,66.85Z"/><path class="cls-2" d="M50.16,66v.81H48.41v6h-.8v-6H45.88V66Z"/><path class="cls-2" d="M53.81,66a1.75,1.75,0,0,1,.74.16,1.91,1.91,0,0,1,.55.42,1.77,1.77,0,0,1,.35.55,1.7,1.7,0,0,1,.12.61,1.53,1.53,0,0,1-.09.54,2.48,2.48,0,0,1-.22.4,2,2,0,0,1-.31.35,1.14,1.14,0,0,1,.24.14,1.88,1.88,0,0,1,.37.34,1.77,1.77,0,0,1,.33.54,1.73,1.73,0,0,1,.15.75,2,2,0,0,1-.18.86,1.85,1.85,0,0,1-.47.62,2,2,0,0,1-.64.39,2,2,0,0,1-.7.13H52V66Zm-1,.83v1.9h1a.77.77,0,0,0,.27-.07,1,1,0,0,0,.52-.48.82.82,0,0,0,.1-.42,1,1,0,0,0-.07-.34.91.91,0,0,0-.19-.3.81.81,0,0,0-.3-.21.79.79,0,0,0-.38-.08ZM54.05,72a1,1,0,0,0,.47-.1,1.08,1.08,0,0,0,.35-.28,1.28,1.28,0,0,0,.23-.37,1.22,1.22,0,0,0,.07-.41,1.2,1.2,0,0,0-.36-.88,1.25,1.25,0,0,0-.37-.28,1.07,1.07,0,0,0-.42-.1H52.85V72Z"/><path class="cls-2" d="M64.14,72.82h-.93l-.6-1.33H59.48l-.58,1.33H58c.11-.27.23-.55.36-.83s.24-.55.35-.82l1.19-2.79,1.19-2.82Zm-1.88-2.19c-.2-.5-.4-1-.59-1.42l-.6-1.44c-.09.23-.19.45-.28.66s-.2.44-.29.66-.22.49-.33.75l-.33.79Z"/><path class="cls-2" d="M70.41,72v.86H66.29V66h.86v6Z"/><path class="cls-2" d="M77,72v.86H72.89V66h.86v6Z"/><path class="cls-2" d="M89.27,72.83H88.19l-.88-1a3.12,3.12,0,0,1-2.09,1A1.9,1.9,0,0,1,84,72.41a1.85,1.85,0,0,1-.37-.51,1.53,1.53,0,0,1-.13-.64,1.63,1.63,0,0,1,.12-.62,2.57,2.57,0,0,1,.34-.54,3.2,3.2,0,0,1,.5-.47c.19-.15.38-.28.58-.41a3.83,3.83,0,0,1-.5-.82,2.1,2.1,0,0,1-.19-.77,1.53,1.53,0,0,1,.14-.66,1.58,1.58,0,0,1,.38-.5,1.67,1.67,0,0,1,.53-.32A1.84,1.84,0,0,1,86,66a1.68,1.68,0,0,1,.63.12,1.72,1.72,0,0,1,.51.33,1.58,1.58,0,0,1,.34.5,1.39,1.39,0,0,1,.13.61,1.2,1.2,0,0,1-.12.52,1.75,1.75,0,0,1-.3.48,2.44,2.44,0,0,1-.42.43,5.58,5.58,0,0,1-.47.38l.25.29.21.26.58.67a5.11,5.11,0,0,0,.44-.6c.09-.16.18-.31.25-.46h0l.12-.23H89a7.66,7.66,0,0,1-.53,1,7.25,7.25,0,0,1-.62.88ZM85.7,72a3.47,3.47,0,0,0,.48-.26,5.7,5.7,0,0,0,.58-.47l-1.19-1.38-.13.1-.12.08-.41.27a2.41,2.41,0,0,0-.33.28,1.14,1.14,0,0,0-.22.32.87.87,0,0,0-.08.37.65.65,0,0,0,.1.38.8.8,0,0,0,.22.26.88.88,0,0,0,.3.13,1.13,1.13,0,0,0,.3,0A1.11,1.11,0,0,0,85.7,72ZM86,66.86l-.23,0a1,1,0,0,0-.28.12.59.59,0,0,0-.24.23.67.67,0,0,0-.1.39,2,2,0,0,0,.58,1.17,4.24,4.24,0,0,0,.77-.62.88.88,0,0,0,.3-.58.75.75,0,0,0-.08-.35.8.8,0,0,0-.22-.23.83.83,0,0,0-.27-.12A.74.74,0,0,0,86,66.86Z"/><path class="cls-2" d="M96.23,66.87V69h2.3v.8h-2.3v3.06h-.87V66H99v.86Z"/><path class="cls-2" d="M102.23,66v6.81h-.87V66Z"/><path class="cls-2" d="M108.51,66v.81h-1.74v6H106v-6h-1.73V66Z"/><path class="cls-2" d="M115.75,73.25l-4.34-5.39v5h-.8V65.56L115,70.89V66h.79Z"/><path class="cls-2" d="M119,66.87V69h2.31v.8H119V72h2.79v.86h-3.65V66h3.65v.86Z"/><path class="cls-2" d="M126.31,72.89a3.69,3.69,0,0,1-1-.13,6.21,6.21,0,0,1-.75-.27,3.13,3.13,0,0,1-.41-.21l-.28-.17.36-.69.4.21h0a6.47,6.47,0,0,0,.75.3,3.21,3.21,0,0,0,.92.14,2.23,2.23,0,0,0,.6-.08,2,2,0,0,0,.46-.21,1,1,0,0,0,.31-.77.9.9,0,0,0-.46-.76,2.65,2.65,0,0,0-.48-.27,5.68,5.68,0,0,0-.6-.26l-.72-.34a3.62,3.62,0,0,1-.66-.4,1.65,1.65,0,0,1-.67-1.3,1.36,1.36,0,0,1,.17-.69h0a2,2,0,0,1,.44-.56,2.34,2.34,0,0,1,1.5-.47,3.38,3.38,0,0,1,.86.1,4.93,4.93,0,0,1,.66.19h0a2.3,2.3,0,0,1,.37.12l-.4.74c-.19-.07-.41-.14-.67-.21a3.1,3.1,0,0,0-.81-.1l-.38,0a1.23,1.23,0,0,0-.45.17.75.75,0,0,0-.41.72.52.52,0,0,0,.11.32,1.4,1.4,0,0,0,.31.27,4.49,4.49,0,0,0,.45.26l.53.23.77.35a3.61,3.61,0,0,1,.73.46,1.74,1.74,0,0,1,.75,1.42,1.52,1.52,0,0,1-.2.79,1.84,1.84,0,0,1-.56.62,2.73,2.73,0,0,1-.71.32A3,3,0,0,1,126.31,72.89Z"/><path class="cls-2" d="M133.05,72.89a3.69,3.69,0,0,1-1-.13,6.21,6.21,0,0,1-.75-.27,3.13,3.13,0,0,1-.41-.21l-.28-.17.36-.69.4.21h0a6.47,6.47,0,0,0,.75.3,3.21,3.21,0,0,0,.92.14,2.23,2.23,0,0,0,.6-.08,2,2,0,0,0,.46-.21,1,1,0,0,0,.31-.77.9.9,0,0,0-.46-.76,2.65,2.65,0,0,0-.48-.27,5.68,5.68,0,0,0-.6-.26l-.72-.34a3.62,3.62,0,0,1-.66-.4,1.65,1.65,0,0,1-.67-1.3A1.36,1.36,0,0,1,131,67h0a2,2,0,0,1,.44-.56,2.34,2.34,0,0,1,1.5-.47,3.38,3.38,0,0,1,.86.1,4.93,4.93,0,0,1,.66.19h0a2.68,2.68,0,0,1,.37.12l-.4.74c-.19-.07-.41-.14-.67-.21a3.1,3.1,0,0,0-.81-.1l-.38,0a1.23,1.23,0,0,0-.45.17.75.75,0,0,0-.41.72.52.52,0,0,0,.11.32,1.4,1.4,0,0,0,.31.27,4.49,4.49,0,0,0,.45.26l.53.23.77.35a3.61,3.61,0,0,1,.73.46,1.74,1.74,0,0,1,.75,1.42,1.52,1.52,0,0,1-.2.79,1.84,1.84,0,0,1-.56.62,2.73,2.73,0,0,1-.71.32A3,3,0,0,1,133.05,72.89Z"/></g></g></svg>