<svg id="Capa_1" data-name="Capa 1" xmlns="http://www.w3.org/2000/svg" viewBox="0 0 64 57.5"><defs><style>.cls-1{fill:#ace400;}</style></defs><title>modus</title><path d="M34.9,27a5.6,5.6,0,1,0-5.6,5.6A5.59,5.59,0,0,0,34.9,27" transform="translate(-6.2 -6.75)"/><path d="M40.4,47v-7.6a3.16,3.16,0,0,0-3.2-3.2h-16a3.16,3.16,0,0,0-3.2,3.2V47h3.8v-3.9a1,1,0,0,1,2,0V47H34.4v-3.9a1,1,0,0,1,1-1,1.08,1.08,0,0,1,1,1V47Z" transform="translate(-6.2 -6.75)"/><path d="M66.7,28.75a12.55,12.55,0,0,1-5,2.2v18.1H14V16.85H45.7a12.48,12.48,0,0,1,1.4-5H12.9a3.8,3.8,0,0,0-3.8,3.8v38.2H66.7Z" transform="translate(-6.2 -6.75)"/><path class="cls-1" d="M59,29.15A11.2,11.2,0,1,0,47.8,18,11.18,11.18,0,0,0,59,29.15m-3.4-15.1a1.81,1.81,0,0,1,2.8-1.5l6,3.9a1.78,1.78,0,0,1,0,3l-6,3.9a1.81,1.81,0,0,1-2.8-1.5Z" transform="translate(-6.2 -6.75)"/><path d="M45.5,58.15a1,1,0,0,1-1,1H31.4a1,1,0,0,1-1-1v-2.1H6.2a8.17,8.17,0,0,0,8.2,8.2H61.3a8.24,8.24,0,0,0,8.2-8.2h-24Z" transform="translate(-6.2 -6.75)"/><path d="M56.4,36.35H46.5a1,1,0,0,0-1,1,1.08,1.08,0,0,0,1,1h9.9a1,1,0,0,0,1-1,1.08,1.08,0,0,0-1-1" transform="translate(-6.2 -6.75)"/><path d="M56.4,42.65H46.5a1,1,0,0,0,0,2h9.9a1,1,0,0,0,0-2" transform="translate(-6.2 -6.75)"/></svg>