<svg id="Capa_1" data-name="Capa 1" xmlns="http://www.w3.org/2000/svg" xmlns:xlink="http://www.w3.org/1999/xlink" viewBox="0 0 200 200"><defs><style>.cls-1{fill:none;}.cls-2{clip-path:url(#clip-path);}.cls-3{fill:#bce235;}.cls-4{clip-path:url(#clip-path-2);}</style><clipPath id="clip-path"><circle class="cls-1" cx="100" cy="100" r="160.96"/></clipPath><clipPath id="clip-path-2"><circle class="cls-1" cx="100" cy="100" r="110.7"/></clipPath></defs><title>piernas</title><g class="cls-2"><g id="xgoLEP"><rect class="cls-3" x="-209.13" y="-143.01" width="661.48" height="582.27"/></g></g><rect x="98.47" y="76.99" width="3.07" height="9.2"/><rect x="98.47" y="89.26" width="3.07" height="6.14"/><rect x="98.47" y="109.2" width="3.07" height="6.14"/><rect x="98.47" y="118.41" width="3.07" height="6.14"/><path d="M88.34,113l-.66-2.65-3,.74.66,2.65a6.12,6.12,0,0,0,5.95,4.65H95.4v-3.07H91.32A3.08,3.08,0,0,1,88.34,113Z"/><path d="M88.34,122.22l-.66-2.65-3,.74.66,2.65a6.12,6.12,0,0,0,5.95,4.65H95.4v-3.07H91.32A3.07,3.07,0,0,1,88.34,122.22Z"/><path d="M141.34,84.09c0-.73.08-1.51.08-2.34a18,18,0,0,0-1.47-7,18.3,18.3,0,0,0-12.31-10.49l-10.72-2.67a6.14,6.14,0,0,1-4.65-6V52.44H87.73v3.22a6.14,6.14,0,0,1-4.65,6L72.36,64.29A18.3,18.3,0,0,0,60.05,74.78a18,18,0,0,0-1.47,7c0,.83,0,1.61.07,2.34-4.1,4.38-6.21,10.06-6.21,16.92v.19A19.35,19.35,0,0,0,61,117.29l15.51,10.82A62.17,62.17,0,0,0,73.92,146v1.54h52.16V146a62.17,62.17,0,0,0-2.63-17.91l15.48-10.8a19.35,19.35,0,0,0,8.63-16.11V101C147.56,94.15,145.45,88.47,141.34,84.09ZM75,98.85a11.76,11.76,0,0,0,.74,1.46,11.15,11.15,0,0,0,1.45,1.89c.15,1,.56,3.67.9,6.89L77.11,108A24.06,24.06,0,0,0,71,102.93,15.06,15.06,0,0,0,75,98.85ZM77,144.49a62.12,62.12,0,0,1,2.66-16.18,40.26,40.26,0,0,0,1.92-11,97.71,97.71,0,0,0-1-12.48,12.08,12.08,0,0,0,5.37,1.3h6.6a11.92,11.92,0,0,0,7.41-2.56,11.92,11.92,0,0,0,7.41,2.56H114a12.08,12.08,0,0,0,5.37-1.3,97.71,97.71,0,0,0-1,12.48,40.26,40.26,0,0,0,1.92,11A62.12,62.12,0,0,1,123,144.49Zm47.3-44.18a11.76,11.76,0,0,0,.74-1.46,15.21,15.21,0,0,0,3.92,4.08,24.27,24.27,0,0,0-6.08,5.08l-.93,1.08c.34-3.22.75-5.9.9-6.89A11.15,11.15,0,0,0,124.31,100.31Zm20.18.89a16.28,16.28,0,0,1-2.32,8.38,16.49,16.49,0,0,1-5,5.19L122.61,125a29.58,29.58,0,0,1-1.13-7.63c0-1,0-2,.08-3l3.66-4.27a21.23,21.23,0,0,1,11.9-7l-.61-3a24,24,0,0,0-4.3,1.31,12.13,12.13,0,0,1-6.14-7.66,95.23,95.23,0,0,0-1.28-15.36l-.27-1.58-3,.5.26,1.59A91.91,91.91,0,0,1,123,93.92a9.39,9.39,0,0,1-1.33,4.81,9,9,0,0,1-7.67,4.34h-6.6a8.9,8.9,0,0,1-6.33-2.62L100,99.36l-1.08,1.09a8.9,8.9,0,0,1-6.33,2.62H86a9,9,0,0,1-7.67-4.34A9.39,9.39,0,0,1,77,93.92a91.91,91.91,0,0,1,1.25-15.09l.26-1.59-3-.5-.27,1.58a95.23,95.23,0,0,0-1.28,15.36,12.13,12.13,0,0,1-6.14,7.66A23.83,23.83,0,0,0,63.48,100l-.6,3a21.21,21.21,0,0,1,11.9,7l3.66,4.28c0,1,.08,2,.08,3A29.58,29.58,0,0,1,77.39,125l-14.62-10.2a16.32,16.32,0,0,1-7.26-13.55V101a21.65,21.65,0,0,1,3.73-12.79,16.2,16.2,0,0,0,1,3.26L63,90.12a20.49,20.49,0,0,1-1.38-8.36A15,15,0,0,1,62.87,76a15.23,15.23,0,0,1,10.24-8.71l10.71-2.68a9.2,9.2,0,0,0,7-8.93v-.15h18.4v.15a9.2,9.2,0,0,0,7,8.93l10.72,2.68A15.23,15.23,0,0,1,137.13,76a15,15,0,0,1,1.22,5.78A20.77,20.77,0,0,1,137,90.12l1.37.68,1.37.68a16.2,16.2,0,0,0,1-3.26A21.65,21.65,0,0,1,144.49,101v.19Z"/><path d="M111.66,113a3.08,3.08,0,0,1-3,2.32H104.6v3.07h4.08a6.12,6.12,0,0,0,5.95-4.65l.66-2.65-3-.74Z"/><path d="M111.66,122.22a3.07,3.07,0,0,1-3,2.32H104.6v3.07h4.08a6.12,6.12,0,0,0,5.95-4.65l.66-2.65-3-.74Z"/><rect x="98.47" y="127.61" width="3.07" height="6.14"/><path d="M88.34,131.42l-.66-2.65-3,.75.66,2.65a6.13,6.13,0,0,0,5.95,4.65H95.4v-3.07H91.32A3.08,3.08,0,0,1,88.34,131.42Z"/><path d="M111.66,131.42a3.08,3.08,0,0,1-3,2.33H104.6v3.07h4.08a6.12,6.12,0,0,0,5.95-4.65l.66-2.65-3-.74Z"/><g class="cls-4"><g id="xgoLEP-2" data-name="xgoLEP"><rect class="cls-3" x="-73.6" y="-32.8" width="376.93" height="331.79"/></g></g><path d="M82.65,146.62a9.42,9.42,0,0,1-4.35-.91,9.07,9.07,0,0,0-3.62-.56,1.73,1.73,0,0,1-.5-.07c-1.58-.46-3.72-1.3-4-3.13-.17-1.21.53-2.34,2.09-3.36a2.1,2.1,0,0,1,.3-.15A55.89,55.89,0,0,1,84,135.33a8.49,8.49,0,0,0,5.64-4.18c2.29-4.32,1.54-11.8-2.28-22.87a1.57,1.57,0,1,1,3-1c4.18,12.1,4.84,20.16,2.09,25.36a11.67,11.67,0,0,1-7.69,5.77l-.19,0a51.63,51.63,0,0,0-10.67,2.88l-.27.2a7.65,7.65,0,0,0,1.25.49,13.14,13.14,0,0,1,4.64.8.88.88,0,0,1,.2.09c1.37.73,4.33,1.16,10.62-1,3-1.37,6.48-1.27,10.34.36,2.31.11,5.17-.1,6.21-1.62.9-1.32.56-3.8-1-7.19-3.65-10-4.43-18.74-2.37-26.13a1.57,1.57,0,0,1,3,.84c-1.88,6.75-1.12,14.86,2.25,24.1,2,4.46,2.27,7.81.67,10.15s-4.58,3.24-9.26,3a1.47,1.47,0,0,1-.54-.13c-3.1-1.36-5.85-1.51-8.18-.44A28.5,28.5,0,0,1,82.65,146.62Z"/><path d="M86.12,84.92H86A9.2,9.2,0,0,1,78.28,80C76.83,76.9,77.45,73.1,80,69.27c7.69-11.5,22.67-16.67,45.79-15.8a1.57,1.57,0,0,1-.12,3.14c-21.93-.82-36,3.88-43.06,14.41-1.94,2.88-2.48,5.59-1.52,7.62a6,6,0,0,0,5.15,3.14,1.57,1.57,0,0,1-.15,3.14Z"/><path d="M88.84,109.34a1.59,1.59,0,0,1-1.45-1A101.27,101.27,0,0,1,80.26,82a1.57,1.57,0,0,1,3.11-.42,98.07,98.07,0,0,0,6.91,25.56,1.57,1.57,0,0,1-.83,2.06A1.49,1.49,0,0,1,88.84,109.34Z"/><path d="M105,109.34a1.83,1.83,0,0,1-.4,0,1.58,1.58,0,0,1-1.12-1.92c2.51-9.49.86-17.74-5-25.24a1.57,1.57,0,0,1,1.71-2.46c8.16,2.6,17.58,3.53,28,2.75a1.56,1.56,0,0,1,1.68,1.45,1.58,1.58,0,0,1-1.45,1.68,81.08,81.08,0,0,1-24.94-1.71c4.39,7.31,5.42,15.47,3.09,24.33A1.58,1.58,0,0,1,105,109.34Z"/><path d="M88.78,79.22A1.56,1.56,0,0,1,87.38,77a10.58,10.58,0,0,0,1.11-5.86,1.57,1.57,0,1,1,3.13-.28,13.81,13.81,0,0,1-1.43,7.54A1.58,1.58,0,0,1,88.78,79.22Z"/></svg>