<?xml version="1.0" encoding="utf-8"?>
<!-- Generator: Adobe Illustrator 22.0.1, SVG Export Plug-In . SVG Version: 6.00 Build 0)  -->
<svg version="1.1" id="Capa_1" xmlns="http://www.w3.org/2000/svg" xmlns:xlink="http://www.w3.org/1999/xlink" x="0px" y="0px"
	 viewBox="0 0 60 60" style="enable-background:new 0 0 60 60;" xml:space="preserve">
<style type="text/css">
	.st0{fill:#ACE400;}
</style>
<title>bullseye</title>
<g>
	<path d="M58,5.1c0,1.1-0.9,2.1-2.1,2.1H41.4v14.5c0,1.1-0.9,2.1-2.1,2.1H24.8v14.5c0,1.1-0.9,2.1-2.1,2.1H8.2v14.5
		c0,1.1-0.9,2.1-2.1,2.1S4,56.1,4,54.9V40.4c0-2.3,1.9-4.2,4.2-4.2h12.5V23.8c0-2.3,1.9-4.2,4.2-4.2h12.5V7.2c0-2.3,1.9-4.2,4.2-4.2
		h14.5C57.1,3,58,3.9,58,5.1z"/>
	<path class="st0" d="M49.7,34.2v8.3c0,1.1-0.9,2.1-2.1,2.1s-2.1-0.9-2.1-2.1v-3.3l-8.9,8.9c-0.8,0.8-2.1,0.8-2.9,0s-0.8-2.1,0-2.9
		l8.9-8.9h-3.3c-1.1,0-2.1-0.9-2.1-2.1s0.9-2.1,2.1-2.1h8.3C48.8,32.1,49.7,33,49.7,34.2z"/>
</g>
</svg>
