<svg xmlns="http://www.w3.org/2000/svg" viewBox="0 0 155.28 98"><defs><style>.cls-1{fill:#ace400;}.cls-2{font-size:13.09px;font-family:ProximaNova-Bold, Proxima Nova;font-weight:700;}.cls-3{letter-spacing:-0.01em;}</style></defs><title>transfer</title><g id="Capa_2" data-name="Capa 2"><g id="Layer_1" data-name="Layer 1"><rect class="cls-1" y="60.8" width="155.28" height="37.2" rx="18.6" ry="18.6"/><text class="cls-2" transform="matrix(1, 0.01, -0.01, 1, 29.17, 76.31)">TRANSFERENCIA<tspan x="19.31" y="13.08">BAN</tspan><tspan class="cls-3" x="46.47" y="13.08">C</tspan><tspan x="55.37" y="13.08">ARIA</tspan></text><path class="cls-1" d="M80.5,19.31a3.11,3.11,0,0,1,1.77-.5,4.89,4.89,0,0,1,3.42,1l1.14.95,2.85-4.63-1.14-.63a13.17,13.17,0,0,0-3.74-1.46V10.51H79.55v3.67a7.44,7.44,0,0,0-3.24,2,6.17,6.17,0,0,0-1.64,4.24c0,2.79,2.22,5.13,6.59,7,1.07.45,3,1.4,3,2.54a1.38,1.38,0,0,1-.63,1.2,3.49,3.49,0,0,1-2.15.57,6.35,6.35,0,0,1-4.06-1.33l-1.14-.95-2.53,4.43.82.7a10.15,10.15,0,0,0,4.63,2V40h5.25V36.42a7.89,7.89,0,0,0,3.42-2.22,6.32,6.32,0,0,0,1.71-4.31A6,6,0,0,0,88,25.58a14.08,14.08,0,0,0-4.69-3C80.05,21.09,80,20.2,80,20.14A1.29,1.29,0,0,1,80.5,19.31Z"/><path class="cls-1" d="M61.37,19.88A20.78,20.78,0,0,1,71.18,7.09,21.12,21.12,0,0,1,87.21,5,20.66,20.66,0,0,1,97,10.76l-2.41,1.39,7.79,3.3,1-8.36L100.7,8.61A25.3,25.3,0,0,0,58.32,35L62,32.8A21.34,21.34,0,0,1,61.37,19.88Z"/><path class="cls-1" d="M105.2,15.7l-3.67,2.15a21.18,21.18,0,0,1-9.19,25.79,21.21,21.21,0,0,1-16,2.09A20.73,20.73,0,0,1,66.56,40L69,38.51l-7.79-3.3-1,8.43,2.54-1.46A25.37,25.37,0,0,0,105.2,15.7Z"/></g></g></svg>