<?xml version="1.0" encoding="utf-8"?>
<!-- Generator: Adobe Illustrator 24.2.3, SVG Export Plug-In . SVG Version: 6.00 Build 0)  -->
<svg version="1.1" id="Capa_1" xmlns="http://www.w3.org/2000/svg" xmlns:xlink="http://www.w3.org/1999/xlink" x="0px" y="0px"
	 viewBox="0 0 155.3 98" style="enable-background:new 0 0 155.3 98;" xml:space="preserve">
<style type="text/css">
	.st0{fill:#ACE400;}
</style>
<g id="Capa_2_1_">
	<g id="Layer_1">
		<path class="st0" d="M76.4,42.9c0.5-0.3,1.1-0.5,1.8-0.5c1.2-0.1,2.4,0.2,3.4,1l1.1,1l2.8-4.6l-1.1-0.6c-1.2-0.7-2.4-1.2-3.7-1.5
			v-3.5h-5.2v3.7c-1.2,0.4-2.4,1.1-3.2,2c-1.1,1.2-1.7,2.7-1.6,4.2c0,2.8,2.2,5.1,6.6,7c1.1,0.5,3,1.4,3,2.5c0,0.5-0.2,0.9-0.6,1.2
			c-0.6,0.4-1.4,0.6-2.2,0.6c-1.5,0-2.9-0.4-4.1-1.3l-1.1-1l-2.5,4.4l0.8,0.7c1.4,1,2.9,1.7,4.6,2v3.4h5.3v-3.6
			c1.3-0.4,2.5-1.2,3.4-2.2c1.1-1.2,1.7-2.7,1.7-4.3c0.1-1.6-0.5-3.1-1.6-4.3c-1.3-1.3-2.9-2.3-4.7-3c-3.3-1.5-3.3-2.4-3.3-2.4
			C75.9,43.4,76.1,43.1,76.4,42.9z"/>
		<path class="st0" d="M57.3,43.5c1.4-5.4,5-10,9.8-12.8c4.9-2.8,10.6-3.5,16-2.1c3.7,1,7.1,3,9.8,5.8l-2.4,1.4l7.8,3.3l1-8.4
			l-2.7,1.5c-9.2-10.5-25.2-11.5-35.7-2.3c-8.1,7.2-10.8,18.7-6.7,28.7l3.7-2.2C56.3,52.3,56.1,47.8,57.3,43.5z"/>
		<path class="st0" d="M101.1,39.3l-3.7,2.1c3.7,9.7-0.2,20.6-9.2,25.8c-4.8,2.8-10.6,3.5-16,2.1c-3.7-1-7.1-2.9-9.8-5.7l2.4-1.5
			l-7.8-3.3l-1,8.4l2.5-1.5C67.9,76.3,84,77.3,94.5,68C102.5,60.8,105.2,49.3,101.1,39.3z"/>
	</g>
</g>
</svg>
