<svg id="Capa_1" data-name="Capa 1" xmlns="http://www.w3.org/2000/svg" viewBox="0 0 200 120"><defs><style>.cls-1{fill:#bce235;}.cls-2{fill:#2e252f;}</style></defs><title>video-class</title><path d="M121.69,100.63h-4.77V95.86H90.59v4.77H85.81a3.3,3.3,0,0,0,0,6.59h36a3.31,3.31,0,0,0,3.3-3.29A3.58,3.58,0,0,0,121.69,100.63Z"/><path d="M68.2,40.89a.16.16,0,0,1,.17-.16h33.08V36.78H68.37a4.18,4.18,0,0,0-4.12,4.11v40h4Z"/><path d="M139.13,36.78h-1.64v3.95h1.64a.16.16,0,0,1,.17.16v40h3.95v-40A4.18,4.18,0,0,0,139.13,36.78Z"/><path d="M64.25,90.27a4.07,4.07,0,0,0,4.12,4.11h70.76a4.07,4.07,0,0,0,4.12-4.11V82.53h-79ZM134.69,86a2.35,2.35,0,0,1,2.31,2.3,2.31,2.31,0,1,1-2.31-2.3Zm-7.9,0a2.35,2.35,0,0,1,2.31,2.3,2.31,2.31,0,1,1-2.31-2.3Zm-7.9,0a2.35,2.35,0,0,1,2.31,2.3,2.31,2.31,0,1,1-2.31-2.3Z"/><path d="M88.94,73c-.17,1-.66,5.43-.82,7.9h17.44c-.49-.17,3.79-4.42,3.46-4.91V68.54c-.17,0-5.13,4.49-13.33.17,0,0-3.79,1.64-4.12,1.81C90.58,71,89.1,71.83,88.94,73Z"/><path d="M109,68.54l-2.64,4.61a2.27,2.27,0,0,1-1.15,1l.33,6.75h11.52c-.16-2.47-.66-6.92-.82-7.9-.17-1.16-1.65-2-2.64-2.47C113.13,70.35,110.83,69.37,109,68.54Z"/><path d="M94.53,58.52c.17,1.15.83,2,1.48,2h.17c.66,3.29,3.29,5.92,6.25,5.92s5.43-2.47,6.26-5.92h.16c.66.16,1.32-.83,1.48-2s-.16-2.14-.66-2.3h-.32v-.33c.82-4.28-1.16-5.93-2.8-6.09h-.5c0-1-.33-1.65-1.48-1.81-2-.17-8.72.66-9.21,5.1a12,12,0,0,0-.17,3.29C94.53,56.38,94.37,57.37,94.53,58.52Z"/><path class="cls-1" d="M106.06,49.62h1v3.29c0,.49.66.82,1,.49l3.79-3.78h21.06a3,3,0,0,0,3-3V36.29a3,3,0,0,0-3-3H106.06a3,3,0,0,0-3,3V46.65A3,3,0,0,0,106.06,49.62ZM126,39.25a2.14,2.14,0,1,1-2.14,2.14A2,2,0,0,1,126,39.25Zm-6.42,0a2.14,2.14,0,1,1-2.14,2.14A2,2,0,0,1,119.55,39.25Zm-6.42,0A2.14,2.14,0,1,1,111,41.39,2,2,0,0,1,113.13,39.25Z"/><path class="cls-1" d="M36.75,40.72a28,28,0,1,1,27.9,28.11A28.07,28.07,0,0,1,36.75,40.72Zm41.37.5a6.84,6.84,0,0,0-1.27-1.36Q68.45,34.87,60,30c-1.41-.83-2.53-.25-2.53,1.36q-.07,9.93,0,19.87c0,1.62,1.12,2.24,2.52,1.41q8.52-4.92,17-10c.41-.27.66-.84,1.16-1.43Z"/><path class="cls-2" d="M78.12,41.22a6.84,6.84,0,0,0-1.27-1.36Q68.45,34.87,60,30c-1.41-.83-2.53-.25-2.53,1.36q-.07,9.93,0,19.87c0,1.62,1.12,2.24,2.52,1.41q8.52-4.92,17-10c.41-.27.66-.84,1.16-1.43Z"/></svg>